<?xml version="1.0" encoding="UTF-8"?>
<svg width="325px" height="177px" viewBox="0 0 325 177" version="1.1" xmlns="http://www.w3.org/2000/svg" xmlns:xlink="http://www.w3.org/1999/xlink">
    <title>14F00BA0-B211-469D-BFED-E447B0BA7B6A</title>
    <defs>
        <polygon id="path-1" points="0 0 183 0 183 172 0 172"></polygon>
        <polygon id="path-3" points="0 0 95 0 95 105 0 105"></polygon>
        <polygon id="path-5" points="0 0 105 0 105 177 0 177"></polygon>
    </defs>
    <g id="Page-1" stroke="none" stroke-width="1" fill="none" fill-rule="evenodd">
        <g id="Desktop-HD-Copy-4" transform="translate(-120.000000, -174.000000)">
            <g id="Group-10" transform="translate(120.000000, 174.000000)">
                <g id="Group-3" transform="translate(0.000000, 5.000000)">
                    <mask id="mask-2" fill="white">
                        <use xlink:href="#path-1"></use>
                    </mask>
                    <g id="Clip-2"></g>
                    <path d="M182.985507,67.9386925 L147.474575,67.9386925 C158.805261,56.4249881 170.133048,44.9257955 181.463734,33.4120911 L168.217063,0 L0.624941394,168.372327 C-0.714218736,169.713222 0.242324214,172.00029 2.13222119,172.00029 L42.6606561,172.00029 C43.2229874,172.00029 43.7592312,171.773905 44.1679359,171.379183 L115.865178,100.123081 L174.573726,100.123081 L183,67.9241806 L182.985507,67.9386925 Z" id="Fill-1" fill="#D0251B" mask="url(#mask-2)"></path>
                </g>
                <g id="Group-6" transform="translate(230.000000, 0.000000)">
                    <mask id="mask-4" fill="white">
                        <use xlink:href="#path-3"></use>
                    </mask>
                    <g id="Clip-5"></g>
                    <path d="M86.174225,12.6003483 C78.7293299,4.35976115 67.3440454,0 52.6373263,0 L28.1697163,0 L19.4956289,32.3150605 L37.5063471,32.3150605 C43.3268486,32.3150605 47.7496161,33.8940952 50.7717437,37.040554 C53.7938713,40.1870128 54.9242633,44.3493946 54.1774491,49.5160889 C53.1720104,56.4591972 50.0801414,62.1164372 44.9221833,66.4761984 C39.767131,70.8388622 33.6211696,73.024548 26.5162638,73.024548 L8.58691064,73.024548 L0,105 L22.3608384,105 C33.5223693,105 43.9051211,102.828827 53.5119998,98.454553 C63.1188785,94.0918892 71.3396468,87.8831481 78.1772105,79.7993034 C85.0147742,71.7270692 89.832743,62.4415326 92.6572699,51.9426936 C93.5493788,48.0618676 94.0985923,45.3246807 94.3397814,43.7021065 C96.3884352,29.6475369 93.6743321,20.8554487 86.2178134,12.6148615" id="Fill-4" fill="#D0251B" mask="url(#mask-4)"></path>
                </g>
                <g id="Group-9" transform="translate(145.000000, 0.000000)">
                    <mask id="mask-6" fill="white">
                        <use xlink:href="#path-5"></use>
                    </mask>
                    <g id="Clip-8"></g>
                    <polygon id="Fill-7" fill="#D0251B" mask="url(#mask-6)" points="105 0 86.1466744 0 30.3966536 0 43.1869641 32.0881859 57.6787647 32.0881859 28.0192292 144.701471 8.69682844 144.701471 0 177.001451 76.7156414 177.001451 85.3979023 144.701471 66.0201448 144.701471"></polygon>
                </g>
            </g>
        </g>
    </g>
</svg>