<?xml version="1.0" encoding="UTF-8"?>
<svg width="96px" height="52px" viewBox="0 0 96 52" version="1.1" xmlns="http://www.w3.org/2000/svg" xmlns:xlink="http://www.w3.org/1999/xlink">
    <title>B17C9E55-9DD3-499E-A6F4-EE26289E848F</title>
    <defs>
        <polygon id="path-1" points="0 0 54.1565823 0 54.1565823 50.5121305 0 50.5121305"></polygon>
        <polygon id="path-3" points="0 0 28.0436696 0 28.0436696 30.8330615 0 30.8330615"></polygon>
        <polygon id="path-5" points="0 0 30.9145854 0 30.9145854 52 0 52"></polygon>
    </defs>
    <g id="Page-1" stroke="none" stroke-width="1" fill="none" fill-rule="evenodd">
        <g id="Desktop-HD" transform="translate(-107.000000, -3381.000000)">
            <g id="Now-in-Play" transform="translate(-63.000000, 3184.000000)">
                <g id="Group-10-Copy" transform="translate(170.000000, 197.000000)">
                    <g id="Group-3" transform="translate(0.000000, 1.487870)">
                        <mask id="mask-2" fill="white">
                            <use xlink:href="#path-1"></use>
                        </mask>
                        <g id="Clip-2"></g>
                        <path d="M54.1522933,19.9519076 L43.6432729,19.9519076 C46.996449,16.5706184 50.3487673,13.193591 53.7019435,9.81230177 L49.7817555,0 L0.184943662,49.4467729 C-0.211364185,49.8405606 0.0717128484,50.5122157 0.631004441,50.5122157 L12.6248926,50.5122157 C12.7913075,50.5122157 12.9500022,50.4457321 13.0709533,50.3298119 L34.2888637,29.4036635 L51.662931,29.4036635 L54.1565823,19.9476458 L54.1522933,19.9519076 Z" id="Fill-1" fill="#FFFFFF" mask="url(#mask-2)"></path>
                    </g>
                    <g id="Group-6" transform="translate(67.956330, 0.000256)">
                        <mask id="mask-4" fill="white">
                            <use xlink:href="#path-3"></use>
                        </mask>
                        <g id="Clip-5"></g>
                        <path d="M25.4383316,3.70006966 C23.2406244,1.28023604 19.879728,0 15.5383557,0 L8.3156023,0 L5.75504186,9.48925952 L11.0717432,9.48925952 C12.789935,9.48925952 14.0955206,9.95294021 14.9876422,10.8768922 C15.8797637,11.8008442 16.2134515,13.0231201 15.9929946,14.5403106 C15.6961926,16.5791419 14.7834836,18.2403803 13.2608723,19.5206163 C11.7391188,20.8017047 9.92485234,21.4435274 7.82750887,21.4435274 L2.53482616,21.4435274 L0,30.8330615 L6.60084173,30.8330615 C9.89568683,30.8330615 12.9606391,30.1955006 15.7965563,28.9110027 C18.6324734,27.6299144 21.0592156,25.8067287 23.0776407,23.4329222 C25.0960657,21.0625251 26.5183133,18.335844 27.3521039,15.2528787 C27.6154513,14.1132812 27.7775772,13.3095111 27.8487754,12.8330451 C28.4535309,8.70594599 27.6523371,6.12416506 25.4511987,3.70433143" id="Fill-4" fill="#FFFFFF" mask="url(#mask-4)"></path>
                    </g>
                    <g id="Group-9" transform="translate(42.846368, 0.000000)">
                        <mask id="mask-6" fill="white">
                            <use xlink:href="#path-5"></use>
                        </mask>
                        <g id="Clip-8"></g>
                        <polygon id="Fill-7" fill="#FFFFFF" mask="url(#mask-6)" points="30.9145854 0 25.3637022 0 8.94952329 0 12.7153056 9.42703766 16.9820486 9.42703766 8.24955099 42.5111667 2.56056044 42.5111667 0 52.0004262 22.5869738 52.0004262 25.1432452 42.5111667 19.4379563 42.5111667"></polygon>
                    </g>
                </g>
            </g>
        </g>
    </g>
</svg>