<?xml version="1.0" encoding="UTF-8"?>
<svg width="72px" height="41px" viewBox="0 0 72 41" version="1.1" xmlns="http://www.w3.org/2000/svg" xmlns:xlink="http://www.w3.org/1999/xlink">
    <title>FC6278FF-8DEE-4114-B50F-3D9E452DD9DF</title>
    <g id="Page-1" stroke="none" stroke-width="1" fill="none" fill-rule="evenodd">
        <g id="Desktop-HD" transform="translate(-253.000000, -2738.000000)">
            <g id="Calendar" transform="translate(229.000000, 2200.000000)">
                <g id="Date/Master-Copy-8" transform="translate(0.000000, 256.000000)">
                    <g id="Date/Master-Copy-11" transform="translate(0.000000, 270.000000)">
                        <g id="Flag" transform="translate(24.000000, 12.000000)">
                            <polygon id="Fill-1" fill="#F5F5F5" points="0 27.3352344 71.3703704 27.3352344 71.3703704 13.6590625 0 13.6590625"></polygon>
                            <polygon id="Fill-2" fill="#809FCF" points="0 13.6704688 71.3703704 13.6704688 71.3703704 0 0 0"></polygon>
                            <polygon id="Fill-3" fill="#809FCF" points="0 41 71.3703704 41 71.3703704 27.3352344 0 27.3352344"></polygon>
                            <g id="Group-244" transform="translate(29.003839, 13.913994)">
                                <path d="M6.39762471,6.57859229 L6.61186321,12.1733899 C6.61186321,12.1733899 6.61186321,12.2817499 6.6871362,12.2817499 C6.75082872,12.2817499 6.75082872,12.1733899 6.75082872,12.1733899 L6.96506722,6.57859229 L6.39762471,6.57859229 Z" id="Fill-4" fill="#E7B65B"></path>
                                <path d="M6.6848201,12.2960078 C6.61533735,12.2960078 6.59796666,12.2161636 6.59796666,12.1762415 L6.37793793,6.58714703 L6.41846954,6.57574071 L6.62691781,12.1762415 C6.62691781,12.1762415 6.62691781,12.2617888 6.6848201,12.2617888 C6.73693217,12.2617888 6.73693217,12.1762415 6.73693217,12.1762415 L6.95117067,6.57574071 L6.77746378,12.1762415 C6.77746378,12.2161636 6.74851263,12.2960078 6.6848201,12.2960078" id="Fill-6" fill="#7F4433"></path>
                                <polygon id="Fill-8" fill="#7F4433" points="6.54238045 6.57859229 6.6871362 10.4225205 6.82031148 6.57859229"></polygon>
                                <path d="M6.14922386,8.38934483 C5.824971,9.09653638 6.09132157,9.66685214 5.77864917,10.2827932 C5.44860608,10.893031 5.65126411,11.400612 5.63389343,11.6857699 C5.61073251,11.9652246 5.37912332,12.0450689 5.43123539,12.1135067 C5.49492792,12.1762415 5.73811756,12.050772 5.83076123,11.6686605 C5.92919514,11.2979552 5.70337618,11.0812352 6.08553134,10.3284184 C6.47926695,9.57560161 6.17238478,9.23341216 6.5661204,8.56043956 L6.14922386,8.38934483 Z" id="Fill-10" fill="#E7B65B"></path>
                                <path d="M5.49608596,12.1431632 L5.41502275,12.1203505 C5.3860716,12.0804284 5.41502275,12.0405063 5.46134458,11.9948811 C5.51924688,11.9321463 5.60610032,11.8408958 5.60610032,11.6812074 C5.61768078,11.6070664 5.60610032,11.5158158 5.59451986,11.4074558 C5.55977849,11.122298 5.51924688,10.7287801 5.76243652,10.2725275 C5.91877272,9.97026012 5.92456295,9.67939908 5.94193364,9.36572541 C5.94772387,9.0577549 5.96509456,8.73837808 6.13301122,8.38478231 L6.16196237,8.39618862 C5.99983594,8.74408124 5.98246525,9.06345806 5.97667502,9.37142857 C5.96509456,9.67939908 5.94772387,9.98166643 5.7971779,10.2896369 C5.55398826,10.7344832 5.60610032,11.122298 5.62926124,11.4074558 C5.6408417,11.5158158 5.64663193,11.6070664 5.64663193,11.6869106 C5.62926124,11.8523021 5.5424078,11.9492558 5.4845055,12.0176937 C5.44397389,12.063319 5.43239344,12.0804284 5.44397389,12.0975379 C5.58872964,12.0804284 5.75085606,11.9492558 5.82033882,11.6640979 C5.84928997,11.5443316 5.84928997,11.4359716 5.83770951,11.3162053 C5.82612905,11.0823759 5.82033882,10.8200306 6.07510892,10.3181527 C6.27197673,9.94744749 6.29513765,9.67939908 6.31250834,9.41705383 C6.32987903,9.14900542 6.35303995,8.89236333 6.54990775,8.55017388 C6.38199109,8.90376965 6.3646204,9.15470858 6.34145949,9.41705383 C6.32987903,9.67939908 6.30092788,9.9588538 6.1098503,10.3352622 C5.8550802,10.8314369 5.86666066,11.088079 5.87245089,11.3162053 C5.87824112,11.4359716 5.87824112,11.5443316 5.84928997,11.6755042 C5.77980721,11.9492558 5.62347101,12.1089442 5.50766642,12.1431632 L5.49608596,12.1431632 Z" id="Fill-12" fill="#7F4433"></path>
                                <path d="M6.24418363,8.56728335 C5.9836233,9.26877173 6.24997386,9.7307275 5.90835031,10.329559 C6.29050547,9.90182223 6.04152559,9.3543191 6.36577845,8.62431493 L6.24418363,8.56728335 Z" id="Fill-14" fill="#7F4433"></path>
                                <path d="M6.96506722,6.57859229 L6.75082872,0.995201002 C6.75082872,0.995201002 6.75082872,0.892544165 6.6871362,0.892544165 C6.61186321,0.892544165 6.61186321,0.995201002 6.61186321,0.995201002 L6.39762471,6.57859229 L6.96506722,6.57859229 Z" id="Fill-16" fill="#E7B65B"></path>
                                <path d="M6.95117067,6.5860064 L6.73114194,0.991208791 C6.73114194,0.991208791 6.73114194,0.905661427 6.6848201,0.905661427 C6.62691781,0.905661427 6.62691781,0.991208791 6.62691781,0.991208791 L6.41846954,6.5860064 L6.59796666,0.991208791 C6.59796666,0.94558353 6.61533735,0.865739324 6.6848201,0.865739324 C6.74851263,0.865739324 6.77746378,0.94558353 6.77746378,0.991208791 L6.99170227,6.58030324 L6.95117067,6.5860064 Z" id="Fill-18" fill="#7F4433"></path>
                                <polygon id="Fill-20" fill="#7F4433" points="6.82031148 6.57859229 6.6871362 2.74607039 6.54238045 6.57859229"></polygon>
                                <path d="M7.22099537,4.77525386 C7.54524823,4.07376548 7.2673172,3.50344971 7.58577983,2.88750869 C7.92161315,2.27156767 7.71316488,1.76398665 7.73053557,1.48453192 C7.75369649,1.2050772 7.99109591,1.12523299 7.93319361,1.0567951 C7.87529131,0.99406037 7.63210167,1.12523299 7.53366777,1.49593824 C7.43523386,1.87234664 7.66684305,2.08336347 7.27310743,2.84188343 C6.88516205,3.58899708 7.19783445,3.93118653 6.80409883,4.60415913 L7.22099537,4.77525386 Z" id="Fill-22" fill="#E7B65B"></path>
                                <path d="M7.23547094,4.78266796 L7.20651979,4.77126165 C7.36285599,4.42336904 7.37443645,4.10399221 7.39180714,3.7960217 C7.39759737,3.48234803 7.41496806,3.18578384 7.57709449,2.87781333 C7.80291344,2.43296703 7.76817207,2.05085547 7.73343069,1.75999444 C7.73343069,1.65163444 7.71606,1.55468076 7.72185023,1.48053971 C7.73343069,1.30944499 7.82028413,1.21249131 7.8723962,1.14975657 C7.92450827,1.09842815 7.9302985,1.08131868 7.92450827,1.06991237 C7.78554276,1.08131868 7.62341633,1.21819446 7.55393357,1.49764919 C7.51340196,1.62311865 7.52498242,1.73718181 7.53077265,1.8455418 C7.54235311,2.08507442 7.55393357,2.34171651 7.29337324,2.84359438 C7.09650543,3.22000278 7.07334451,3.48805119 7.05597382,3.75039644 C7.03860313,4.01844485 7.02123244,4.26938378 6.81857441,4.61157324 C6.98070084,4.25797747 7.00386176,4.01274169 7.02123244,3.74469328 C7.04439336,3.48234803 7.05597382,3.21429962 7.25863186,2.83218807 C7.51340196,2.34171651 7.50761173,2.07937126 7.49024104,1.8455418 C7.49024104,1.73718181 7.48445081,1.62311865 7.51340196,1.49194603 C7.58867495,1.18967868 7.75659161,1.04709974 7.86081574,1.02428711 L7.86660597,1.02428711 L7.94766918,1.04709974 C7.98241056,1.08131868 7.94766918,1.12694394 7.90713758,1.1725692 C7.85502551,1.22960078 7.75659161,1.32655446 7.75659161,1.48053971 C7.74501115,1.56038392 7.75659161,1.65163444 7.76817207,1.75999444 C7.79712321,2.05085547 7.84344505,2.43867019 7.60604564,2.8949228 C7.44391921,3.19719015 7.43233875,3.48805119 7.42075829,3.7960217 C7.41496806,4.10969537 7.39759737,4.42907219 7.23547094,4.78266796" id="Fill-24" fill="#7F4433"></path>
                                <path d="M7.12661462,4.59674503 C7.39296519,3.9009598 7.10924393,3.43330088 7.46244794,2.84017249 C7.08029279,3.26220615 7.32348243,3.81541244 6.99922957,4.53401029 L7.12661462,4.59674503 Z" id="Fill-26" fill="#7F4433"></path>
                                <path d="M6.6848201,6.3037001 L1.00460484,6.50901377 C1.00460484,6.50901377 0.900380707,6.50901377 0.900380707,6.57745166 C0.900380707,6.65729587 1.00460484,6.65729587 1.00460484,6.65729587 L6.6848201,6.86260954 L6.6848201,6.3037001 Z" id="Fill-28" fill="#E7B65B"></path>
                                <path d="M6.68945229,6.84835165 L1.00923702,6.66585061 C0.968705416,6.66585061 0.887642202,6.65444429 0.887642202,6.58030324 C0.887642202,6.51756851 0.968705416,6.49475588 1.00923702,6.49475588 L6.68366206,6.2894422 L6.68945229,6.31795799 L1.00923702,6.52897482 C1.00923702,6.52897482 0.91659335,6.52897482 0.91659335,6.58030324 C0.91659335,6.63733482 1.00923702,6.63733482 1.00923702,6.63733482 L6.68945229,6.84835165 Z" id="Fill-30" fill="#7F4433"></path>
                                <polygon id="Fill-32" fill="#7F4433" points="6.6848201 6.44171651 2.78799556 6.57859229 6.6848201 6.72117123"></polygon>
                                <path d="M4.84758024,6.05447211 C4.135382,5.72939213 3.55056881,6.00884685 2.93101424,5.68947002 C2.29987921,5.3700932 1.790339,5.56970371 1.50082752,5.54689108 C1.21710627,5.52407845 1.13604305,5.29024899 1.0665603,5.35298373 C1.008658,5.4100153 1.13604305,5.64954792 1.51819821,5.7465016 C1.90035336,5.83775212 2.11459186,5.61532897 2.87890217,5.99744053 C3.64321248,6.39095841 3.99062626,6.0829879 4.67966358,6.47080262 L4.84758024,6.05447211 Z" id="Fill-34" fill="#E7B65B"></path>
                                <path d="M4.68545381,6.45027125 C4.32645958,6.29058283 4.06589924,6.27347336 3.80533891,6.25066073 C3.53319812,6.2278481 3.2552671,6.21073863 2.87311194,6.01683127 C2.37515219,5.76589234 2.10880163,5.77159549 1.87719244,5.78300181 C1.75559762,5.79440812 1.64558326,5.79440812 1.51819821,5.76018918 C1.22868673,5.69175129 1.0665603,5.53776603 1.04339938,5.42370288 L1.03760915,5.41229656 L1.06077007,5.33815552 C1.11288213,5.29823341 1.14762351,5.33815552 1.19394535,5.37807762 C1.24605742,5.43510919 1.34449132,5.52065656 1.50661775,5.53206287 C1.5761005,5.53206287 1.68032464,5.52065656 1.77875854,5.5149534 C2.07406025,5.48073446 2.47937633,5.43510919 2.9425947,5.66893866 C3.2552671,5.82862707 3.54477858,5.84573654 3.85745098,5.8514397 C4.17591361,5.86284601 4.48858601,5.87425233 4.85337047,6.0396439 L4.84758024,6.07386285 C4.48279578,5.90847128 4.17012338,5.89706496 3.85745098,5.88565865 C3.53319812,5.87425233 3.23789641,5.86854917 2.91943378,5.7031576 C2.4735861,5.4750313 2.07406025,5.5149534 1.78454877,5.54917235 C1.68032464,5.56057866 1.58189073,5.56628182 1.50082752,5.56057866 C1.33291086,5.54917235 1.22868673,5.46362498 1.17078443,5.40659341 C1.12446259,5.3666713 1.10130167,5.35526499 1.08393099,5.3666713 C1.10130167,5.50354709 1.22868673,5.65753234 1.52398844,5.72597023 C1.64558326,5.75448602 1.75559762,5.75448602 1.87719244,5.74878286 C2.10880163,5.74307971 2.38094242,5.72597023 2.8846924,5.98261232 C3.26684756,6.17651968 3.54477858,6.19933231 3.80533891,6.21644179 C4.0774797,6.23925442 4.33804004,6.25636389 4.68545381,6.45027125" id="Fill-36" fill="#7F4433"></path>
                                <path d="M4.66808312,6.14001947 C3.95588488,5.8947837 3.49266651,6.15712895 2.87890217,5.82064265 C3.31316939,6.19705105 3.87482167,5.95181527 4.6043906,6.27689526 L4.66808312,6.14001947 Z" id="Fill-38" fill="#7F4433"></path>
                                <path d="M6.6848201,6.86317986 L12.3592451,6.65216303 C12.3592451,6.65216303 12.4634693,6.65216303 12.4634693,6.57802198 C12.4634693,6.50958409 12.3592451,6.50958409 12.3592451,6.50958409 L6.6848201,6.30427041 L6.6848201,6.86317986 Z" id="Fill-40" fill="#E7B65B"></path>
                                <path d="M6.68945229,6.88371123 L6.68366206,6.84949228 L12.3580871,6.63847545 C12.3580871,6.63847545 12.4507308,6.63847545 12.4507308,6.58144387 C12.4507308,6.53011545 12.3580871,6.53011545 12.3580871,6.53011545 L6.68366206,6.31909862 L12.3580871,6.49589651 C12.3986187,6.49589651 12.4796819,6.51300598 12.4796819,6.58144387 C12.4796819,6.65558492 12.3986187,6.66699124 12.3580871,6.66699124 L6.68945229,6.88371123 Z" id="Fill-42" fill="#7F4433"></path>
                                <polygon id="Fill-44" fill="#7F4433" points="6.6848201 6.72288218 10.5816446 6.58030324 6.6848201 6.44342746"></polygon>
                                <path d="M8.51569071,7.11012658 C9.23367918,7.43520657 9.81849238,7.15575184 10.4438372,7.48083183 C11.0633917,7.80020865 11.572932,7.60059814 11.8624434,7.62341077 C12.1461647,7.64052024 12.2272279,7.8743497 12.2967107,7.81161497 C12.3604032,7.75458339 12.2272279,7.51505077 11.8450727,7.41809709 C11.4687078,7.32684657 11.2428889,7.54926972 10.490159,7.16715816 C9.72005847,6.77934344 9.3726447,7.08731395 8.69518783,6.69949923 L8.51569071,7.11012658 Z" id="Fill-46" fill="#E7B65B"></path>
                                <path d="M12.2712336,7.84070107 C12.2422825,7.84070107 12.2075411,7.81788844 12.17859,7.78937265 C12.1148974,7.73234108 12.0222538,7.65249687 11.8601273,7.64109056 C11.7848544,7.6353874 11.6922107,7.64109056 11.5821963,7.65820003 C11.2868946,7.68671582 10.893159,7.72663792 10.4357309,7.49280846 C10.1172682,7.33312004 9.82775674,7.32171373 9.50929411,7.31030741 C9.19083149,7.30460426 8.86657863,7.28749478 8.50758439,7.12210321 L8.52495508,7.09358743 C8.87815909,7.25327584 9.19083149,7.26468215 9.50929411,7.27608847 C9.82775674,7.28749478 10.1288487,7.30460426 10.4531015,7.46429267 C10.8989492,7.69812213 11.2926848,7.65249687 11.5764061,7.61827792 C11.6922107,7.61257477 11.7848544,7.59546529 11.8601273,7.60687161 C12.0338342,7.61827792 12.1322681,7.70382529 12.1959607,7.76085686 C12.253863,7.80648213 12.2712336,7.80648213 12.2770239,7.80077897 C12.2712336,7.66390319 12.1322681,7.50991793 11.8427567,7.44148004 C11.7153716,7.40726109 11.6111475,7.41296425 11.4953429,7.41296425 C11.2521532,7.43007372 10.9915929,7.44148004 10.4820527,7.18483795 C10.0998975,6.99093059 9.82775674,6.97382112 9.56719641,6.95100849 C9.28926539,6.92819585 9.03449529,6.91108638 8.68708151,6.71147587 C9.04028552,6.87686744 9.28926539,6.89397691 9.56719641,6.91678954 C9.82775674,6.93389901 10.1056878,6.95671164 10.4994234,7.15632216 C10.9915929,7.40726109 11.2521532,7.39015162 11.4953429,7.37874531 C11.6111475,7.37304215 11.7211618,7.37304215 11.8543371,7.40726109 C12.1554291,7.48140214 12.3001848,7.64679371 12.3233457,7.74374739 L12.3233457,7.75515371 L12.3001848,7.8235916 C12.2943946,7.84070107 12.2886043,7.84070107 12.2712336,7.84070107" id="Fill-48" fill="#7F4433"></path>
                                <path d="M8.69460881,7.02001669 C9.40680705,7.27095563 9.88160588,7.01431353 10.48958,7.34509668 C10.0553128,6.97439143 9.49366049,7.21962721 8.75830133,6.89454722 L8.69460881,7.02001669 Z" id="Fill-50" fill="#7F4433"></path>
                                <path d="M6.48100402,6.38525525 L2.61892086,10.4915287 C2.61892086,10.4915287 2.54364787,10.5599666 2.59575994,10.611295 C2.64208178,10.6569203 2.71735476,10.5827792 2.71735476,10.5827792 L6.88052986,6.77877313 L6.48100402,6.38525525 Z" id="Fill-52" fill="#E7B65B"></path>
                                <path d="M2.63339643,10.6472249 C2.53496253,10.578787 2.58128437,10.4989428 2.60444529,10.4761302 L6.46652845,6.37555988 L6.49547959,6.39837251 L2.63339643,10.4989428 C2.6276062,10.4989428 2.56970391,10.5616776 2.60444529,10.5958965 C2.63918666,10.6415218 2.71445965,10.5730839 2.71445965,10.5730839 L6.87184452,6.76907776 L2.73183034,10.6015997 C2.73183034,10.6015997 2.6855085,10.6472249 2.63339643,10.6472249" id="Fill-54" fill="#7F4433"></path>
                                <polygon id="Fill-56" fill="#7F4433" points="6.58059597 6.48334956 3.9286708 9.29500626 6.78904424 6.68296008"></polygon>
                                <path d="M5.00681156,7.4871053 C4.26566217,7.75515371 4.05142367,8.35968841 3.39133749,8.56500209 C2.71388063,8.77601892 2.49964213,9.27219363 2.2796134,9.46039783 C2.06537491,9.64289887 1.83955595,9.53453888 1.83376572,9.6257894 C1.83376572,9.70563361 2.09432606,9.78547781 2.4359496,9.5858673 C2.76599269,9.39195994 2.75441223,9.07828627 3.57662484,8.82164418 C4.39883745,8.55929893 4.41620814,8.10304632 5.18051845,7.9034358 L5.00681156,7.4871053 Z" id="Fill-58" fill="#E7B65B"></path>
                                <path d="M2.02368525,9.72901655 C1.9542025,9.72901655 1.90209043,9.71761024 1.86155882,9.69479761 L1.81523699,9.62065656 C1.81523699,9.56362498 1.87313928,9.56362498 1.93104158,9.56362498 C2.01789502,9.55221867 2.13948985,9.54651551 2.26108467,9.44385867 C2.32477719,9.39823341 2.38267949,9.32409236 2.44058179,9.24424816 C2.62586914,9.01612185 2.88063924,8.70244818 3.38438922,8.54846293 C3.71443231,8.44580609 3.93446103,8.24619558 4.16027999,8.0408819 C4.39188917,7.82416191 4.63507882,7.60744193 4.99986328,7.4762693 L5.01144374,7.50478509 C4.6524495,7.63595771 4.41505009,7.8526777 4.1834409,8.06369453 C3.95183172,8.27471136 3.73759322,8.48002504 3.39017945,8.57697872 C2.90380016,8.73096397 2.64903005,9.03893448 2.46953294,9.26135763 C2.40005018,9.34690499 2.34793811,9.42104604 2.29003582,9.4666713 C2.15686054,9.58073446 2.02368525,9.59214077 1.93104158,9.59784393 C1.87892951,9.59784393 1.84997837,9.59784393 1.84997837,9.62065656 C1.96578296,9.71190708 2.17423122,9.7233134 2.41742087,9.5750313 C2.53322546,9.50659341 2.60849845,9.4267492 2.68956166,9.34120184 C2.84010763,9.17581027 3.03118521,8.97619975 3.57546679,8.80510502 C3.97499264,8.6739324 4.1834409,8.49713451 4.38030871,8.33174294 C4.58875698,8.15494505 4.78562479,7.98385033 5.1793604,7.88119349 C4.8087857,8.01806927 4.61770813,8.17775769 4.40925986,8.35455557 C4.20660182,8.5256503 3.99815356,8.70244818 3.58125702,8.83362081 C3.0485559,9.00471554 2.86905878,9.1986229 2.71272258,9.36401447 C2.63165937,9.44956183 2.55638638,9.53510919 2.44058179,9.59784393 C2.27845536,9.69479761 2.13948985,9.72901655 2.02368525,9.72901655" id="Fill-60" fill="#7F4433"></path>
                                <path d="M4.93906587,7.67759076 C4.25581878,7.99696759 4.11106303,8.51025177 3.45097686,8.69275282 C4.02420959,8.65283071 4.23844809,8.09392127 4.99117794,7.81446655 L4.93906587,7.67759076 Z" id="Fill-62" fill="#7F4433"></path>
                                <path d="M6.88284596,6.77934344 L10.7449291,2.68447628 C10.7449291,2.68447628 10.8202021,2.60463208 10.7738803,2.55900682 C10.7217682,2.5076784 10.6464952,2.57611629 10.6464952,2.57611629 L6.48332011,6.38582557 L6.88284596,6.77934344 Z" id="Fill-64" fill="#E7B65B"></path>
                                <path d="M6.89558446,6.79189039 L6.87242354,6.77478092 L10.7402969,2.66850744 C10.7402969,2.66850744 10.792409,2.60577271 10.7576676,2.57155376 C10.7229262,2.53733482 10.6592337,2.58866324 10.6592337,2.58866324 L6.49026839,6.39837251 L10.6360728,2.56585061 C10.6592337,2.53733482 10.7402969,2.49741271 10.7808285,2.54303797 C10.8271504,2.59436639 10.7808285,2.66280428 10.7576676,2.69132007 L6.89558446,6.79189039 Z" id="Fill-66" fill="#7F4433"></path>
                                <polygon id="Fill-68" fill="#7F4433" points="6.78730717 6.68067881 9.43923234 3.86902212 6.5788589 6.4810683"></polygon>
                                <path d="M8.36282865,5.67977466 C9.09239758,5.40602309 9.30663608,4.80719154 9.98409294,4.60187787 C10.6499694,4.39086104 10.8757883,3.89468633 11.0900268,3.70648213 C11.3042653,3.52398108 11.5300843,3.63234108 11.5300843,3.54679371 C11.5416647,3.46124635 11.2811044,3.38140214 10.9394808,3.58101266 C10.5978573,3.78062317 10.6036475,4.08859368 9.79301537,4.35093893 C8.97080276,4.60758103 8.94764184,5.06953679 8.18912176,5.26914731 L8.36282865,5.67977466 Z" id="Fill-70" fill="#E7B65B"></path>
                                <path d="M8.36282865,5.6957435 L8.35703842,5.66722771 C8.72182289,5.53035193 8.94764184,5.31363194 9.17925103,5.10261511 C9.41086021,4.89159828 9.63088894,4.6862846 9.98409294,4.58362776 C10.4588918,4.43534567 10.7136619,4.13307831 10.893159,3.90495201 C10.9626418,3.81940465 11.020544,3.7452636 11.0842366,3.69393518 C11.2058314,3.58557518 11.3447969,3.57987203 11.4316504,3.57416887 C11.4953429,3.56846571 11.5127136,3.56276255 11.5127136,3.54565308 C11.4084894,3.46010572 11.2000412,3.4486994 10.9452711,3.5969815 C10.8352567,3.65971623 10.7599837,3.73956044 10.6847107,3.8251078 C10.5225843,3.99620253 10.3315067,4.19010989 9.79301537,4.37261093 C9.38769929,4.49237724 9.17925103,4.66917513 8.97659299,4.84026986 C8.76814472,5.01706774 8.57706715,5.18245931 8.18912176,5.28511615 C8.55969646,5.15394352 8.75656426,4.98855195 8.95343207,4.81175407 C9.15609011,4.64065934 9.3703286,4.46956461 9.79301537,4.33268883 C10.3257165,4.1615941 10.4994234,3.96768674 10.6499694,3.80229517 C10.7368228,3.71674781 10.8120958,3.6369036 10.9279004,3.56276255 C11.1768802,3.42018361 11.396909,3.42018361 11.5011331,3.47151203 L11.5532452,3.55135624 C11.5416647,3.5969815 11.4953429,3.60268466 11.4316504,3.60838781 C11.3505871,3.61409097 11.2232021,3.61979413 11.1073975,3.72245097 C11.043705,3.77377939 10.9915929,3.84221728 10.9221101,3.92776464 C10.7368228,4.15589094 10.4820527,4.46956461 9.98988317,4.61784671 C9.64825963,4.72050355 9.43402113,4.92011406 9.20241194,5.13113089 C8.97080276,5.34214773 8.73340334,5.55886771 8.36282865,5.6957435" id="Fill-72" fill="#7F4433"></path>
                                <path d="M8.42420508,5.48928919 C9.10745218,5.16991237 9.25220792,4.65662818 9.91808433,4.47412714 C9.35064182,4.51404924 9.12482287,5.07295869 8.37788325,5.35241341 L8.42420508,5.48928919 Z" id="Fill-74" fill="#7F4433"></path>
                                <path d="M6.88284596,6.38525525 L2.71967086,2.57554597 C2.71967086,2.57554597 2.64439787,2.50710808 2.59807603,2.5584365 C2.54596397,2.60406176 2.61544672,2.68390597 2.61544672,2.68390597 L6.48332011,6.77877313 L6.88284596,6.38525525 Z" id="Fill-76" fill="#E7B65B"></path>
                                <path d="M6.49721666,6.77478092 L2.60618235,2.69132007 C2.58302144,2.66280428 2.53090937,2.59436639 2.58881167,2.54303797 C2.6351335,2.49741271 2.70461626,2.53733482 2.73356741,2.56585061 L6.89674251,6.36985673 L6.87358159,6.39837251 L2.71040649,2.59436639 C2.71040649,2.59436639 2.64092373,2.53733482 2.60618235,2.56585061 C2.57144098,2.60577271 2.62355304,2.66850744 2.6351335,2.66850744 L6.49721666,6.77478092 Z" id="Fill-78" fill="#7F4433"></path>
                                <polygon id="Fill-80" fill="#7F4433" points="6.78730717 6.48334956 3.93272396 3.87130338 6.5788589 6.68296008"></polygon>
                                <path d="M5.76127848,4.93380164 C5.49492792,4.20950063 4.8869538,3.99848379 4.66692508,3.33691751 C4.46426704,2.66964807 3.96051706,2.45863124 3.76943949,2.24191125 C3.58415214,2.03089442 3.68837627,1.80847128 3.5957326,1.80276812 C3.50887915,1.79706496 3.43360617,2.06511337 3.62468375,2.39019335 C3.83313201,2.72667965 4.15159464,2.71527333 4.4179452,3.52512171 C4.67850554,4.32926694 5.13593368,4.35207957 5.35017217,5.10489637 L5.76127848,4.93380164 Z" id="Fill-82" fill="#E7B65B"></path>
                                <path d="M5.36464775,5.09691195 C5.21989201,4.73190986 5.06355581,4.54370566 4.88405869,4.33839199 C4.70456157,4.13878147 4.53085468,3.92776464 4.3976794,3.52854361 C4.21818228,2.99814995 4.03289493,2.82705522 3.85918805,2.66736681 C3.76654437,2.59322576 3.67969093,2.51908471 3.6159984,2.3993184 C3.4596622,2.13697315 3.47124266,1.92025316 3.52914496,1.84040896 L3.60441794,1.78337738 C3.65073978,1.78908054 3.66232024,1.84611212 3.66232024,1.90314369 C3.66811047,1.9829879 3.67969093,2.10845737 3.77812483,2.22822368 C3.82444667,2.28525525 3.90550988,2.34798998 3.99236333,2.41642788 C4.21818228,2.59322576 4.53085468,2.83846154 4.68719088,3.32893309 C4.79720525,3.65971623 4.99407305,3.87073306 5.20831155,4.09885937 C5.41675982,4.32698567 5.64257877,4.56081513 5.78733451,4.92581722 L5.7468029,4.93722354 C5.61941785,4.58362776 5.39938913,4.34409515 5.1793604,4.121672 C4.9651219,3.89354569 4.76246387,3.67682571 4.6524495,3.33463625 C4.50190353,2.86127417 4.19502136,2.62174155 3.96920241,2.43924051 C3.88234896,2.37080262 3.80707598,2.31377104 3.75496391,2.25673946 C3.64494955,2.11986368 3.63336909,1.99439421 3.62757886,1.90884685 C3.6159984,1.84611212 3.6159984,1.82329949 3.59862771,1.82329949 C3.51177427,1.92595632 3.50019381,2.13127 3.64494955,2.38220893 C3.71443231,2.49627208 3.79549552,2.56470997 3.88234896,2.64455418 C4.05026562,2.80424259 4.25292366,2.98104048 4.43242078,3.51713729 C4.5540156,3.91635833 4.73930295,4.121672 4.90721961,4.32128251 C5.08671673,4.52089303 5.25463339,4.71480039 5.36464775,5.09691195" id="Fill-84" fill="#7F4433"></path>
                                <path d="M5.57830722,4.86878564 C5.24826413,4.19581305 4.72135324,4.05323411 4.53606589,3.39737098 C4.5765975,3.96198359 5.15562046,4.17870357 5.43355148,4.91441091 L5.57830722,4.86878564 Z" id="Fill-86" fill="#7F4433"></path>
                                <path d="M6.48100402,6.77934344 L10.6441791,10.5833496 C10.6441791,10.5833496 10.7194521,10.6574906 10.7715642,10.6118653 C10.8236762,10.5605369 10.7484033,10.4863959 10.7484033,10.4863959 L6.88052986,6.38582557 L6.48100402,6.77934344 Z" id="Fill-88" fill="#E7B65B"></path>
                                <path d="M10.7292955,10.6249826 C10.665603,10.6249826 10.6366518,10.5964668 10.6366518,10.5964668 L6.46768649,6.79816386 L6.49084741,6.76964807 L10.6598127,10.5736542 C10.6598127,10.5736542 10.7235053,10.6420921 10.7582466,10.5964668 C10.792988,10.5622479 10.7350857,10.49381 10.7350857,10.49381 L6.87300257,6.39894283 L10.7582466,10.4767005 C10.792988,10.5109195 10.8277294,10.5736542 10.7814076,10.6192795 C10.7640369,10.6249826 10.7582466,10.6249826 10.7292955,10.6249826" id="Fill-90" fill="#7F4433"></path>
                                <polygon id="Fill-92" fill="#7F4433" points="6.58059597 6.68067881 9.44096941 9.292725 6.78904424 6.4810683"></polygon>
                                <path d="M7.59678127,8.23821116 C7.87471229,8.95680901 8.48847663,9.16782585 8.6969249,9.83509528 C8.90537316,10.4966616 9.40912314,10.7076784 9.59441049,10.9243984 C9.7912783,11.1354152 9.67547371,11.3578384 9.76811738,11.3635415 C9.84918059,11.3635415 9.93603404,11.1068994 9.733376,10.7761163 C9.53071796,10.4453331 9.21804556,10.4453331 8.95748523,9.64689108 C8.68534444,8.8370427 8.22212607,8.81423007 8.02525826,8.06711643 L7.59678127,8.23821116 Z" id="Fill-94" fill="#E7B65B"></path>
                                <path d="M9.76580129,11.3772291 C9.71368922,11.3772291 9.71368922,11.3201975 9.70210876,11.2574628 C9.69631853,11.1776186 9.68473807,11.0578523 9.58630417,10.938086 C9.5341921,10.8753512 9.46470935,10.8183197 9.3778559,10.7555849 C9.14624672,10.578787 8.82778409,10.3278481 8.67723812,9.83737655 C8.57880421,9.50659341 8.37035595,9.28987342 8.15611745,9.06174711 C7.94766918,8.83932397 7.72185023,8.60549451 7.57709449,8.24619558 L7.61183587,8.2290861 C7.75659161,8.58838503 7.96503987,8.81651134 8.1850686,9.03893448 C8.3993071,9.2784671 8.61354559,9.48948393 8.7119795,9.82597023 C8.86252547,10.3050355 9.1809881,10.5502712 9.40101682,10.7327723 C9.48787027,10.795507 9.56314325,10.8525386 9.61525532,10.9152733 C9.72526968,11.0407428 9.73105991,11.1719154 9.73105991,11.2574628 C9.74264037,11.3259007 9.7484306,11.3430102 9.76580129,11.3430102 C9.85844496,11.2346502 9.87581565,11.0350396 9.71947945,10.7841007 C9.64999669,10.6757407 9.57472371,10.6015997 9.48787027,10.5160523 C9.30837315,10.362067 9.11729557,10.1852692 8.93779845,9.64917235 C8.8104134,9.25565447 8.63091628,9.0503408 8.45720939,8.84502712 C8.27771227,8.64541661 8.10979561,8.45150925 8.01136171,8.06939769 C8.13874676,8.43439978 8.30087319,8.62260398 8.48616054,8.82791765 C8.6540772,9.02182501 8.83936455,9.23284184 8.97253983,9.64346919 C9.14045649,10.1681597 9.34311452,10.3392544 9.51103118,10.4932397 C9.59788463,10.578787 9.68473807,10.6472249 9.7484306,10.7612881 C9.89897657,11.012227 9.89897657,11.228947 9.84107427,11.3316038 L9.76580129,11.3772291 Z" id="Fill-96" fill="#7F4433"></path>
                                <path d="M7.79307005,8.29752399 C8.11153268,8.97049659 8.63844358,9.11307553 8.82373093,9.76893866 C8.78319932,9.20432605 8.21575682,8.98760606 7.93203556,8.25189873 L7.79307005,8.29752399 Z" id="Fill-98" fill="#7F4433"></path>
                                <path d="M6.41904856,6.47479483 L4.44458026,11.7216998 C4.44458026,11.7216998 4.40404865,11.8186535 4.46774118,11.8414661 C4.53722393,11.8699819 4.57775554,11.7787314 4.57775554,11.7787314 L6.94016923,6.69151481 L6.41904856,6.47479483 Z" id="Fill-100" fill="#E7B65B"></path>
                                <path d="M4.51522106,11.8625678 C4.39941647,11.834052 4.41678716,11.7542078 4.43415785,11.7142857 L6.40283592,6.46738072 L6.43178707,6.48449019 L4.463109,11.725692 C4.463109,11.725692 4.43415785,11.8112394 4.47468945,11.8283489 L4.5615429,11.7656141 L6.92974682,6.68410071 L4.59049405,11.7827236 C4.59049405,11.7827236 4.56733313,11.8397552 4.51522106,11.8625678" id="Fill-102" fill="#7F4433"></path>
                                <polygon id="Fill-104" fill="#7F4433" points="6.55917212 6.53011545 5.19267793 10.1288079 6.81394222 6.63847545"></polygon>
                                <path d="M5.48740062,8.05342885 C4.91416788,8.57811935 4.94890926,9.21116984 4.40462768,9.65601614 C3.86613632,10.1008624 3.86034609,10.6483656 3.72717081,10.8993045 C3.59399553,11.1502434 3.35080588,11.133134 3.37975703,11.2186813 C3.41449841,11.2985255 3.6866392,11.2700097 3.92403862,10.9620392 C4.14985757,10.6540687 4.03405298,10.3632077 4.6825587,9.81570455 C5.33685465,9.27390458 5.18051845,8.8404646 5.80586325,8.36710252 L5.48740062,8.05342885 Z" id="Fill-106" fill="#E7B65B"></path>
                                <path d="M3.47413778,11.2734316 C3.46255732,11.2734316 3.45097686,11.2734316 3.44518663,11.2734316 L3.36412341,11.2221032 C3.34096249,11.176478 3.39886479,11.1479622 3.45097686,11.1251495 C3.52624984,11.0852274 3.64205443,11.033899 3.71153719,10.8913201 C3.7520688,10.8228822 3.77522972,10.7316317 3.80418086,10.6289748 C3.88524408,10.3495201 4.00104867,9.9731117 4.40057452,9.64803172 C4.66113485,9.42560857 4.7885199,9.15756016 4.92169518,8.87810544 C5.04908023,8.59294756 5.18225552,8.30778968 5.471767,8.03974127 L5.49492792,8.0625539 C5.21699689,8.32489915 5.07803138,8.61005703 4.9448561,8.8838086 C4.81747105,9.17466963 4.690086,9.44271804 4.4179452,9.66514119 C4.02999982,9.99022117 3.91998546,10.3609264 3.83313201,10.6403811 C3.80418086,10.7487411 3.77522972,10.8399917 3.74627857,10.9084295 C3.67100558,11.0567116 3.54362053,11.1194464 3.46255732,11.1536653 C3.41044525,11.1821811 3.39307456,11.1935874 3.39886479,11.2106969 C3.5378303,11.250619 3.72890788,11.1878843 3.90261477,10.9483516 C3.98367798,10.8456948 4.02420959,10.7487411 4.05895097,10.6403811 C4.14580441,10.417958 4.23844809,10.1727222 4.66692508,9.80772013 C4.99117794,9.53967172 5.11277276,9.29443594 5.24015781,9.06060648 C5.36754286,8.82107386 5.47755723,8.59294756 5.79601986,8.35341494 C5.50650837,8.61576019 5.39649401,8.83818334 5.27489919,9.0720128 C5.14751414,9.31154542 5.02012909,9.55678119 4.690086,9.83053276 C4.26739923,10.1898317 4.17475556,10.4350675 4.09369235,10.6517875 C4.05316074,10.7601474 4.01262913,10.8628043 3.93735615,10.9711643 C3.77522972,11.1821811 3.58415214,11.2734316 3.47413778,11.2734316" id="Fill-108" fill="#7F4433"></path>
                                <path d="M5.50477131,8.25189873 C4.9952311,8.79940186 5.06471385,9.32979552 4.51464204,9.75182918 C5.02997248,9.50089025 5.01260179,8.89635554 5.59741498,8.36025873 L5.50477131,8.25189873 Z" id="Fill-110" fill="#7F4433"></path>
                                <path d="M6.9419063,6.6909445 L8.92795506,1.4440395 C8.92795506,1.4440395 8.96269644,1.34708583 8.89321368,1.3242732 C8.82952116,1.29575741 8.79477978,1.39271109 8.79477978,1.39271109 L6.42078563,6.47422451 L6.9419063,6.6909445 Z" id="Fill-112" fill="#E7B65B"></path>
                                <path d="M6.96506722,6.69322576 L6.93032584,6.68181945 L8.90479414,1.43491445 C8.90479414,1.43491445 8.93953552,1.3607734 8.89321368,1.33796077 L8.81215047,1.40069551 L6.43236609,6.48220893 L8.77161886,1.38358603 C8.77161886,1.38358603 8.80057001,1.32655446 8.84689185,1.30944499 L8.94532575,1.34366393 C8.96269644,1.38928919 8.93953552,1.44632077 8.93953552,1.45202393 L6.96506722,6.69322576 Z" id="Fill-114" fill="#7F4433"></path>
                                <polygon id="Fill-116" fill="#7F4433" points="6.81220516 6.6367645 8.17869935 3.03807205 6.55743505 6.52840451"></polygon>
                                <path d="M7.88397666,5.11573237 C8.45720939,4.59104187 8.42246801,3.95228822 8.9667496,3.51314508 C9.50524095,3.06829879 9.51103118,2.52079566 9.63262601,2.26985673 C9.77738175,2.01321463 10.0205714,2.03032411 9.99162024,1.9504799 C9.95108864,1.86493254 9.68473807,1.89344832 9.44733866,2.20141883 C9.20993924,2.5150925 9.34311452,2.80025038 8.68302835,3.34775351 C8.0287324,3.89525664 8.1850686,4.32869662 7.5597238,4.8020587 L7.88397666,5.11573237 Z" id="Fill-118" fill="#E7B65B"></path>
                                <path d="M7.892662,5.13056058 L7.86950108,5.10774795 C8.15322234,4.8454027 8.28639762,4.56024482 8.41378267,4.27508694 C8.54695795,3.98992906 8.66855277,3.72188065 8.9464838,3.4994575 C9.34021941,3.18008068 9.45023377,2.79796912 9.53129699,2.52421755 C9.56603837,2.42156072 9.58919928,2.3303102 9.62394066,2.2618723 C9.69921365,2.10788705 9.8265987,2.05085547 9.89608145,2.01663653 C9.94819352,1.98241758 9.9829349,1.97101127 9.97135444,1.95390179 C9.8265987,1.91397969 9.62973089,1.98241758 9.46760446,2.21624704 C9.38075102,2.31320072 9.35179987,2.42156072 9.2996878,2.52421755 C9.22441482,2.7466407 9.12598091,2.99757964 8.69750392,3.36258172 C8.37904129,3.63063013 8.24586601,3.87016275 8.13006142,4.10399221 C8.0084666,4.34352483 7.892662,4.57165113 7.57419937,4.81118375 C7.85792063,4.5488385 7.97372522,4.32641536 8.10111027,4.0925859 C8.21691486,3.85305328 8.34429991,3.6078175 8.66855277,3.33976909 C9.10282,2.98047016 9.18388321,2.73523439 9.27073665,2.5185144 C9.31705849,2.40445124 9.3575901,2.30179441 9.43286308,2.19343441 C9.60656997,1.96530811 9.80343778,1.87405759 9.9250326,1.89687022 L10.0003056,1.94819864 C10.0176763,1.9938239 9.97135444,2.01663653 9.91924237,2.04515232 C9.84396939,2.07937126 9.72237457,2.13069968 9.65868204,2.27327862 C9.61815043,2.34171651 9.59498951,2.43296703 9.56603837,2.53562387 C9.49076538,2.81507859 9.36917056,3.19719015 8.97543494,3.52227013 C8.70329415,3.74469328 8.58748956,4.01274169 8.44852405,4.29219641 C8.31534877,4.57165113 8.18217348,4.86251217 7.892662,5.13056058" id="Fill-120" fill="#7F4433"></path>
                                <path d="M7.86718499,4.91726248 C8.3767252,4.36975935 8.30724244,3.8393657 8.85731426,3.41733204 C8.33619359,3.66827097 8.35356428,4.26710252 7.76875109,4.81460565 L7.86718499,4.91726248 Z" id="Fill-122" fill="#7F4433"></path>
                                <path d="M6.78730717,6.32423146 L1.46029591,4.37945472 C1.46029591,4.37945472 1.36765224,4.33953262 1.33870109,4.40226735 C1.31554017,4.47070524 1.4197643,4.51062735 1.4197643,4.51062735 L6.5788589,6.83751565 L6.78730717,6.32423146 Z" id="Fill-124" fill="#E7B65B"></path>
                                <path d="M6.58059597,6.82896091 L1.40992091,4.52488524 C1.36938931,4.50207261 1.29990655,4.46215051 1.32306747,4.39371262 C1.35780885,4.33668104 1.43887206,4.3423842 1.46782321,4.36519683 L6.79483447,6.30997357 L6.78904424,6.33848936 L1.46203298,4.39371262 C1.45624275,4.39371262 1.37517954,4.35949367 1.35780885,4.40511893 C1.34043816,4.46215051 1.41571114,4.4906663 1.41571114,4.4906663 L6.58059597,6.82896091 Z" id="Fill-126" fill="#7F4433"></path>
                                <polygon id="Fill-128" fill="#7F4433" points="6.73403706 6.45597441 3.08040216 5.11002921 6.62402269 6.7126165"></polygon>
                                <path d="M5.19209891,5.40431214 C4.65939778,4.83399638 4.01668229,4.87391849 3.55925415,4.33782167 C3.11340647,3.80742802 2.56333466,3.7960217 2.30277432,3.67625539 C2.04800422,3.54508277 2.06537491,3.30555015 1.97852146,3.32836278 C1.89745825,3.35687856 1.91482894,3.63063013 2.2390818,3.86445959 C2.54596397,4.0925859 2.84126568,3.96711643 3.39712772,4.61157324 C3.95878,5.2617332 4.39304722,5.10204479 4.87942651,5.71228265 L5.19209891,5.40431214 Z" id="Fill-130" fill="#E7B65B"></path>
                                <path d="M4.88579576,5.70600918 C4.61365497,5.4208513 4.38783601,5.30678815 4.1504366,5.192725 C3.90724695,5.06725553 3.65826708,4.94748922 3.38033606,4.62240924 C3.02134182,4.20607873 2.77236194,4.11482821 2.55233322,4.034984 C2.44231886,3.9950619 2.33809472,3.9551398 2.22229013,3.87529559 C1.99068095,3.70420086 1.89803727,3.50459035 1.91540796,3.39052719 L1.96752003,3.31638615 C2.01384186,3.29927667 2.04858324,3.33919878 2.07174416,3.40193351 C2.11227577,3.47607456 2.16438783,3.58443455 2.30914357,3.6585756 C2.3728361,3.68709139 2.46547977,3.71560718 2.56391368,3.74412297 C2.84763493,3.82396717 3.24716077,3.93232717 3.57141363,4.3315482 C3.79723259,4.59389345 4.06937338,4.71365976 4.35309463,4.84483238 C4.64260611,4.97030185 4.93790783,5.10717763 5.21004862,5.39233551 L5.18109747,5.41514814 C4.91474691,5.13569342 4.62523543,5.0045208 4.3473044,4.87334817 C4.04042223,4.74217555 3.77407167,4.61670608 3.54246249,4.35436083 C3.21820963,3.96084295 2.83605447,3.85818612 2.55233322,3.77834191 C2.44810909,3.74982612 2.36125564,3.72131034 2.29177289,3.68709139 C2.14122692,3.61295034 2.07753439,3.49318403 2.04279301,3.41904298 C2.01384186,3.36201141 2.0022614,3.33919878 1.97910049,3.34490193 C1.93856888,3.48177772 2.00805163,3.67568507 2.25124128,3.8467798 C2.35546541,3.92092085 2.45389932,3.96084295 2.56391368,4.00076506 C2.78973263,4.08060926 3.04450274,4.17185979 3.41507743,4.59959661 C3.681428,4.91897343 3.93040787,5.03873974 4.16780728,5.15850605 C4.41678716,5.27827236 4.64260611,5.39803867 4.88579576,5.70600918" id="Fill-132" fill="#7F4433"></path>
                                <path d="M4.99407305,5.41799972 C4.43242078,4.92182501 3.89392942,4.98455974 3.46545243,4.44846293 C3.72022253,4.95604396 4.32819665,4.93323133 4.88405869,5.5149534 L4.99407305,5.41799972 Z" id="Fill-134" fill="#7F4433"></path>
                                <path d="M6.57654281,6.83979691 L11.9035541,8.78457365 C11.9035541,8.78457365 11.9904075,8.83019892 12.0251489,8.76176102 C12.0541,8.69332313 11.9556661,8.65910419 11.9556661,8.65910419 L6.78499108,6.32651273 L6.57654281,6.83979691 Z" id="Fill-136" fill="#E7B65B"></path>
                                <path d="M11.9626144,8.81765197 C11.9336633,8.81765197 11.9162926,8.81194881 11.8931317,8.8005425 L6.5661204,6.86146891 L6.57770086,6.82724997 L11.9105023,8.77202671 C11.9105023,8.77202671 11.9857753,8.8005425 12.0089362,8.75491723 C12.0320972,8.70929197 11.9452437,8.67507303 11.9452437,8.67507303 L6.78035889,6.33677841 L11.9626144,8.64085408 C12.003146,8.66366671 12.0726288,8.70929197 12.0436776,8.76632355 C12.0263069,8.80624565 11.9915656,8.81765197 11.9626144,8.81765197" id="Fill-138" fill="#7F4433"></path>
                                <polygon id="Fill-140" fill="#7F4433" points="6.62575976 6.71432744 10.2793947 8.05456948 6.73577412 6.45768535"></polygon>
                                <path d="M8.17117205,7.76370844 C8.7096634,8.32832105 9.35816912,8.2941021 9.8040168,8.83019892 C10.2556547,9.36059257 10.8057265,9.36629573 11.0604966,9.4917652 C11.321057,9.62293782 11.297896,9.86247044 11.3905397,9.83395465 C11.4716029,9.80543886 11.4426518,9.5316873 11.1241892,9.29785784 C10.8115168,9.07543469 10.5277955,9.20090416 9.97193346,8.55644735 C9.41028119,7.91199054 8.97022374,8.06027264 8.49542491,7.45003478 L8.17117205,7.76370844 Z" id="Fill-142" fill="#E7B65B"></path>
                                <path d="M11.3783802,9.85619697 C11.3378486,9.85619697 11.3146877,9.81057171 11.2915268,9.76494645 C11.2509952,9.6908054 11.1988831,9.57674225 11.0599176,9.50830435 C10.9904349,9.47408541 10.8977912,9.45127278 10.793567,9.41705383 C10.515636,9.34291278 10.1219004,9.22884963 9.79185732,8.83533176 C9.57761882,8.57298651 9.29389757,8.4532202 9.01017632,8.32204757 C8.72066484,8.19087495 8.42536313,8.05970232 8.1648028,7.7802476 L8.18217348,7.75173181 C8.44852405,8.03118653 8.73803553,8.16235916 9.02754701,8.29353178 C9.31705849,8.41900125 9.58919928,8.54447072 9.82080847,8.81251913 C10.1450613,9.20033384 10.5272165,9.30869384 10.8051475,9.38853804 C10.9151619,9.41705383 11.0020153,9.44556962 11.0714981,9.47408541 C11.222044,9.55392961 11.2857366,9.67369592 11.3204779,9.74783697 C11.3552193,9.81057171 11.3610095,9.82197802 11.3841705,9.81627486 C11.4247021,9.6908054 11.3610095,9.49119488 11.1178199,9.314397 C11.0135958,9.24025595 10.9151619,9.206037 10.793567,9.1661149 C10.5735383,9.08627069 10.3245584,8.99502017 9.94819352,8.56728335 C9.68184296,8.24790652 9.43286308,8.12814021 9.18967344,8.0083739 C8.95806425,7.88860759 8.72066484,7.77454444 8.48326543,7.46087077 C8.74961599,7.74602865 8.97543494,7.85438865 9.21862459,7.97985812 C9.456024,8.09392127 9.69921365,8.21939074 9.9829349,8.54447072 C10.3419291,8.96650438 10.590909,9.05205175 10.8109377,9.13189595 C10.9267423,9.17181806 11.0309665,9.206037 11.1351906,9.29158437 C11.3899607,9.47408541 11.4594435,9.68510224 11.4420728,9.78205592 L11.3957509,9.85049381 C11.3899607,9.85619697 11.3841705,9.85619697 11.3783802,9.85619697" id="Fill-144" fill="#7F4433"></path>
                                <path d="M8.37788325,7.74888023 C8.93374529,8.24505495 9.47223665,8.18232021 9.90071364,8.72412018 C9.6401533,8.21653916 9.03217919,8.22794547 8.48789761,7.65192655 L8.37788325,7.74888023 Z" id="Fill-146" fill="#7F4433"></path>
                                <path d="M6.57654281,6.32423146 L1.41744821,8.66252608 C1.41744821,8.66252608 1.31901431,8.69674503 1.336385,8.75947976 C1.37112638,8.82791765 1.46377005,8.78799555 1.46377005,8.78799555 L6.78499108,6.83751565 L6.57654281,6.32423146 Z" id="Fill-148" fill="#E7B65B"></path>
                                <path d="M1.40876287,8.81765197 C1.37402149,8.81765197 1.33928011,8.80624565 1.32190942,8.76632355 C1.29874851,8.70929197 1.36823126,8.65796356 1.40876287,8.64085408 L6.56785746,6.30826262 L6.57943792,6.33677841 L1.4145531,8.67507303 C1.4145531,8.67507303 1.33928011,8.70929197 1.3566508,8.75491723 C1.37402149,8.80624565 1.45508471,8.77202671 1.46087493,8.77202671 L6.78788619,6.82724997 L1.47245539,8.8005425 C1.45508471,8.81194881 1.43192379,8.81765197 1.40876287,8.81765197" id="Fill-150" fill="#7F4433"></path>
                                <polygon id="Fill-152" fill="#7F4433" points="6.62575976 6.45597441 3.076349 8.05285853 6.73577412 6.7126165"></polygon>
                                <path d="M4.78562479,6.78732786 C3.99815356,6.75881207 3.56967656,7.23217415 2.86326855,7.17514258 C2.16844099,7.11240785 1.76891515,7.48881625 1.50256459,7.58006677 C1.22463357,7.66561413 1.06250714,7.47740993 1.02197553,7.5629573 C0.975653692,7.63709834 1.20147265,7.81389623 1.5836278,7.75686465 C1.97157319,7.69983308 2.09316801,7.40897204 2.94433176,7.47170677 C3.79549552,7.54584782 3.99815356,7.12951732 4.78562479,7.23217415 L4.78562479,6.78732786 Z" id="Fill-154" fill="#E7B65B"></path>
                                <path d="M1.43887206,7.78423981 C1.20726288,7.78423981 1.06829737,7.7043956 1.02197553,7.63595771 L1.00460484,7.55041035 C1.02776576,7.50478509 1.0740876,7.52759772 1.13778012,7.54470719 C1.21884334,7.57322298 1.34043816,7.61314508 1.4851939,7.56181666 C1.56046688,7.53900403 1.64732033,7.49337877 1.739964,7.44205035 C2.00052434,7.30517457 2.34793811,7.11126721 2.86326855,7.15689247 C3.21068233,7.18540826 3.50019381,7.08275143 3.78970529,6.97439143 C4.085007,6.86603144 4.38030871,6.75196828 4.78562479,6.76907776 L4.78562479,6.80899986 C4.40925986,6.79189039 4.09079723,6.90025038 3.79549552,7.00290722 C3.50598404,7.11697037 3.22226279,7.21392405 2.86326855,7.18540826 C2.3653088,7.14548616 2.00631457,7.33369036 1.75154446,7.4762693 C1.65890079,7.52759772 1.57204734,7.56751982 1.50256459,7.59603561 C1.34043816,7.64166087 1.20726288,7.60744193 1.13198989,7.57892614 C1.06250714,7.55041035 1.04513645,7.55041035 1.03934622,7.56751982 C1.10882897,7.69298929 1.28832609,7.78423981 1.5836278,7.73861455 C1.71101285,7.72150508 1.81523699,7.67587982 1.91367089,7.6245514 C2.13369962,7.52759772 2.37109903,7.41353457 2.94433176,7.45915983 C3.36701853,7.49337877 3.62757886,7.40783141 3.88234896,7.3279872 C4.1429093,7.24243984 4.39188917,7.16259563 4.78562479,7.21392405 C4.37451848,7.19681458 4.14869953,7.27665878 3.89392942,7.35650299 C3.63336909,7.44775351 3.37280876,7.52759772 2.94433176,7.49337877 C2.38267949,7.44775351 2.13948985,7.56181666 1.93104158,7.65877034 C1.82102722,7.7043956 1.72838354,7.75572402 1.58941803,7.77853665 C1.53730597,7.77853665 1.4851939,7.78423981 1.43887206,7.78423981" id="Fill-156" fill="#7F4433"></path>
                                <path d="M4.65187048,6.93446933 C3.89914063,6.97439143 3.56909754,7.39642509 2.86847976,7.31087773 C3.41855157,7.49337877 3.8354481,7.0599388 4.64608025,7.08275143 L4.65187048,6.93446933 Z" id="Fill-158" fill="#7F4433"></path>
                                <path d="M6.78730717,6.83979691 L11.952192,4.50720545 C11.952192,4.50720545 12.0564161,4.47298651 12.027465,4.39884546 C11.9927236,4.33611072 11.9000799,4.38173599 11.9000799,4.38173599 L6.5788589,6.32651273 L6.78730717,6.83979691 Z" id="Fill-160" fill="#E7B65B"></path>
                                <path d="M6.79541349,6.85918765 L6.78383303,6.83067186 L11.9487179,4.49237724 C11.9487179,4.49237724 12.0355713,4.4581583 12.0066202,4.40682988 C11.9834592,4.36120462 11.9081862,4.39542356 11.9081862,4.39542356 L6.58117499,6.34020031 L11.8908156,4.36120462 C11.9313472,4.34409515 12.0182006,4.33268883 12.0413615,4.39542356 C12.0703127,4.4581583 12.0008299,4.50378356 11.9602983,4.52659619 L6.79541349,6.85918765 Z" id="Fill-162" fill="#7F4433"></path>
                                <polygon id="Fill-164" fill="#7F4433" points="6.73403706 6.71432744 10.2834478 5.11174016 6.62402269 6.45768535"></polygon>
                                <path d="M8.58575249,6.37898178 C9.36164326,6.41320072 9.80170071,5.92843233 10.5023185,5.99687022 C11.2087265,6.05960495 11.6024621,5.67749339 11.8688127,5.59194603 C12.1467437,5.50639866 12.3088701,5.68319655 12.3494017,5.60335234 C12.3841431,5.5292113 12.1699046,5.35241341 11.776169,5.40944499 C11.3940139,5.47217972 11.2782093,5.7573376 10.4212553,5.68889971 C9.5643013,5.62046182 9.36164326,6.03108916 8.58575249,5.92843233 L8.58575249,6.37898178 Z" id="Fill-166" fill="#E7B65B"></path>
                                <path d="M8.65176111,6.39837251 L8.58806858,6.39837251 L8.58806858,6.36415357 C8.97022374,6.37555988 9.27131568,6.26719989 9.56661739,6.15883989 C9.86770933,6.0504799 10.1514306,5.94782306 10.5046346,5.98204201 C11.0083846,6.02196411 11.3615886,5.83375991 11.6163587,5.69118097 C11.7090023,5.63985255 11.7900656,5.59993045 11.8653385,5.57141466 C12.0332552,5.52008624 12.15485,5.56000835 12.2417035,5.58852413 C12.2996058,5.61133676 12.3227667,5.61703992 12.3227667,5.59993045 C12.2648644,5.48016414 12.079577,5.38321046 11.7842753,5.42313256 C11.6511001,5.44594519 11.5526661,5.49157045 11.4542322,5.53719572 C11.2284133,5.63985255 10.9910139,5.74821255 10.4235714,5.70829044 C10.0008846,5.66836834 9.73453405,5.75961886 9.48555417,5.83946307 C9.22499384,5.92501043 8.97601397,5.99915148 8.58806858,5.95352622 C8.97601397,5.97063569 9.21920361,5.88508833 9.46818348,5.80524412 C9.72295359,5.72539992 9.98930415,5.63985255 10.4235714,5.66836834 C10.9794334,5.7139936 11.2226231,5.60563361 11.4310713,5.51438309 C11.5410857,5.45735151 11.6453098,5.40602309 11.7784851,5.39461678 C12.0737868,5.34899151 12.2764449,5.43453888 12.3517178,5.53149256 L12.3632983,5.61703992 C12.3401374,5.66266518 12.2880253,5.64555571 12.2243328,5.62274308 C12.1432696,5.59993045 12.0332552,5.55430519 11.876919,5.60563361 C11.8074363,5.62844624 11.7205828,5.66836834 11.6337294,5.72539992 C11.3673788,5.86797886 11.019965,6.05618306 10.4988444,6.0105578 C10.1514306,5.98204201 9.87349956,6.08469885 9.57819785,6.19305884 C9.30026683,6.29571568 9.01654557,6.39837251 8.65176111,6.39837251" id="Fill-168" fill="#7F4433"></path>
                                <path d="M8.72008582,6.22613715 C9.47281567,6.19191821 9.80285876,5.7755877 10.4918961,5.85543191 C9.9476145,5.67293087 9.52492773,6.112074 8.72008582,6.08926137 L8.72008582,6.22613715 Z" id="Fill-170" fill="#7F4433"></path>
                                <path d="M6.9419063,6.47479483 L4.57949261,1.3932814 C4.57949261,1.3932814 4.538961,1.29632772 4.46947825,1.32484351 C4.40578572,1.34765614 4.44631733,1.44460982 4.44631733,1.44460982 L6.42078563,6.69151481 L6.9419063,6.47479483 Z" id="Fill-172" fill="#E7B65B"></path>
                                <path d="M6.43352414,6.68296008 L4.43010469,1.45316456 C4.43010469,1.4474614 4.40694377,1.39042982 4.42431446,1.35050772 L4.51695813,1.31058562 C4.5690702,1.32769509 4.59223112,1.38472667 4.59223112,1.38472667 L6.96043503,6.47194325 L6.93148389,6.48334956 L4.51695813,1.32199193 L4.47642652,1.3391014 L4.46484606,1.43605508 L6.43352414,6.68296008 Z" id="Fill-174" fill="#7F4433"></path>
                                <polygon id="Fill-176" fill="#7F4433" points="6.81220516 6.53011545 5.19094086 3.039783 6.55743505 6.63847545"></polygon>
                                <path d="M6.48100402,4.71365976 C6.50995517,3.93803032 6.02936611,3.51599666 6.08726841,2.82021143 C6.15096093,2.13012936 5.76301555,1.74231465 5.67037187,1.47426624 C5.58930866,1.20051468 5.76880578,1.04652942 5.69353279,1.00660732 C5.60667935,0.972388371 5.43297246,1.17770204 5.49666498,1.5598136 C5.55456728,1.94762832 5.84986899,2.05598832 5.78038624,2.90005564 C5.71090348,3.74412297 6.12780001,3.93803032 6.02936611,4.71365976 L6.48100402,4.71365976 Z" id="Fill-178" fill="#E7B65B"></path>
                                <path d="M6.49721666,4.71365976 L6.46247529,4.71365976 C6.47405574,4.3315482 6.35825115,4.034984 6.25402702,3.74412297 C6.14401266,3.44755877 6.03399829,3.17380721 6.06294944,2.82021143 C6.10927128,2.31833357 5.9181937,1.98184727 5.77922819,1.73090833 C5.72132589,1.63395465 5.68079429,1.54840729 5.65184314,1.48567256 C5.6055213,1.32028098 5.65184314,1.19481152 5.68079429,1.11496731 C5.69816497,1.05223258 5.7039552,1.02941995 5.68658452,1.02371679 C5.55340923,1.08645152 5.47234602,1.26895257 5.5070874,1.5598136 C5.53024832,1.68528307 5.57657015,1.78223675 5.62289199,1.89059675 C5.72132589,2.10161358 5.84292072,2.3411462 5.79659888,2.90005564 C5.7618575,3.31638615 5.84871095,3.5787314 5.92977416,3.82396717 C6.01083737,4.08060926 6.09190059,4.32014188 6.03978852,4.71365976 C6.05715921,4.32584504 5.976096,4.08631242 5.89503278,3.83537349 C5.80817934,3.58443455 5.72132589,3.3220893 5.75606727,2.90005564 C5.80238911,2.34684935 5.69816497,2.11301989 5.59394084,1.90200306 C5.547619,1.79934622 5.49550694,1.69668939 5.47813625,1.56551676 C5.43181441,1.28035888 5.51866786,1.07504521 5.6055213,1.00660732 L5.7039552,0.989497844 C5.75027704,1.01231047 5.73290635,1.06363889 5.71553566,1.12637363 C5.68079429,1.20051468 5.64026268,1.32028098 5.68658452,1.46856308 C5.71553566,1.54270413 5.7618575,1.62254834 5.80817934,1.71379886 C5.94714485,1.96473779 6.14980289,2.31833357 6.10348105,2.82591459 C6.0745299,3.16810405 6.1729638,3.44185561 6.2887684,3.73271665 C6.39878276,4.02357769 6.50879712,4.32584504 6.49721666,4.71365976" id="Fill-180" fill="#7F4433"></path>
                                <path d="M6.32814196,4.58191682 C6.28761035,3.84050633 5.86492359,3.50972319 5.94019657,2.83675059 C5.75490923,3.36714425 6.20075691,3.78347475 6.18338622,4.57621366 L6.32814196,4.58191682 Z" id="Fill-182" fill="#7F4433"></path>
                                <path d="M6.41904856,6.6909445 L8.79304271,11.7781611 C8.79304271,11.7781611 8.82778409,11.8751148 8.89726684,11.8408958 C8.9667496,11.8180832 8.92621799,11.7268327 8.92621799,11.7268327 L6.94016923,6.47422451 L6.41904856,6.6909445 Z" id="Fill-184" fill="#E7B65B"></path>
                                <path d="M8.90305707,11.8625678 C8.80462317,11.8397552 8.76988179,11.7827236 8.76988179,11.7827236 L6.40167787,6.69550702 L6.43641925,6.68410071 L8.8104134,11.7656141 C8.8104134,11.7656141 8.84515478,11.8511615 8.89726684,11.8283489 C8.93779845,11.8112394 8.90305707,11.725692 8.90305707,11.725692 L6.92858877,6.48449019 L8.93779845,11.7142857 C8.95516914,11.7542078 8.97253983,11.834052 8.90305707,11.8625678" id="Fill-186" fill="#7F4433"></path>
                                <polygon id="Fill-188" fill="#7F4433" points="6.55917212 6.6367645 8.18043642 10.1328001 6.81394222 6.52840451"></polygon>
                                <path d="M6.89095228,8.45264988 C6.86200113,9.22827932 7.34259019,9.65601614 7.28468789,10.3460982 C7.22099537,11.0361803 7.60315052,11.4182918 7.69000397,11.6977466 C7.78264764,11.965795 7.58577983,12.1254834 7.67263328,12.1597023 C7.75369649,12.1996244 7.93319361,11.9829044 7.87529131,11.6007929 C7.81159879,11.2243845 7.52208731,11.1103213 7.58577983,10.266254 C7.66105282,9.42788983 7.24415629,9.22827932 7.34259019,8.45835304 L6.89095228,8.45264988 Z" id="Fill-190" fill="#E7B65B"></path>
                                <path d="M7.66684305,12.1785227 C7.61473098,12.1557101 7.6378919,12.0986785 7.66105282,12.0473501 C7.68421374,11.9675059 7.73053557,11.8477396 7.67263328,11.6994575 C7.65526259,11.6253165 7.60315052,11.5454722 7.55103846,11.4485186 C7.41207294,11.1975796 7.22099537,10.849687 7.25573674,10.342106 C7.29047812,9.99991654 7.19204422,9.72616497 7.08202986,9.43530394 C6.97201549,9.13873974 6.85042067,8.84217555 6.86779136,8.45436083 L6.90253274,8.45436083 C6.89095228,8.83647239 7.00096664,9.13303658 7.110981,9.42389762 C7.2267856,9.71475866 7.3252195,9.99421338 7.29626835,10.342106 C7.24994651,10.8382807 7.44102409,11.1861733 7.5799896,11.4371123 C7.6378919,11.5340659 7.68421374,11.6139101 7.70737466,11.6880512 C7.75948672,11.8477396 7.72474534,11.9732091 7.69000397,12.0587564 C7.66684305,12.115788 7.66684305,12.1328975 7.68421374,12.1443038 C7.80580856,12.0815691 7.89845223,11.8933649 7.8521304,11.6025038 C7.84054994,11.4770344 7.7942281,11.3800807 7.7363258,11.2774238 C7.64947236,11.066407 7.53366777,10.8268744 7.57419937,10.2622618 C7.60315052,9.84593128 7.52208731,9.59499235 7.43523386,9.34405341 C7.35417065,9.08741132 7.27310743,8.84217555 7.3252195,8.45436083 C7.30784881,8.84217555 7.38891203,9.08170817 7.47576547,9.3326471 C7.55103846,9.58358603 7.64947236,9.84593128 7.60315052,10.2679649 C7.56261891,10.8211712 7.67263328,11.0550007 7.76527695,11.2660175 C7.82317925,11.3686744 7.86950108,11.4713312 7.892662,11.6025038 C7.93319361,11.8876617 7.84634017,12.0872722 7.75369649,12.1614133 L7.66684305,12.1785227 Z" id="Fill-192" fill="#7F4433"></path>
                                <path d="M7.04207727,8.58667409 C7.08260888,9.32808457 7.50529564,9.65886771 7.42423243,10.3318403 C7.60372954,9.7957435 7.16367209,9.38511615 7.19262324,8.59237724 L7.04207727,8.58667409 Z" id="Fill-194" fill="#7F4433"></path>
                                <path d="M6.6848201,4.30759494 C7.96446085,4.30759494 8.99512172,5.32275699 8.99512172,6.57745166 C8.99512172,7.84355265 7.96446085,8.8587147 6.6848201,8.8587147 C5.39938913,8.8587147 4.36872825,7.84355265 4.36872825,6.57745166 C4.36872825,5.32275699 5.39938913,4.30759494 6.6848201,4.30759494" id="Fill-196" fill="#E7B65B"></path>
                                <path d="M6.6848201,4.32242315 C5.41675982,4.32242315 4.38609894,5.3375852 4.38609894,6.58087356 C4.38609894,7.82986507 5.41675982,8.84502712 6.6848201,8.84502712 C7.95288039,8.84502712 8.97775104,7.82986507 8.97775104,6.58087356 C8.97775104,5.3375852 7.95288039,4.32242315 6.6848201,4.32242315 M6.6848201,8.87924607 C5.39938913,8.87924607 4.35714779,7.84697454 4.35714779,6.58087356 C4.35714779,5.32047573 5.39938913,4.2882042 6.6848201,4.2882042 C7.97025108,4.2882042 9.01828264,5.32047573 9.01828264,6.58087356 C9.01828264,7.84697454 7.97025108,8.87924607 6.6848201,8.87924607" id="Fill-198" fill="#7F4433"></path>
                                <path d="M8.14569504,6.09268327 C7.7287985,5.74479065 7.2192583,5.68775908 6.92974682,5.95580748 C6.72708878,6.22385589 6.74445947,6.54893587 6.99343934,6.88542217 C6.96448819,6.88542217 6.92974682,6.90253165 6.91237613,6.91393796 C6.73287901,6.57745166 6.70392786,6.22955905 6.81973245,5.91588538 C7.2192583,5.60221171 7.75774965,5.56799277 8.14569504,6.09268327" id="Fill-200" fill="#7F4433"></path>
                                <path d="M7.50529564,5.98489359 C7.26789623,5.98489359 7.22157439,6.04192516 7.11156003,6.12747253 C7.00154566,6.21872305 6.9494336,6.19591042 6.93206291,6.21872305 C6.91469222,6.23012936 6.93206291,6.28716094 6.96680429,6.27005147 C7.00154566,6.24723884 7.07681865,6.21872305 7.18104278,6.12747253 C7.27947669,6.04192516 7.40107151,6.04192516 7.50529564,6.04192516 C7.82375827,6.04192516 8.00325539,6.30427041 8.03799677,6.28716094 C8.07273814,6.27005147 7.85270942,5.98489359 7.50529564,5.98489359" id="Fill-202" fill="#7F4433"></path>
                                <path d="M7.90482149,6.28716094 C7.68479276,6.04192516 7.25052554,6.02481569 7.07681865,6.30427041 L7.1463014,6.30427041 C7.32000829,6.02481569 7.75427552,6.13887884 7.78322666,6.27005147 L7.78322666,6.30427041 L7.90482149,6.28716094 Z" id="Fill-204" fill="#7F4433"></path>
                                <path d="M7.46939622,6.10922242 C7.55045943,6.10922242 7.63152265,6.18336347 7.63152265,6.26891084 C7.63152265,6.3544582 7.55045943,6.42289609 7.46939622,6.42289609 C7.38254277,6.42289609 7.30726979,6.3544582 7.30726979,6.26891084 C7.30726979,6.18336347 7.38254277,6.10922242 7.46939622,6.10922242" id="Fill-206" fill="#7F4433"></path>
                                <path d="M7.07392353,6.3037001 C7.25342065,6.45768535 7.64715627,6.48049798 7.90192637,6.28659062 L7.78612178,6.26948115 C7.60662466,6.45768535 7.32290341,6.44057588 7.14340629,6.3037001 L7.14340629,6.26948115 L7.07392353,6.3037001 Z" id="Fill-208" fill="#7F4433"></path>
                                <path d="M7.93087752,6.3727083 C7.62978558,6.60083461 7.32290341,6.57802198 7.14340629,6.4810683 C6.96390917,6.3727083 6.96390917,6.33848936 7.00444078,6.33848936 C7.03918216,6.33848936 7.07392353,6.3727083 7.21867927,6.4411462 C7.36343502,6.50958409 7.57767351,6.50958409 7.93087752,6.3727083" id="Fill-210" fill="#7F4433"></path>
                                <path d="M7.05713187,6.90253165 C7.10924393,6.91964112 7.14398531,6.98237585 7.12082439,7.03370427 C7.09766348,7.09073585 7.03976118,7.11925163 6.99343934,7.096439 C6.94132728,7.08503269 6.91816636,7.04511059 6.91237613,7.00518848 C6.89500544,7.03940743 6.81973245,7.14206426 6.68655717,7.14206426 L6.65181579,7.14206426 L6.68655717,7.19339268 C6.72129855,7.19339268 6.81973245,7.19339268 6.89500544,7.14206426 C6.95290773,7.21620531 7.03976118,7.23331479 7.12082439,7.18768953 C7.19030715,7.13065795 7.21346807,7.03370427 7.15556577,6.95956322 C7.13240485,6.92534428 7.09766348,6.9082348 7.05713187,6.90253165" id="Fill-212" fill="#7F4433"></path>
                                <path d="M7.26558013,7.63424677 C7.11503416,7.53158993 7.03976118,7.37190152 6.86026406,7.37190152 C6.81973245,7.37190152 6.7502497,7.38901099 6.68655717,7.42893309 L6.65181579,7.42893309 L6.68655717,7.47455835 C6.7502497,7.47455835 6.86026406,7.38901099 6.99343934,7.45744888 C7.11503416,7.53158993 7.18451692,7.60002782 7.26558013,7.63424677" id="Fill-214" fill="#7F4433"></path>
                                <path d="M7.22099537,7.63424677 C6.86200113,7.53158993 6.78672814,7.60002782 6.68250401,7.60002782 L6.64776263,7.60002782 L6.68250401,7.66846571 C6.82146952,7.66846571 6.89674251,7.56580887 7.22099537,7.63424677" id="Fill-216" fill="#7F4433"></path>
                                <path d="M7.26558013,7.63424677 C6.88342498,7.60002782 7.0050198,7.82815412 6.68655717,7.82815412 L6.65181579,7.82815412 L6.68655717,7.87948254 C7.07450256,7.87948254 6.89500544,7.66846571 7.26558013,7.63424677" id="Fill-218" fill="#7F4433"></path>
                                <path d="M7.00386176,8.19315621 C7.00386176,8.02206148 6.85910601,7.87948254 6.68539913,7.87948254 C6.51169224,7.87948254 6.36114627,8.02206148 6.36114627,8.19315621 C6.40167787,8.02206148 6.58117499,7.91370149 6.76067211,7.95932675 C6.88226693,7.98213938 6.97491061,8.0733899 7.00386176,8.19315621" id="Fill-220" fill="#7F4433"></path>
                                <path d="M5.22105005,6.09268327 C5.63215636,5.74479065 6.14748679,5.68775908 6.43120805,5.95580748 C6.63965631,6.22385589 6.61649539,6.54893587 6.37909598,6.88542217 C6.39646667,6.88542217 6.43120805,6.90253165 6.44857873,6.91393796 C6.62807585,6.57745166 6.66860746,6.22955905 6.54122241,5.91588538 C6.14748679,5.60221171 5.61478567,5.56799277 5.22105005,6.09268327" id="Fill-222" fill="#7F4433"></path>
                                <path d="M5.86608163,5.98489359 C6.09190059,5.98489359 6.14980289,6.04192516 6.25402702,6.12747253 C6.35825115,6.21872305 6.41036322,6.19591042 6.43352414,6.21872305 C6.45089483,6.23012936 6.43352414,6.28716094 6.39878276,6.27005147 C6.35825115,6.24723884 6.29455863,6.21872305 6.17875403,6.12747253 C6.0745299,6.04192516 5.97030577,6.04192516 5.86608163,6.04192516 C5.547619,6.04192516 5.36812189,6.30427041 5.32759028,6.28716094 C5.2928489,6.27005147 5.5070874,5.98489359 5.86608163,5.98489359" id="Fill-224" fill="#7F4433"></path>
                                <path d="M5.45323826,6.28716094 C5.68484745,6.04192516 6.11332444,6.02481569 6.29282156,6.30427041 L6.21754857,6.30427041 C6.03805145,6.02481569 5.61536469,6.13887884 5.58641354,6.27005147 L5.58641354,6.30427041 L5.45323826,6.28716094 Z" id="Fill-226" fill="#7F4433"></path>
                                <path d="M5.90140203,6.10922242 C5.80875836,6.10922242 5.73927561,6.18336347 5.73927561,6.26891084 C5.73927561,6.3544582 5.80875836,6.42289609 5.90140203,6.42289609 C5.98246525,6.42289609 6.05773823,6.3544582 6.05773823,6.26891084 C6.05773823,6.18336347 5.98246525,6.10922242 5.90140203,6.10922242" id="Fill-228" fill="#7F4433"></path>
                                <path d="M6.29340058,6.3037001 C6.10811323,6.45768535 5.72595808,6.48049798 5.45381728,6.28659062 L5.58699257,6.26948115 C5.75490923,6.45768535 6.03863048,6.44057588 6.2181276,6.3037001 L6.2181276,6.26948115 L6.29340058,6.3037001 Z" id="Fill-230" fill="#7F4433"></path>
                                <path d="M5.4341305,6.3727083 C5.74101267,6.60083461 6.04210461,6.57802198 6.22160173,6.4810683 C6.39530862,6.3727083 6.39530862,6.33848936 6.36056724,6.33848936 C6.32582587,6.33848936 6.29108449,6.3727083 6.15211898,6.4411462 C6.00157301,6.50958409 5.79312474,6.50958409 5.4341305,6.3727083" id="Fill-232" fill="#7F4433"></path>
                                <path d="M6.31077127,6.90253165 C6.25286897,6.91964112 6.22970805,6.98237585 6.25286897,7.03370427 C6.26444943,7.09073585 6.32814196,7.11925163 6.38025402,7.096439 C6.42078563,7.08503269 6.44973678,7.04511059 6.44973678,7.00518848 C6.46710747,7.03940743 6.54238045,7.14206426 6.6871362,7.14206426 L6.72187757,7.14206426 L6.6871362,7.19339268 C6.65239482,7.19339268 6.54238045,7.19339268 6.46710747,7.14206426 C6.42078563,7.21620531 6.3165615,7.23331479 6.25286897,7.18768953 C6.17180576,7.13065795 6.1602253,7.03370427 6.20075691,6.95956322 C6.23549828,6.92534428 6.27023966,6.9082348 6.31077127,6.90253165" id="Fill-234" fill="#7F4433"></path>
                                <path d="M6.09363766,7.63424677 C6.25576409,7.53158993 6.32524684,7.37190152 6.50474396,7.37190152 C6.53948534,7.37190152 6.61475832,7.38901099 6.68424108,7.42893309 L6.71898246,7.42893309 L6.68424108,7.47455835 C6.61475832,7.47455835 6.50474396,7.38901099 6.38314914,7.45744888 C6.25576409,7.53158993 6.1804911,7.60002782 6.09363766,7.63424677" id="Fill-236" fill="#7F4433"></path>
                                <path d="M6.14922386,7.63424677 C6.5082181,7.53158993 6.57770086,7.60002782 6.68192499,7.60002782 L6.7224566,7.60002782 L6.68192499,7.66846571 C6.54295948,7.66846571 6.46768649,7.56580887 6.14922386,7.63424677" id="Fill-238" fill="#7F4433"></path>
                                <path d="M6.09363766,7.63424677 C6.48737327,7.60002782 6.35998822,7.82815412 6.68424108,7.82815412 L6.71898246,7.82815412 L6.68424108,7.87948254 C6.29050547,7.87948254 6.47000258,7.66846571 6.09363766,7.63424677" id="Fill-240" fill="#7F4433"></path>
                                <path d="M6.3594092,8.19315621 C6.3594092,8.02206148 6.50995517,7.87948254 6.68366206,7.87948254 C6.85736895,7.87948254 7.00212469,8.02206148 7.00212469,8.19315621 C6.96738331,8.02206148 6.78788619,7.91370149 6.60259884,7.95932675 C6.49258448,7.98213938 6.38836035,8.0733899 6.3594092,8.19315621" id="Fill-242" fill="#7F4433"></path>
                            </g>
                        </g>
                    </g>
                </g>
            </g>
        </g>
    </g>
</svg>