<?xml version="1.0" encoding="UTF-8"?>
<svg width="71px" height="41px" viewBox="0 0 71 41" version="1.1" xmlns="http://www.w3.org/2000/svg" xmlns:xlink="http://www.w3.org/1999/xlink">
    <title>252ED23A-B987-43D7-AD50-7ECE71196063</title>
    <g id="Page-1" stroke="none" stroke-width="1" fill="none" fill-rule="evenodd">
        <g id="Desktop-HD" transform="translate(-253.000000, -2603.000000)">
            <g id="Calendar" transform="translate(229.000000, 2200.000000)">
                <g id="Date/Master-Copy-8" transform="translate(0.000000, 256.000000)">
                    <g id="Date/Master-Copy-10" transform="translate(0.000000, 135.000000)">
                        <g id="flag-copy-2" transform="translate(24.000000, 12.000000)">
                            <polygon id="Fill-1" fill="#488C4E" points="0 41 70.2873435 41 70.2873435 0 0 0"></polygon>
                            <polygon id="Fill-2" fill="#E4BA37" points="10.8390542 20.4971488 35.1425313 36.0246871 59.4631154 20.4971488 35.1425313 4.97531293"></polygon>
                            <g id="Group-587" transform="translate(23.449833, 10.246579)">
                                <path d="M21.942128,10.2528512 C21.942128,15.9095967 17.357427,20.5 11.6949791,20.5 C6.03823366,20.5 1.45353268,15.9095967 1.45353268,10.2528512 C1.45353268,4.5961057 6.03823366,0 11.6949791,0 C17.357427,0 21.942128,4.5961057 21.942128,10.2528512" id="Fill-3" fill="#403972"></path>
                                <path d="M5.8432128,5.85632823 C4.64001391,5.85632823 3.46532684,5.94756606 2.31344924,6.10723227 C2.09675939,6.60904033 1.91428373,7.13365786 1.77172462,7.66968011 C3.09467316,7.4472879 4.45183588,7.32183588 5.8432128,7.32183588 C11.8478025,7.32183588 17.3391794,9.58567455 21.479096,13.3093185 C21.6501669,12.784701 21.7699166,12.2429764 21.8440473,11.689847 C17.5159527,8.05173853 11.9390403,5.85632823 5.8432128,5.85632823" id="Fill-5" fill="#F5F5F5"></path>
                                <path d="M2.93386648,7.07549374 C3.06502086,7.05838665 3.16766342,6.90442281 3.15055633,6.73905424 C3.13344924,6.56798331 3.00229485,6.44823366 2.85403338,6.46534075 C2.71147427,6.48244784 2.61453408,6.63070932 2.63164117,6.80178025 C2.66015299,6.97285118 2.79130737,7.09260083 2.93386648,7.07549374 M2.95667594,7.25226704 C3.19047288,7.22375522 3.36154381,6.98425591 3.32732962,6.71624478 C3.2988178,6.45393602 3.07642559,6.25435327 2.83692629,6.28856745 C2.59172462,6.31137691 2.42065369,6.55657858 2.46057024,6.82458971 C2.48908206,7.09260083 2.71147427,7.28077886 2.95667594,7.25226704" id="Fill-7" fill="#488C4E"></path>
                                <path d="M3.75443672,7.1718637 L3.93121001,7.15475661 L3.90269819,6.79550765 L4.3018637,6.76699583 C4.45582754,6.7555911 4.58698192,6.60732962 4.58127955,6.43625869 C4.56417246,6.27089013 4.41591099,6.13973574 4.25624478,6.15114047 L3.69171071,6.19105702 L3.75443672,7.1718637 Z" id="Fill-9" fill="#488C4E"></path>
                                <path d="M4.57386648,7.11141864 C4.56816412,6.96885953 4.55105702,6.66663421 4.34006954,6.67803894 L4.07205841,6.69514604 C4.37428373,6.67803894 4.39709318,6.98596662 4.41420028,7.12282337 L4.57386648,7.11141864 Z" id="Fill-11" fill="#488C4E"></path>
                                <path d="M5.16292072,6.90613352 L5.43093185,6.90043115 C5.57919332,6.90043115 5.69324061,6.77497914 5.68753825,6.63242003 L5.68753825,6.5411822 C5.68753825,6.40432545 5.5677886,6.29027816 5.42522949,6.29027816 L5.15721836,6.29598053 L5.16292072,6.90613352 Z M4.99184979,7.09431154 L5.44803894,7.08290682 C5.68183588,7.07720445 5.86431154,6.88902643 5.86431154,6.65522949 L5.85290682,6.51267038 C5.85290682,6.29027816 5.65902643,6.09639777 5.43093185,6.10210014 L4.9747427,6.11350487 L4.99184979,7.09431154 Z" id="Fill-13" fill="#488C4E"></path>
                                <polygon id="Fill-15" fill="#488C4E" points="6.21785814 7.0794854 7.10172462 7.11369958 7.11312935 6.92552156 6.4003338 6.9027121 6.41173853 6.65180807 6.97057024 6.66891516 6.97057024 6.50354659 6.41744089 6.48073713 6.41744089 6.29255911 7.09602225 6.31536857 7.09602225 6.12719054 6.25777469 6.09867872"></polygon>
                                <polygon id="Fill-17" fill="#488C4E" points="7.4661057 7.13023644 7.63147427 7.14734353 7.68849791 6.4801669 7.81965229 7.15874826 7.9793185 7.17585535 8.23022253 6.52578581 8.17319889 7.19296245 8.33856745 7.21006954 8.42410292 6.23496523 8.18460362 6.21215577 7.92799722 6.86222531 7.79114047 6.17794159 7.5459388 6.15513213"></polygon>
                                <polygon id="Fill-19" fill="#488C4E" points="9.48303199 7.35605007 10.218637 7.48150209 10.2357441 7.31613352 9.68261474 7.21919332 9.72253129 7.00250348 10.1787204 7.08233658 10.2015299 6.91696801 9.75104312 6.83713491 9.77385257 6.68317107 10.3098748 6.78011127 10.3326843 6.6147427 9.63699583 6.48929068"></polygon>
                                <path d="M11.3391516,7.71815021 L11.5102225,7.76947149 L11.6128651,7.42162726 L11.9835188,7.51286509 C12.1488873,7.55848401 12.3142559,7.45584145 12.3655772,7.29047288 C12.3997914,7.13080668 12.3028512,6.96543811 12.143185,6.91981919 L11.6014604,6.77726008 L11.3391516,7.71815021 Z" id="Fill-21" fill="#488C4E"></path>
                                <path d="M12.54121,8.03862309 L12.7122809,8.09564673 L12.8263282,7.7478025 L13.1855772,7.86755216 C13.3566481,7.91887344 13.5277191,7.82763561 13.5790403,7.6679694 C13.6303616,7.5083032 13.5391238,7.33723227 13.3794576,7.28591099 L12.837733,7.11484006 L12.54121,8.03862309 Z" id="Fill-23" fill="#488C4E"></path>
                                <path d="M13.3281363,8.29066759 C13.3737552,8.15951321 13.4592907,7.86869263 13.2654103,7.80026426 L13.0145063,7.72043115 C13.3053268,7.81737135 13.214089,8.10819193 13.1684701,8.23934631 L13.3281363,8.29066759 Z" id="Fill-25" fill="#488C4E"></path>
                                <path d="M14.1903338,8.40756606 C14.3271905,8.46458971 14.4811544,8.36764951 14.5438804,8.20798331 C14.600904,8.04831711 14.5438804,7.88294854 14.412726,7.83162726 C14.2758693,7.78600834 14.1162031,7.87154381 14.0591794,8.03121001 C13.9964534,8.18517385 14.0648818,8.35624478 14.1903338,8.40756606 M14.1276078,8.578637 C14.3557024,8.6584701 14.6180111,8.52731572 14.709249,8.27641168 C14.8061892,8.01980529 14.7035466,7.74609179 14.475452,7.66625869 C14.2416551,7.57502086 13.9793463,7.71187761 13.8881085,7.96278164 C13.7911683,8.21938804 13.9052156,8.49310153 14.1276078,8.578637" id="Fill-27" fill="#488C4E"></path>
                                <path d="M15.3536161,8.87458971 C15.4847705,8.93731572 15.6444367,8.85178025 15.7071627,8.69781641 C15.7812935,8.54385257 15.7242698,8.36707928 15.5988178,8.31005563 C15.4676634,8.25303199 15.3079972,8.33286509 15.2395688,8.49253129 C15.1711405,8.64649513 15.2167594,8.81756606 15.3536161,8.87458971 M15.2794854,9.03995828 C15.5018776,9.13689847 15.7755911,9.01714882 15.8782337,8.77194715 C15.9808762,8.52104312 15.8896384,8.24162726 15.6672462,8.14468707 C15.4505563,8.05344924 15.1825452,8.16749652 15.0742003,8.41840056 C14.9658554,8.66360223 15.0570932,8.94301808 15.2794854,9.03995828" id="Fill-29" fill="#488C4E"></path>
                                <polygon id="Fill-31" fill="#488C4E" points="15.5378025 8.62140473 15.8799444 8.7696662 15.811516 8.90082058 15.4807789 8.74685675"></polygon>
                                <polygon id="Fill-33" fill="#488C4E" points="15.7493602 8.71150209 15.8805146 8.76852573 15.6809318 9.21901252 15.5611822 9.16198887"></polygon>
                                <path d="M16.0162309,9.3689847 L16.1758971,9.4488178 L16.3355633,9.12378303 L16.6834075,9.30055633 C16.831669,9.37468707 17.019847,9.31196106 17.0939777,9.16369958 C17.1681085,9.00973574 17.1110848,8.82726008 16.957121,8.75312935 L16.4610153,8.50222531 L16.0162309,9.3689847 Z" id="Fill-35" fill="#488C4E"></path>
                                <path d="M16.7524061,9.73963839 C16.8151321,9.61418637 16.9462865,9.34047288 16.7638108,9.24923505 L16.5243115,9.12378303 C16.8037274,9.26634214 16.6668707,9.54005563 16.609847,9.65980529 L16.7524061,9.73963839 Z" id="Fill-37" fill="#488C4E"></path>
                                <polygon id="Fill-39" fill="#488C4E" points="17.1145063 9.93180807 17.8843255 10.3651878 17.9641586 10.2055216 17.3540056 9.85767733 17.4680529 9.64098748 17.9584562 9.91470097 18.0382893 9.76073713 17.5535883 9.49272601 17.6562309 9.31595271 18.2321697 9.64668985 18.3291099 9.49272601 17.5935049 9.08215577"></polygon>
                                <path d="M18.5435188,10.4096662 C18.4921975,10.4894993 18.5435188,10.5807371 18.6575661,10.6605702 C18.7773157,10.734701 18.8571488,10.7289986 18.891363,10.6776773 C18.9997079,10.5066064 18.3838526,10.2614047 18.5720306,9.97628651 C18.7316968,9.71968011 19.016815,9.9135605 19.1194576,9.98198887 C19.2278025,10.0504172 19.3931711,10.2271905 19.2620167,10.4267733 L19.0852434,10.312726 C19.142267,10.2271905 19.0852434,10.1416551 18.9826008,10.0846314 C18.891363,10.0219054 18.8172323,9.9933936 18.765911,10.0846314 C18.6689708,10.2214882 19.2791238,10.4723922 19.0852434,10.7689152 C18.9597914,10.9799026 18.7202921,10.8829624 18.5663282,10.7860223 C18.4180668,10.7004868 18.2241864,10.4952017 18.3496384,10.2899166 L18.5435188,10.4096662 Z" id="Fill-41" fill="#488C4E"></path>
                                <path d="M19.5904729,11.1007928 C19.5277469,11.1806259 19.5733658,11.2775661 19.6874131,11.3573992 C19.8014604,11.4372323 19.8869958,11.4429346 19.9269124,11.385911 C20.0352573,11.2262448 19.4308067,10.9468289 19.6417942,10.6674131 C19.8185675,10.4222114 20.0922809,10.6331989 20.1892211,10.7073296 C20.2975661,10.7814604 20.4515299,10.963936 20.3089708,11.1578164 L20.1378999,11.0323644 C20.1892211,10.9468289 20.1378999,10.8612935 20.046662,10.7928651 C19.9554242,10.7301391 19.8926982,10.7016273 19.8299722,10.7871627 C19.733032,10.9183171 20.3203755,11.2034353 20.1207928,11.4885535 C19.9725313,11.6938387 19.733032,11.5911961 19.5904729,11.4771488 C19.4536161,11.385911 19.2654381,11.1749235 19.4079972,10.9753408 L19.5904729,11.1007928 Z" id="Fill-43" fill="#488C4E"></path>
                                <path d="M20.6893185,12.0810292 C20.8033658,12.172267 20.9801391,12.1380529 21.088484,12.0011961 C21.1968289,11.8700417 21.1797218,11.6932684 21.0713769,11.6020306 C20.9573296,11.5107928 20.7862587,11.545007 20.6836161,11.6818637 C20.5695688,11.8130181 20.5752712,11.9954937 20.6893185,12.0810292 M20.5752712,12.2235883 C20.7691516,12.3775522 21.0542698,12.3262309 21.2196384,12.1152434 C21.3907093,11.9042559 21.3736022,11.6134353 21.1854242,11.4651739 C20.9915438,11.3055076 20.7064256,11.3568289 20.541057,11.5678164 C20.3699861,11.7788039 20.3870932,12.0753268 20.5752712,12.2235883" id="Fill-45" fill="#488C4E"></path>
                                <polygon id="Fill-47" fill="#F5F5F5" points="3.32561892 7.96962448 3.19446453 8.38589708 3.40545202 8.46002782"></polygon>
                                <polygon id="Fill-49" fill="#F5F5F5" points="3.32561892 7.96962448 3.46817803 8.38589708 3.25719054 8.46002782"></polygon>
                                <polygon id="Fill-51" fill="#F5F5F5" points="3.7447427 8.27584145 3.30566064 8.27584145 3.30566064 8.49253129"></polygon>
                                <polygon id="Fill-53" fill="#F5F5F5" points="3.7447427 8.27584145 3.39689847 8.53244784 3.25433936 8.35567455"></polygon>
                                <polygon id="Fill-55" fill="#F5F5F5" points="2.90820584 8.27584145 3.2674548 8.53244784 3.39860918 8.35567455"></polygon>
                                <polygon id="Fill-57" fill="#F5F5F5" points="2.90820584 8.27584145 3.35299026 8.27584145 3.35299026 8.49253129"></polygon>
                                <polygon id="Fill-59" fill="#F5F5F5" points="3.58564673 8.76396384 3.44878999 8.34769124 3.24350487 8.41611961"></polygon>
                                <polygon id="Fill-61" fill="#F5F5F5" points="3.58564673 8.76396384 3.22639777 8.50735744 3.35755216 8.32488178"></polygon>
                                <polygon id="Fill-63" fill="#F5F5F5" points="3.06730181 8.76396384 3.42655076 8.50735744 3.29539638 8.32488178"></polygon>
                                <polygon id="Fill-65" fill="#F5F5F5" points="3.06730181 8.76396384 3.20986092 8.34769124 3.4208484 8.41611961"></polygon>
                                <polygon id="Fill-67" fill="#F5F5F5" points="4.23856745 12.2800417 4.10171071 12.6963143 4.31269819 12.7647427"></polygon>
                                <polygon id="Fill-69" fill="#F5F5F5" points="4.23856745 12.2800417 4.36972184 12.6963143 4.16443672 12.7647427"></polygon>
                                <polygon id="Fill-71" fill="#F5F5F5" points="4.64685675 12.5834075 4.21347705 12.5834075 4.21347705 12.8057997"></polygon>
                                <polygon id="Fill-73" fill="#F5F5F5" points="4.64685675 12.5834075 4.29901252 12.8457163 4.16785814 12.6632406"></polygon>
                                <polygon id="Fill-75" fill="#F5F5F5" points="3.82172462 12.5834075 4.16956885 12.8457163 4.30642559 12.6632406"></polygon>
                                <polygon id="Fill-77" fill="#F5F5F5" points="3.82172462 12.5834075 4.26650904 12.5834075 4.26650904 12.8057997"></polygon>
                                <polygon id="Fill-79" fill="#F5F5F5" points="4.49631433 13.0760918 4.35945758 12.6598192 4.1484701 12.7282476"></polygon>
                                <polygon id="Fill-81" fill="#F5F5F5" points="4.49631433 13.0760918 4.14276773 12.813783 4.26821975 12.6427121"></polygon>
                                <polygon id="Fill-83" fill="#F5F5F5" points="3.97226704 13.0760918 4.33721836 12.813783 4.20036161 12.6427121"></polygon>
                                <polygon id="Fill-85" fill="#F5F5F5" points="3.97226704 13.0760918 4.10912378 12.6598192 4.32011127 12.7282476"></polygon>
                                <polygon id="Fill-87" fill="#F5F5F5" points="2.97834492 13.3435327 2.89851182 13.6286509 3.03536857 13.6685675"></polygon>
                                <polygon id="Fill-89" fill="#F5F5F5" points="2.97834492 13.3435327 3.06958275 13.6286509 2.93272601 13.6685675"></polygon>
                                <polygon id="Fill-91" fill="#F5F5F5" points="3.25662031 13.549388 2.96579972 13.549388 2.96579972 13.6976495"></polygon>
                                <polygon id="Fill-93" fill="#F5F5F5" points="3.25662031 13.549388 3.02282337 13.7261613 2.9372879 13.6007093"></polygon>
                                <polygon id="Fill-95" fill="#F5F5F5" points="2.70577191 13.549388 2.93956885 13.7261613 3.02510431 13.6007093"></polygon>
                                <polygon id="Fill-97" fill="#F5F5F5" points="2.70577191 13.549388 2.99659249 13.549388 2.99659249 13.6976495"></polygon>
                                <polygon id="Fill-99" fill="#F5F5F5" points="3.14998609 13.8761335 3.06445063 13.5967177 2.92759388 13.6423366"></polygon>
                                <polygon id="Fill-101" fill="#F5F5F5" points="3.14998609 13.8761335 2.91618915 13.7050626 3.00172462 13.5853129"></polygon>
                                <polygon id="Fill-103" fill="#F5F5F5" points="2.81012517 13.8761335 3.04392211 13.7050626 2.96408901 13.5853129"></polygon>
                                <polygon id="Fill-105" fill="#F5F5F5" points="2.81012517 13.8761335 2.89566064 13.5967177 3.03251739 13.6423366"></polygon>
                                <polygon id="Fill-107" fill="#F5F5F5" points="5.24218359 11.8820167 5.16805285 12.0758971 5.27069541 12.1158136"></polygon>
                                <polygon id="Fill-109" fill="#F5F5F5" points="5.24218359 11.8820167 5.3049096 12.0758971 5.20226704 12.1158136"></polygon>
                                <polygon id="Fill-111" fill="#F5F5F5" points="5.43663421 12.0285675 5.2313491 12.0285675 5.2313491 12.13121"></polygon>
                                <polygon id="Fill-113" fill="#F5F5F5" points="5.43663421 12.0285675 5.27126565 12.1540195 5.214242 12.068484"></polygon>
                                <polygon id="Fill-115" fill="#F5F5F5" points="5.03632823 12.0285675 5.21310153 12.1540195 5.27012517 12.068484"></polygon>
                                <polygon id="Fill-117" fill="#F5F5F5" points="5.03632823 12.0285675 5.24731572 12.0285675 5.24731572 12.13121"></polygon>
                                <polygon id="Fill-119" fill="#F5F5F5" points="5.36364395 12.2606537 5.29521558 12.0610709 5.20397775 12.0952851"></polygon>
                                <polygon id="Fill-121" fill="#F5F5F5" points="5.36364395 12.2606537 5.19827538 12.1352017 5.25529903 12.0496662"></polygon>
                                <polygon id="Fill-123" fill="#F5F5F5" points="5.11844228 12.2606537 5.28381085 12.1352017 5.2267872 12.0496662"></polygon>
                                <polygon id="Fill-125" fill="#F5F5F5" points="5.11844228 12.2606537 5.18116829 12.0610709 5.27810848 12.0952851"></polygon>
                                <polygon id="Fill-127" fill="#F5F5F5" points="6.37467316 13.370904 6.26062587 13.7187483 6.42029207 13.7814743"></polygon>
                                <polygon id="Fill-129" fill="#F5F5F5" points="6.37467316 13.370904 6.47731572 13.7187483 6.31194715 13.7814743"></polygon>
                                <polygon id="Fill-131" fill="#F5F5F5" points="6.71396384 13.62637 6.34901252 13.62637 6.34901252 13.8088456"></polygon>
                                <polygon id="Fill-133" fill="#F5F5F5" points="6.71396384 13.62637 6.41744089 13.8430598 6.31479833 13.689096"></polygon>
                                <polygon id="Fill-135" fill="#F5F5F5" points="6.02340751 13.62637 6.31422809 13.8430598 6.42257302 13.689096"></polygon>
                                <polygon id="Fill-137" fill="#F5F5F5" points="6.02340751 13.62637 6.38265647 13.62637 6.38265647 13.8088456"></polygon>
                                <polygon id="Fill-139" fill="#F5F5F5" points="6.58623088 14.0289569 6.47218359 13.686815 6.29541029 13.7438387"></polygon>
                                <polygon id="Fill-141" fill="#F5F5F5" points="6.58623088 14.0289569 6.28970793 13.8179694 6.39235049 13.6697079"></polygon>
                                <polygon id="Fill-143" fill="#F5F5F5" points="6.16140473 14.0289569 6.44652295 13.8179694 6.34388039 13.6697079"></polygon>
                                <polygon id="Fill-145" fill="#F5F5F5" points="6.16140473 14.0289569 6.26974965 13.686815 6.44082058 13.7438387"></polygon>
                                <polygon id="Fill-147" fill="#F5F5F5" points="6.06332406 14.3882058 5.94927677 14.7360501 6.12034771 14.7930737"></polygon>
                                <polygon id="Fill-149" fill="#F5F5F5" points="6.06332406 14.3882058 6.17166898 14.7360501 6.00059805 14.7930737"></polygon>
                                <polygon id="Fill-151" fill="#F5F5F5" points="6.41059805 14.6448122 6.04564673 14.6448122 6.04564673 14.8215855"></polygon>
                                <polygon id="Fill-153" fill="#F5F5F5" points="6.41059805 14.6448122 6.1140751 14.8615021 6.00573018 14.7075382"></polygon>
                                <polygon id="Fill-155" fill="#F5F5F5" points="5.71890125 14.6448122 6.0154242 14.8615021 6.11806676 14.7075382"></polygon>
                                <polygon id="Fill-157" fill="#F5F5F5" points="5.71890125 14.6448122 6.08385257 14.6448122 6.08385257 14.8215855"></polygon>
                                <polygon id="Fill-159" fill="#F5F5F5" points="6.27659249 15.0508206 6.16824757 14.7029764 5.99147427 14.76"></polygon>
                                <polygon id="Fill-161" fill="#F5F5F5" points="6.27659249 15.0508206 5.97436718 14.8341307 6.09411683 14.6915716"></polygon>
                                <polygon id="Fill-163" fill="#F5F5F5" points="5.85176634 15.0508206 6.14258693 14.8341307 6.03994437 14.6915716"></polygon>
                                <polygon id="Fill-165" fill="#F5F5F5" points="5.85176634 15.0508206 5.96011127 14.7029764 6.13688456 14.76"></polygon>
                                <polygon id="Fill-167" fill="#F5F5F5" points="14.8734771 6.63184979 14.7423227 7.04812239 14.9533102 7.11655076"></polygon>
                                <polygon id="Fill-169" fill="#F5F5F5" points="14.8734771 6.63184979 15.0160362 7.04812239 14.7993463 7.11655076"></polygon>
                                <polygon id="Fill-171" fill="#F5F5F5" points="15.2897497 6.93521558 14.8506676 6.93521558 14.8506676 7.15760779"></polygon>
                                <polygon id="Fill-173" fill="#F5F5F5" points="15.2897497 6.93521558 14.9362031 7.19182197 14.810751 7.01504868"></polygon>
                                <polygon id="Fill-175" fill="#F5F5F5" points="14.4566342 6.93521558 14.8158832 7.19182197 14.9413352 7.01504868"></polygon>
                                <polygon id="Fill-177" fill="#F5F5F5" points="14.4566342 6.93521558 14.9014186 6.93521558 14.9014186 7.15760779"></polygon>
                                <polygon id="Fill-179" fill="#F5F5F5" points="15.1352156 7.43018081 14.9983588 7.00820584 14.7930737 7.08233658"></polygon>
                                <polygon id="Fill-181" fill="#F5F5F5" points="15.1352156 7.43018081 14.7759666 7.16787204 14.907121 6.99109875"></polygon>
                                <polygon id="Fill-183" fill="#F5F5F5" points="14.6157302 7.43018081 14.9692768 7.16787204 14.8438248 6.99109875"></polygon>
                                <polygon id="Fill-185" fill="#F5F5F5" points="14.6157302 7.43018081 14.7525869 7.00820584 14.9692768 7.08233658"></polygon>
                                <polygon id="Fill-187" fill="#F5F5F5" points="18.8731154 13.4108206 18.7419611 13.8270932 18.9529485 13.8955216"></polygon>
                                <polygon id="Fill-189" fill="#F5F5F5" points="18.8731154 13.4108206 19.0156745 13.8270932 18.8103894 13.8955216"></polygon>
                                <polygon id="Fill-191" fill="#F5F5F5" points="19.2945202 13.7141864 18.8554381 13.7141864 18.8554381 13.9308762"></polygon>
                                <polygon id="Fill-193" fill="#F5F5F5" points="19.2945202 13.7141864 18.9409736 13.9707928 18.8098192 13.7940195"></polygon>
                                <polygon id="Fill-195" fill="#F5F5F5" points="18.4568428 13.7141864 18.8160918 13.9707928 18.9415438 13.7940195"></polygon>
                                <polygon id="Fill-197" fill="#F5F5F5" points="18.4568428 13.7141864 18.9016273 13.7141864 18.9016273 13.9308762"></polygon>
                                <polygon id="Fill-199" fill="#F5F5F5" points="19.144548 14.2040195 19.0076912 13.7877469 18.7910014 13.8504729"></polygon>
                                <polygon id="Fill-201" fill="#F5F5F5" points="19.144548 14.2040195 18.785299 13.9474131 18.9164534 13.7649374"></polygon>
                                <polygon id="Fill-203" fill="#F5F5F5" points="18.6205007 14.2040195 18.9740473 13.9474131 18.8485953 13.7649374"></polygon>
                                <polygon id="Fill-205" fill="#F5F5F5" points="18.6205007 14.2040195 18.7573574 13.7877469 18.9683449 13.8504729"></polygon>
                                <polygon id="Fill-207" fill="#F5F5F5" points="20.3061196 13.6560223 20.2091794 13.9297357 20.3517385 13.9753547"></polygon>
                                <polygon id="Fill-209" fill="#F5F5F5" points="20.3061196 13.6560223 20.3973574 13.9297357 20.249096 13.9753547"></polygon>
                                <polygon id="Fill-211" fill="#F5F5F5" points="20.5769819 13.8567455 20.2918637 13.8567455 20.2918637 13.9993046"></polygon>
                                <polygon id="Fill-213" fill="#F5F5F5" points="20.5769819 13.8567455 20.343185 14.0278164 20.2576495 13.9080668"></polygon>
                                <polygon id="Fill-215" fill="#F5F5F5" points="20.0238526 13.8567455 20.2576495 14.0278164 20.3488873 13.9080668"></polygon>
                                <polygon id="Fill-217" fill="#F5F5F5" points="20.0238526 13.8567455 20.3203755 13.8567455 20.3203755 13.9993046"></polygon>
                                <polygon id="Fill-219" fill="#F5F5F5" points="20.4697775 14.1817803 20.3899444 13.9023644 20.2473853 13.9536857"></polygon>
                                <polygon id="Fill-221" fill="#F5F5F5" points="20.4697775 14.1817803 20.2359805 14.0107093 20.3272184 13.8909597"></polygon>
                                <polygon id="Fill-223" fill="#F5F5F5" points="20.1304868 14.1817803 20.3642837 14.0107093 20.2844506 13.8909597"></polygon>
                                <polygon id="Fill-225" fill="#F5F5F5" points="20.1304868 14.1817803 20.2217246 13.9023644 20.352879 13.9536857"></polygon>
                                <polygon id="Fill-227" fill="#F5F5F5" points="19.2945202 14.3882058 19.1918776 14.7360501 19.3572462 14.7930737"></polygon>
                                <polygon id="Fill-229" fill="#F5F5F5" points="19.2945202 14.3882058 19.4085675 14.7360501 19.2431989 14.7930737"></polygon>
                                <polygon id="Fill-231" fill="#F5F5F5" points="19.6423644 14.6448122 19.2831154 14.6448122 19.2831154 14.8215855"></polygon>
                                <polygon id="Fill-233" fill="#F5F5F5" points="19.6423644 14.6448122 19.3572462 14.8615021 19.2431989 14.7075382"></polygon>
                                <polygon id="Fill-235" fill="#F5F5F5" points="18.9512378 14.6448122 19.2477608 14.8615021 19.3561057 14.7075382"></polygon>
                                <polygon id="Fill-237" fill="#F5F5F5" points="18.9512378 14.6448122 19.3161892 14.6448122 19.3161892 14.8215855"></polygon>
                                <polygon id="Fill-239" fill="#F5F5F5" points="19.5123505 15.0508206 19.4040056 14.7029764 19.2272323 14.76"></polygon>
                                <polygon id="Fill-241" fill="#F5F5F5" points="19.5123505 15.0508206 19.2158275 14.8341307 19.3241725 14.6915716"></polygon>
                                <polygon id="Fill-243" fill="#F5F5F5" points="19.0829624 15.0508206 19.3794854 14.8341307 19.2711405 14.6915716"></polygon>
                                <polygon id="Fill-245" fill="#F5F5F5" points="19.0829624 15.0508206 19.1913074 14.7029764 19.3680807 14.76"></polygon>
                                <polygon id="Fill-247" fill="#F5F5F5" points="16.8299583 16.535146 16.715911 16.8829903 16.8869819 16.9400139"></polygon>
                                <polygon id="Fill-249" fill="#F5F5F5" points="16.8299583 16.535146 16.9383032 16.8829903 16.7615299 16.9400139"></polygon>
                                <polygon id="Fill-251" fill="#F5F5F5" points="17.1778025 16.7928929 16.8128512 16.7928929 16.8128512 16.9753686"></polygon>
                                <polygon id="Fill-253" fill="#F5F5F5" points="17.1778025 16.7928929 16.8755772 17.0038804 16.7729346 16.8556189"></polygon>
                                <polygon id="Fill-255" fill="#F5F5F5" points="16.4861057 16.7928929 16.7769263 17.0038804 16.8795688 16.8556189"></polygon>
                                <polygon id="Fill-257" fill="#F5F5F5" points="16.4861057 16.7928929 16.851057 16.7928929 16.851057 16.9753686"></polygon>
                                <polygon id="Fill-259" fill="#F5F5F5" points="17.0375243 17.2000417 16.9348818 16.8521975 16.7524061 16.9035188"></polygon>
                                <polygon id="Fill-261" fill="#F5F5F5" points="17.0375243 17.2000417 16.7410014 16.9833519 16.8493463 16.8350904"></polygon>
                                <polygon id="Fill-263" fill="#F5F5F5" points="16.6161196 17.2000417 16.9126426 16.9833519 16.8042976 16.8350904"></polygon>
                                <polygon id="Fill-265" fill="#F5F5F5" points="16.6161196 17.2000417 16.7244645 16.8521975 16.9012378 16.9035188"></polygon>
                                <polygon id="Fill-267" fill="#F5F5F5" points="16.8128512 17.6459666 16.7273157 17.9196801 16.8641725 17.965299"></polygon>
                                <polygon id="Fill-269" fill="#F5F5F5" points="16.8128512 17.6459666 16.904089 17.9196801 16.7615299 17.965299"></polygon>
                                <polygon id="Fill-271" fill="#F5F5F5" points="17.0911266 17.8466898 16.8060083 17.8466898 16.8060083 17.9949513"></polygon>
                                <polygon id="Fill-273" fill="#F5F5F5" points="17.0911266 17.8466898 16.8459249 18.0177608 16.7603894 17.8980111"></polygon>
                                <polygon id="Fill-275" fill="#F5F5F5" points="16.5391377 17.8466898 16.7729346 18.0177608 16.8584701 17.8980111"></polygon>
                                <polygon id="Fill-277" fill="#F5F5F5" points="16.5391377 17.8466898 16.8299583 17.8466898 16.8299583 17.9949513"></polygon>
                                <polygon id="Fill-279" fill="#F5F5F5" points="16.9844924 18.1688734 16.8932545 17.8951599 16.7506954 17.9350765"></polygon>
                                <polygon id="Fill-281" fill="#F5F5F5" points="16.9844924 18.1688734 16.744993 18.0035049 16.8362309 17.8837552"></polygon>
                                <polygon id="Fill-283" fill="#F5F5F5" points="16.6452017 18.1688734 16.8789986 18.0035049 16.7877608 17.8837552"></polygon>
                                <polygon id="Fill-285" fill="#F5F5F5" points="16.6452017 18.1688734 16.7364395 17.8951599 16.8675939 17.9350765"></polygon>
                                <polygon id="Fill-287" fill="#F5F5F5" points="17.851822 15.8001113 17.7548818 16.0795271 17.8917385 16.125146"></polygon>
                                <polygon id="Fill-289" fill="#F5F5F5" points="17.851822 15.8001113 17.9316551 16.0795271 17.8005007 16.125146"></polygon>
                                <polygon id="Fill-291" fill="#F5F5F5" points="18.1261057 16.0031154 17.8295828 16.0031154 17.8295828 16.1513769"></polygon>
                                <polygon id="Fill-293" fill="#F5F5F5" points="18.1261057 16.0031154 17.8866064 16.1798887 17.8010709 16.0601391"></polygon>
                                <polygon id="Fill-295" fill="#F5F5F5" points="17.5695549 16.0031154 17.8090542 16.1798887 17.8888873 16.0601391"></polygon>
                                <polygon id="Fill-297" fill="#F5F5F5" points="17.5695549 16.0031154 17.8660779 16.0031154 17.8660779 16.1513769"></polygon>
                                <polygon id="Fill-299" fill="#F5F5F5" points="18.0194715 16.3304312 17.9225313 16.0567177 17.7913769 16.0966342"></polygon>
                                <polygon id="Fill-301" fill="#F5F5F5" points="18.0194715 16.3304312 17.7856745 16.1593602 17.8769124 16.0396106"></polygon>
                                <polygon id="Fill-303" fill="#F5F5F5" points="17.6761892 16.3304312 17.9099861 16.1593602 17.8244506 16.0396106"></polygon>
                                <polygon id="Fill-305" fill="#F5F5F5" points="17.6761892 16.3304312 17.7731293 16.0567177 17.9042837 16.0966342"></polygon>
                                <polygon id="Fill-307" fill="#F5F5F5" points="18.6706815 15.2139082 18.5566342 15.5617524 18.7277051 15.6187761"></polygon>
                                <polygon id="Fill-309" fill="#F5F5F5" points="18.6706815 15.2139082 18.7847288 15.5617524 18.6022531 15.6187761"></polygon>
                                <polygon id="Fill-311" fill="#F5F5F5" points="19.0139638 15.4670932 18.6490125 15.4670932 18.6490125 15.6495688"></polygon>
                                <polygon id="Fill-313" fill="#F5F5F5" points="19.0139638 15.4670932 18.7288456 15.683783 18.6205007 15.5298192"></polygon>
                                <polygon id="Fill-315" fill="#F5F5F5" points="18.3234075 15.4670932 18.6199305 15.683783 18.7282754 15.5298192"></polygon>
                                <polygon id="Fill-317" fill="#F5F5F5" points="18.3234075 15.4670932 18.6883588 15.4670932 18.6883588 15.6495688"></polygon>
                                <polygon id="Fill-319" fill="#F5F5F5" points="18.8822392 15.8696801 18.7738943 15.5275382 18.597121 15.5845619"></polygon>
                                <polygon id="Fill-321" fill="#F5F5F5" points="18.8822392 15.8696801 18.5914186 15.6586926 18.6940612 15.5104312"></polygon>
                                <polygon id="Fill-323" fill="#F5F5F5" points="18.4528512 15.8696801 18.7550765 15.6586926 18.6410292 15.5104312"></polygon>
                                <polygon id="Fill-325" fill="#F5F5F5" points="18.4528512 15.8696801 18.5726008 15.5275382 18.7379694 15.5845619"></polygon>
                                <polygon id="Fill-327" fill="#F5F5F5" points="16.7797775 15.6056606 16.6999444 15.8850765 16.8310987 15.9306954"></polygon>
                                <polygon id="Fill-329" fill="#F5F5F5" points="16.7797775 15.6056606 16.8767177 15.8850765 16.7341586 15.9306954"></polygon>
                                <polygon id="Fill-331" fill="#F5F5F5" points="17.0705981 15.8109458 16.7740751 15.8109458 16.7740751 15.9535049"></polygon>
                                <polygon id="Fill-333" fill="#F5F5F5" points="17.0705981 15.8109458 16.8310987 15.9820167 16.7455633 15.8565647"></polygon>
                                <polygon id="Fill-335" fill="#F5F5F5" points="16.5094854 15.8109458 16.7432823 15.9820167 16.8288178 15.8565647"></polygon>
                                <polygon id="Fill-337" fill="#F5F5F5" points="16.5094854 15.8109458 16.8060083 15.8109458 16.8060083 15.9535049"></polygon>
                                <polygon id="Fill-339" fill="#F5F5F5" points="16.9639638 16.1399722 16.8670236 15.854854 16.7301669 15.9004729"></polygon>
                                <polygon id="Fill-341" fill="#F5F5F5" points="16.9639638 16.1399722 16.7244645 15.9631989 16.8042976 15.8491516"></polygon>
                                <polygon id="Fill-343" fill="#F5F5F5" points="16.6161196 16.1399722 16.8499166 15.9631989 16.7643811 15.8491516"></polygon>
                                <polygon id="Fill-345" fill="#F5F5F5" points="16.6161196 16.1399722 16.7073574 15.854854 16.8499166 15.9004729"></polygon>
                                <polygon id="Fill-347" fill="#F5F5F5" points="7.79285118 10.3047427 7.67880389 10.6525869 7.85557719 10.7039082"></polygon>
                                <polygon id="Fill-349" fill="#F5F5F5" points="7.79285118 10.3047427 7.90119611 10.6525869 7.73012517 10.7039082"></polygon>
                                <polygon id="Fill-351" fill="#F5F5F5" points="8.14126565 10.5567872 7.77631433 10.5567872 7.77631433 10.7392629"></polygon>
                                <polygon id="Fill-353" fill="#F5F5F5" points="8.14126565 10.5567872 7.85044506 10.7734771 7.74210014 10.6252156"></polygon>
                                <polygon id="Fill-355" fill="#F5F5F5" points="7.44044506 10.5567872 7.74267038 10.7734771 7.84531293 10.6252156"></polygon>
                                <polygon id="Fill-357" fill="#F5F5F5" points="7.44044506 10.5567872 7.80539638 10.5567872 7.80539638 10.7392629"></polygon>
                                <polygon id="Fill-359" fill="#F5F5F5" points="8.00668985 10.9650765 7.89834492 10.6172323 7.72157163 10.6742559"></polygon>
                                <polygon id="Fill-361" fill="#F5F5F5" points="8.00668985 10.9650765 7.70446453 10.7483866 7.81280946 10.6001252"></polygon>
                                <polygon id="Fill-363" fill="#F5F5F5" points="7.57273992 10.9650765 7.87496523 10.7483866 7.77232267 10.6001252"></polygon>
                                <polygon id="Fill-365" fill="#F5F5F5" points="7.57273992 10.9650765 7.69248957 10.6172323 7.85785814 10.6742559"></polygon>
                                <polygon id="Fill-367" fill="#F5F5F5" points="14.4822949 9.43969402 14.4024618 9.71910987 14.5336161 9.76472879"></polygon>
                                <polygon id="Fill-369" fill="#F5F5F5" points="14.4822949 9.43969402 14.579235 9.71910987 14.4366759 9.76472879"></polygon>
                                <polygon id="Fill-371" fill="#F5F5F5" points="14.7668428 9.64554937 14.4760223 9.64554937 14.4760223 9.78810848"></polygon>
                                <polygon id="Fill-373" fill="#F5F5F5" points="14.7668428 9.64554937 14.5273435 9.81662031 14.4475104 9.70257302"></polygon>
                                <polygon id="Fill-375" fill="#F5F5F5" points="14.2080111 9.64554937 14.4418081 9.81662031 14.5273435 9.70257302"></polygon>
                                <polygon id="Fill-377" fill="#F5F5F5" points="14.2080111 9.64554937 14.5045341 9.64554937 14.5045341 9.78810848"></polygon>
                                <polygon id="Fill-379" fill="#F5F5F5" points="14.6619193 9.97400556 14.5649791 9.69458971 14.4281224 9.74020862"></polygon>
                                <polygon id="Fill-381" fill="#F5F5F5" points="14.6619193 9.97400556 14.4167177 9.79723227 14.5079555 9.67748261"></polygon>
                                <polygon id="Fill-383" fill="#F5F5F5" points="14.3146453 9.97400556 14.5541446 9.79723227 14.4629068 9.67748261"></polygon>
                                <polygon id="Fill-385" fill="#F5F5F5" points="14.3146453 9.97400556 14.4058832 9.69458971 14.5427399 9.74020862"></polygon>
                                <polygon id="Fill-387" fill="#F5F5F5" points="11.6966898 14.4138665 11.5541307 14.8301391 11.7708206 14.8985675"></polygon>
                                <polygon id="Fill-389" fill="#F5F5F5" points="11.6966898 14.4138665 11.8335466 14.8301391 11.6282615 14.8985675"></polygon>
                                <polygon id="Fill-391" fill="#F5F5F5" points="12.1135327 14.7155216 11.680153 14.7155216 11.680153 14.9379138"></polygon>
                                <polygon id="Fill-393" fill="#F5F5F5" points="12.1135327 14.7155216 11.7599861 14.9778303 11.6345341 14.7953547"></polygon>
                                <polygon id="Fill-395" fill="#F5F5F5" points="11.2775661 14.7155216 11.6425174 14.9778303 11.762267 14.7953547"></polygon>
                                <polygon id="Fill-397" fill="#F5F5F5" points="11.2775661 14.7155216 11.7166481 14.7155216 11.7166481 14.9379138"></polygon>
                                <polygon id="Fill-399" fill="#F5F5F5" points="11.9544367 15.2099166 11.8232823 14.7936439 11.6122949 14.8620723"></polygon>
                                <polygon id="Fill-401" fill="#F5F5F5" points="11.9544367 15.2099166 11.6008901 14.9476078 11.7263421 14.7765369"></polygon>
                                <polygon id="Fill-403" fill="#F5F5F5" points="11.4395132 15.2099166 11.7930598 14.9476078 11.6619054 14.7765369"></polygon>
                                <polygon id="Fill-405" fill="#F5F5F5" points="11.4395132 15.2099166 11.5706676 14.7936439 11.7873574 14.8620723"></polygon>
                                <polygon id="Fill-407" fill="#F5F5F5" points="12.8862031 12.4516829 12.7721558 12.7995271 12.9489291 12.8565508"></polygon>
                                <polygon id="Fill-409" fill="#F5F5F5" points="12.8862031 12.4516829 13.0002503 12.7995271 12.8234771 12.8565508"></polygon>
                                <polygon id="Fill-411" fill="#F5F5F5" points="13.2294854 12.7048679 12.8588317 12.7048679 12.8588317 12.8816412"></polygon>
                                <polygon id="Fill-413" fill="#F5F5F5" points="13.2294854 12.7048679 12.9329624 12.9215577 12.8246175 12.7732962"></polygon>
                                <polygon id="Fill-415" fill="#F5F5F5" points="12.5383588 12.7048679 12.8348818 12.9215577 12.9375243 12.7732962"></polygon>
                                <polygon id="Fill-417" fill="#F5F5F5" points="12.5383588 12.7048679 12.9033102 12.7048679 12.9033102 12.8816412"></polygon>
                                <polygon id="Fill-419" fill="#F5F5F5" points="13.0977608 13.1137274 12.9837135 12.7658832 12.8126426 12.8229068"></polygon>
                                <polygon id="Fill-421" fill="#F5F5F5" points="13.0977608 13.1137274 12.8069402 12.8970376 12.9095828 12.7487761"></polygon>
                                <polygon id="Fill-423" fill="#F5F5F5" points="12.6649513 13.1137274 12.9614743 12.8970376 12.8588317 12.7487761"></polygon>
                                <polygon id="Fill-425" fill="#F5F5F5" points="12.6649513 13.1137274 12.7789986 12.7658832 12.9557719 12.8229068"></polygon>
                                <polygon id="Fill-427" fill="#F5F5F5" points="11.6966898 11.5341725 11.5826426 11.8763143 11.7594159 11.933338"></polygon>
                                <polygon id="Fill-429" fill="#F5F5F5" points="11.6966898 11.5341725 11.8050348 11.8763143 11.6396662 11.933338"></polygon>
                                <polygon id="Fill-431" fill="#F5F5F5" points="12.0439638 11.783936 11.6790125 11.783936 11.6790125 11.9664117"></polygon>
                                <polygon id="Fill-433" fill="#F5F5F5" points="12.0439638 11.783936 11.7474409 11.9949235 11.639096 11.8523644"></polygon>
                                <polygon id="Fill-435" fill="#F5F5F5" points="11.3511266 11.783936 11.6476495 11.9949235 11.7502921 11.8523644"></polygon>
                                <polygon id="Fill-437" fill="#F5F5F5" points="11.3511266 11.783936 11.7160779 11.783936 11.7160779 11.9664117"></polygon>
                                <polygon id="Fill-439" fill="#F5F5F5" points="11.9122392 12.1922253 11.7981919 11.8443811 11.627121 11.8957024"></polygon>
                                <polygon id="Fill-441" fill="#F5F5F5" points="11.9122392 12.1922253 11.6157163 11.9755355 11.7240612 11.827274"></polygon>
                                <polygon id="Fill-443" fill="#F5F5F5" points="11.4828512 12.1922253 11.7793741 11.9755355 11.6710292 11.827274"></polygon>
                                <polygon id="Fill-445" fill="#F5F5F5" points="11.4828512 12.1922253 11.5968985 11.8443811 11.7679694 11.8957024"></polygon>
                                <polygon id="Fill-447" fill="#F5F5F5" points="10.66 12.5229624 10.5687622 12.8023783 10.7170236 12.8479972"></polygon>
                                <polygon id="Fill-449" fill="#F5F5F5" points="10.66 12.5229624 10.7569402 12.8023783 10.6143811 12.8479972"></polygon>
                                <polygon id="Fill-451" fill="#F5F5F5" points="10.9428373 12.7253964 10.6520167 12.7253964 10.6520167 12.8679555"></polygon>
                                <polygon id="Fill-453" fill="#F5F5F5" points="10.9428373 12.7253964 10.703338 12.8964673 10.6178025 12.7767177"></polygon>
                                <polygon id="Fill-455" fill="#F5F5F5" points="10.3919889 12.7253964 10.6257858 12.8964673 10.7056189 12.7767177"></polygon>
                                <polygon id="Fill-457" fill="#F5F5F5" points="10.3919889 12.7253964 10.6771071 12.7253964 10.6771071 12.8679555"></polygon>
                                <polygon id="Fill-459" fill="#F5F5F5" points="10.8362031 13.0527121 10.7506676 12.7789986 10.6081085 12.8189152"></polygon>
                                <polygon id="Fill-461" fill="#F5F5F5" points="10.8362031 13.0527121 10.6024061 12.8816412 10.6936439 12.7618915"></polygon>
                                <polygon id="Fill-463" fill="#F5F5F5" points="10.4963421 13.0527121 10.7301391 12.8816412 10.6446036 12.7618915"></polygon>
                                <polygon id="Fill-465" fill="#F5F5F5" points="10.4963421 13.0527121 10.58758 12.7789986 10.7244367 12.8189152"></polygon>
                                <polygon id="Fill-467" fill="#F5F5F5" points="11.1829068 13.3184423 11.1201808 13.518025 11.217121 13.5465369"></polygon>
                                <polygon id="Fill-469" fill="#F5F5F5" points="11.1829068 13.3184423 11.2456328 13.518025 11.1486926 13.5465369"></polygon>
                                <polygon id="Fill-471" fill="#F5F5F5" points="11.3802086 13.4627121 11.1749235 13.4627121 11.1749235 13.5653547"></polygon>
                                <polygon id="Fill-473" fill="#F5F5F5" points="11.3802086 13.4627121 11.2148401 13.5881641 11.1578164 13.5026287"></polygon>
                                <polygon id="Fill-475" fill="#F5F5F5" points="10.9804729 13.4627121 11.1572462 13.5881641 11.2142698 13.5026287"></polygon>
                                <polygon id="Fill-477" fill="#F5F5F5" points="10.9804729 13.4627121 11.1914604 13.4627121 11.1914604 13.5653547"></polygon>
                                <polygon id="Fill-479" fill="#F5F5F5" points="11.2986648 13.6999305 11.2359388 13.5003477 11.1389986 13.5288595"></polygon>
                                <polygon id="Fill-481" fill="#F5F5F5" points="11.2986648 13.6999305 11.1332962 13.5744784 11.2017246 13.488943"></polygon>
                                <polygon id="Fill-483" fill="#F5F5F5" points="11.058025 13.6999305 11.2233936 13.5744784 11.16637 13.488943"></polygon>
                                <polygon id="Fill-485" fill="#F5F5F5" points="11.058025 13.6999305 11.1264534 13.5003477 11.2233936 13.5288595"></polygon>
                                <polygon id="Fill-487" fill="#F5F5F5" points="14.7668428 16.7843394 14.6527955 17.137886 14.8295688 17.1949096"></polygon>
                                <polygon id="Fill-489" fill="#F5F5F5" points="14.7668428 16.7843394 14.8808901 17.137886 14.7041168 17.1949096"></polygon>
                                <polygon id="Fill-491" fill="#F5F5F5" points="15.1101252 17.0380946 14.7508762 17.0380946 14.7508762 17.2262726"></polygon>
                                <polygon id="Fill-493" fill="#F5F5F5" points="15.1101252 17.0380946 14.8193046 17.2547844 14.7109597 17.1065229"></polygon>
                                <polygon id="Fill-495" fill="#F5F5F5" points="14.4195688 17.0380946 14.7103894 17.2547844 14.8244367 17.1065229"></polygon>
                                <polygon id="Fill-497" fill="#F5F5F5" points="14.4195688 17.0380946 14.7845202 17.0380946 14.7845202 17.2262726"></polygon>
                                <polygon id="Fill-499" fill="#F5F5F5" points="14.9801113 17.4509458 14.866064 17.1031015 14.694993 17.1601252"></polygon>
                                <polygon id="Fill-501" fill="#F5F5F5" points="14.9801113 17.4509458 14.6835883 17.2342559 14.7919332 17.0859944"></polygon>
                                <polygon id="Fill-503" fill="#F5F5F5" points="14.5512935 17.4509458 14.842114 17.2342559 14.7394715 17.0859944"></polygon>
                                <polygon id="Fill-505" fill="#F5F5F5" points="14.5512935 17.4509458 14.6596384 17.1031015 14.8364117 17.1601252"></polygon>
                                <polygon id="Fill-507" fill="#F5F5F5" points="15.6421558 15.9552156 15.5509179 16.2346314 15.6877747 16.2802503"></polygon>
                                <polygon id="Fill-509" fill="#F5F5F5" points="15.6421558 15.9552156 15.7333936 16.2346314 15.5908345 16.2802503"></polygon>
                                <polygon id="Fill-511" fill="#F5F5F5" points="15.9204312 16.1605007 15.6296106 16.1605007 15.6296106 16.2973574"></polygon>
                                <polygon id="Fill-513" fill="#F5F5F5" points="15.9204312 16.1605007 15.6866342 16.3258693 15.5953964 16.211822"></polygon>
                                <polygon id="Fill-515" fill="#F5F5F5" points="15.3615994 16.1605007 15.6010987 16.3258693 15.6866342 16.211822"></polygon>
                                <polygon id="Fill-517" fill="#F5F5F5" points="15.3615994 16.1605007 15.6581224 16.1605007 15.6581224 16.2973574"></polygon>
                                <polygon id="Fill-519" fill="#F5F5F5" points="15.8143672 16.4832545 15.7231293 16.2038387 15.591975 16.2551599"></polygon>
                                <polygon id="Fill-521" fill="#F5F5F5" points="15.8143672 16.4832545 15.5805702 16.3121836 15.6661057 16.1924339"></polygon>
                                <polygon id="Fill-523" fill="#F5F5F5" points="15.4745063 16.4832545 15.7083032 16.3121836 15.6170654 16.1924339"></polygon>
                                <polygon id="Fill-525" fill="#F5F5F5" points="15.4745063 16.4832545 15.5657441 16.2038387 15.7026008 16.2551599"></polygon>
                                <polygon id="Fill-527" fill="#F5F5F5" points="13.9588178 15.7037413 13.86758 15.9831572 14.0044367 16.0287761"></polygon>
                                <polygon id="Fill-529" fill="#F5F5F5" points="13.9588178 15.7037413 14.0500556 15.9831572 13.9131989 16.0287761"></polygon>
                                <polygon id="Fill-531" fill="#F5F5F5" points="14.2302503 15.9050348 13.9394298 15.9050348 13.9394298 16.0532962"></polygon>
                                <polygon id="Fill-533" fill="#F5F5F5" points="14.2302503 15.9050348 13.9964534 16.0818081 13.9109179 15.9563561"></polygon>
                                <polygon id="Fill-535" fill="#F5F5F5" points="13.6759805 15.9050348 13.9097775 16.0818081 13.9953129 15.9563561"></polygon>
                                <polygon id="Fill-537" fill="#F5F5F5" points="13.6759805 15.9050348 13.9725035 15.9050348 13.9725035 16.0532962"></polygon>
                                <polygon id="Fill-539" fill="#F5F5F5" points="14.130459 16.2340612 14.0392211 15.9546453 13.896662 16.0059666"></polygon>
                                <polygon id="Fill-541" fill="#F5F5F5" points="14.130459 16.2340612 13.8852573 16.0629903 13.9764951 15.9432406"></polygon>
                                <polygon id="Fill-543" fill="#F5F5F5" points="13.7826147 16.2340612 14.022114 16.0629903 13.9308762 15.9432406"></polygon>
                                <polygon id="Fill-545" fill="#F5F5F5" points="13.7826147 16.2340612 13.8738526 15.9546453 14.022114 16.0059666"></polygon>
                                <polygon id="Fill-547" fill="#F5F5F5" points="7.58129346 15.2498331 7.45013908 15.6661057 7.6554242 15.7345341"></polygon>
                                <polygon id="Fill-549" fill="#F5F5F5" points="7.58129346 15.2498331 7.71815021 15.6661057 7.51286509 15.7345341"></polygon>
                                <polygon id="Fill-551" fill="#F5F5F5" points="8.00668985 15.5571905 7.56190542 15.5571905 7.56190542 15.7738804"></polygon>
                                <polygon id="Fill-553" fill="#F5F5F5" points="8.00668985 15.5571905 7.64173853 15.8137969 7.51628651 15.6370236"></polygon>
                                <polygon id="Fill-555" fill="#F5F5F5" points="7.16045897 15.5571905 7.52541029 15.8137969 7.64515994 15.6370236"></polygon>
                                <polygon id="Fill-557" fill="#F5F5F5" points="7.16045897 15.5571905 7.59954103 15.5571905 7.59954103 15.7738804"></polygon>
                                <polygon id="Fill-559" fill="#F5F5F5" points="7.83904033 16.0453129 7.70788595 15.6290403 7.50260083 15.6974687"></polygon>
                                <polygon id="Fill-561" fill="#F5F5F5" points="7.83904033 16.0453129 7.48549374 15.7887065 7.61094576 15.6119332"></polygon>
                                <polygon id="Fill-563" fill="#F5F5F5" points="7.32411683 16.0453129 7.67766342 15.7887065 7.54650904 15.6119332"></polygon>
                                <polygon id="Fill-565" fill="#F5F5F5" points="7.32411683 16.0453129 7.46667594 15.6290403 7.67196106 15.6974687"></polygon>
                                <polygon id="Fill-567" fill="#F5F5F5" points="11.6966898 18.1204033 11.6510709 18.2629624 11.7137969 18.2857719"></polygon>
                                <polygon id="Fill-569" fill="#F5F5F5" points="11.6966898 18.1204033 11.7423088 18.2629624 11.6795828 18.2857719"></polygon>
                                <polygon id="Fill-571" fill="#F5F5F5" points="11.839249 18.2258971 11.6852851 18.2258971 11.6852851 18.2943255"></polygon>
                                <polygon id="Fill-573" fill="#F5F5F5" points="11.839249 18.2258971 11.7137969 18.3114325 11.6795828 18.2544089"></polygon>
                                <polygon id="Fill-575" fill="#F5F5F5" points="11.5558414 18.2258971 11.6812935 18.3114325 11.7155076 18.2544089"></polygon>
                                <polygon id="Fill-577" fill="#F5F5F5" points="11.5558414 18.2258971 11.6984006 18.2258971 11.6984006 18.2943255"></polygon>
                                <polygon id="Fill-579" fill="#F5F5F5" points="11.7776634 18.387274 11.7434492 18.2504172 11.6693185 18.2732267"></polygon>
                                <polygon id="Fill-581" fill="#F5F5F5" points="11.7776634 18.387274 11.6636161 18.3017385 11.7035327 18.2447149"></polygon>
                                <polygon id="Fill-583" fill="#F5F5F5" points="11.6111544 18.387274 11.7252017 18.3017385 11.6909875 18.2447149"></polygon>
                                <polygon id="Fill-585" fill="#F5F5F5" points="11.6111544 18.387274 11.6567733 18.2504172 11.7252017 18.2732267"></polygon>
                            </g>
                        </g>
                    </g>
                </g>
            </g>
        </g>
    </g>
</svg>