<?xml version="1.0" encoding="UTF-8"?>
<svg width="158px" height="63px" viewBox="0 0 158 63" version="1.1" xmlns="http://www.w3.org/2000/svg" xmlns:xlink="http://www.w3.org/1999/xlink">
    <title>F920F050-9192-48A8-AC08-A7E1A47E84D0</title>
    <defs>
        <polygon id="path-1" points="0 0 5 0 5 7 0 7"></polygon>
    </defs>
    <g id="Page-1" stroke="none" stroke-width="1" fill="none" fill-rule="evenodd">
        <g id="Desktop-HD-Copy-8" transform="translate(-342.000000, -1954.000000)">
            <g id="pastor-cup" transform="translate(342.000000, 1954.000000)">
                <path d="M80.4051172,12.5136307 L77.1076758,12.5136307 C77.0142879,12.5136307 76.9786307,12.4497256 76.9973083,12.3235971 L79.4084138,6.32492477 C79.444071,6.25261108 79.48652,6.2172951 79.532365,6.2172951 C79.5782099,6.2172951 79.6104712,6.25261108 79.6291488,6.32492477 L80.5715175,12.3235971 C80.5715175,12.4497256 80.5154847,12.5136307 80.4051172,12.5136307 L80.4051172,12.5136307 Z M83.6193585,0.326252434 C83.5633258,0.109311383 83.4257909,0.00168171358 83.2033579,0.00168171358 L77.4948111,0.00168171358 C77.4744355,0.00168171358 77.4557579,0.00168171358 77.4370804,0.00336342716 C77.4251946,0.00168171358 77.4133089,0 77.3997252,0 L76.3673646,0 L75.3367019,0 C75.1872813,0 75.0938934,0.158081076 75.1686037,0.284209595 L75.684784,1.16038237 L76.2009643,2.03487343 C76.2094541,2.05000885 76.2213399,2.06346256 76.2332256,2.07523455 L69.0440563,18.5392105 C68.9319908,18.8469641 69.0338685,19 69.3479914,19 L73.9206019,19 C74.1786921,19 74.3450923,18.88228 74.4198026,18.6485219 L75.2789712,16.5581519 C75.333306,16.4673394 75.3978285,16.4219331 75.4725388,16.4219331 L81.0978855,16.4219331 C81.1895755,16.4219331 81.2456082,16.4673394 81.2642858,16.5581519 L81.5682209,18.6485219 C81.5868985,18.88228 81.7261313,19 81.9842215,19 L86.5839994,19 C86.8624651,19 87,18.88228 87,18.6485219 L87,18.5392105 L83.6193585,0.326252434 Z" id="Fill-1" fill="#FFFFFF"></path>
                <path d="M82.4051172,34.5136307 L79.1076758,34.5136307 C79.0142879,34.5136307 78.9786307,34.4497256 78.9973083,34.3235971 L81.4067158,28.3249248 C81.444071,28.2526111 81.48652,28.2172951 81.532365,28.2172951 C81.5782099,28.2172951 81.6104712,28.2526111 81.6291488,28.3249248 L82.5715175,34.3235971 C82.5715175,34.4497256 82.5154847,34.5136307 82.4051172,34.5136307 L82.4051172,34.5136307 Z M85.6193585,22.3262524 C85.5650237,22.1093114 85.4257909,22.0016817 85.2033579,22.0016817 L79.4948111,22.0016817 C79.4744355,22.0016817 79.4557579,22.0016817 79.4370804,22.0033634 C79.4251946,22.0016817 79.4133089,22 79.3997252,22 L78.3673646,22 L77.3367019,22 C77.1872813,22 77.0938934,22.1580811 77.1686037,22.2842096 L77.684784,23.1603824 L78.2009643,24.0348734 C78.2094541,24.0500089 78.2213399,24.0634626 78.2332256,24.0752346 L71.0440563,40.5392105 C70.9319908,40.8469641 71.0338685,41 71.3479914,41 L75.9206019,41 C76.1786921,41 76.3450923,40.88228 76.4198026,40.6485219 L77.2789712,38.5581519 C77.333306,38.4673394 77.3978285,38.4219331 77.4725388,38.4219331 L83.0978855,38.4219331 C83.1895755,38.4219331 83.2456082,38.4673394 83.2642858,38.5581519 L83.5682209,40.6485219 C83.5868985,40.88228 83.7261313,41 83.9842215,41 L88.5839994,41 C88.8624651,41 89,40.88228 89,40.6485219 L89,40.5392105 L85.6193585,22.3262524 Z" id="Fill-3" fill="#FFFFFF"></path>
                <path d="M100.328303,50.6682594 C99.8667692,51.0751261 99.2902689,51.2785594 98.6004679,51.2785594 L96.3977699,51.2785594 C96.3061297,51.2785594 96.2611427,51.2247589 96.2611427,51.1154765 L96.6976834,47.5326962 C96.7326733,47.4250951 96.7959884,47.3696133 96.8876286,47.3696133 L99.0636676,47.3696133 C99.6618284,47.3696133 100.138358,47.5242899 100.491589,47.8319618 C100.84482,48.1396337 101.021436,48.5565879 101.021436,49.0811433 C101.021436,49.7317936 100.791502,50.2613928 100.328303,50.6682594 M104.503765,44.4257145 C103.50572,43.4757986 102.146112,43 100.423275,43 L93.2536769,43 C93.2486784,43 93.245346,43 93.2403474,43 L92.2273063,43 L91.2142652,43 C91.0676409,43 90.9760006,43.1580391 91.0493128,43.2841341 L91.5558334,44.1583931 L92.0606877,45.032652 L90.0062804,61.5931334 C89.9879523,61.7192284 90.0096127,61.8201044 90.0729278,61.8923989 C90.1362429,61.9646934 90.2328817,62 90.3595118,62 L94.5216445,62 C94.6482746,62 94.7515782,61.9646934 94.8332213,61.8923989 C94.9148644,61.8201044 94.96485,61.7192284 94.983178,61.5931334 L95.717966,55.5136714 C95.7546221,55.404389 95.8179372,55.3505884 95.9079113,55.3505884 L98.682111,55.3505884 C99.9700728,55.3505884 101.134737,55.0967171 102.177769,54.5906557 C103.220802,54.0845943 104.072223,53.3683745 104.735365,52.4470401 C105.396841,51.5240244 105.800058,50.4564198 105.945016,49.2425449 C105.981672,49.0256614 106,48.7095832 106,48.292629 C106,46.6651624 105.500144,45.3756305 104.503765,44.4257145" id="Fill-5" fill="#FFFFFF"></path>
                <path d="M68.3283028,29.6682594 C67.8651031,30.0751261 67.2902689,30.2785594 66.6004679,30.2785594 L64.3977699,30.2785594 C64.3061297,30.2785594 64.2611427,30.2247589 64.2611427,30.1154765 L64.6976834,26.5326962 C64.7326733,26.4250951 64.7959884,26.3696133 64.8876286,26.3696133 L67.0636676,26.3696133 C67.6618284,26.3696133 68.1383576,26.5242899 68.491589,26.8319618 C68.8448204,27.1396337 69.0214362,27.5565879 69.0214362,28.0811433 C69.0214362,28.7317936 68.7915025,29.2613928 68.3283028,29.6682594 M72.503765,23.4257145 C71.5057195,22.4757986 70.1461117,22 68.4232754,22 L61.2536769,22 C61.2486784,22 61.245346,22 61.2403474,22 L60.2273063,22 L59.2142652,22 C59.0676409,22 58.9760006,22.1580391 59.0493128,22.2841341 L59.5558334,23.1583931 L60.0623539,24.032652 L58.0062804,40.5931334 C57.9879523,40.7192284 58.0096127,40.8201044 58.0729278,40.8923989 C58.1362429,40.9646934 58.2328817,41 58.3595118,41 L62.5216445,41 C62.6482746,41 62.7515782,40.9646934 62.8332213,40.8923989 C62.9148644,40.8201044 62.96485,40.7192284 62.983178,40.5931334 L63.717966,34.5136714 C63.7546221,34.404389 63.8179372,34.3505884 63.9079113,34.3505884 L66.682111,34.3505884 C67.9700728,34.3505884 69.1347368,34.0967171 70.1777693,33.5906557 C71.2208017,33.0845943 72.0722228,32.3683745 72.7353648,31.4453588 C73.3968407,30.5240244 73.8000577,29.4564198 73.9450159,28.2425449 C73.981672,28.0256614 74,27.7095832 74,27.292629 C74,25.6651624 73.5001442,24.3756305 72.503765,23.4257145" id="Fill-7" fill="#FFFFFF"></path>
                <path d="M120.921661,22.1092727 C120.854975,22.0369846 120.763721,22 120.649653,22 L105.952478,22 C105.819107,22 105.708549,22.0369846 105.622559,22.1092727 C105.53657,22.1815608 105.483923,22.2807468 105.464619,22.4068306 L105.006594,25.990975 C104.98729,26.1170589 105.010104,26.2162449 105.078544,26.288533 C105.14523,26.3608211 105.245259,26.3978057 105.37863,26.3978057 L109.876404,26.3978057 C109.972923,26.3978057 110.020305,26.4516015 110.020305,26.5608742 L108.186449,40.5931694 C108.167145,40.7192532 108.191713,40.8184392 108.258399,40.8907273 C108.325085,40.9630154 108.425113,41 108.558484,41 L112.942191,41 C113.075563,41 113.18612,40.9630154 113.27211,40.8907273 C113.358099,40.8184392 113.410746,40.7192532 113.43005,40.5931694 L114.991899,28.4538135 C114.984879,28.4454079 114.979615,28.4386834 114.97435,28.4302778 L114.440864,27.5544151 L113.907379,26.6785525 C113.830164,26.5524686 113.926683,26.3944435 114.081113,26.3944435 L115.148084,26.3944435 L116.215055,26.3944435 C116.225584,26.3944435 116.236113,26.3961246 116.244888,26.3978057 L120.075805,26.3978057 C120.209177,26.3978057 120.31447,26.3608211 120.391685,26.288533 C120.467145,26.2162449 120.516282,26.1170589 120.535586,25.990975 L120.993611,22.4068306 C121.012915,22.2807468 120.988346,22.1815608 120.921661,22.1092727" id="Fill-9" fill="#FFFFFF"></path>
                <path d="M73.4081019,4.26160375 C73.3329708,4.33383432 73.2305192,4.3707895 73.1007472,4.3707895 L65.066837,4.3707895 C64.9729231,4.3707895 64.9080371,4.42454248 64.8704715,4.53372823 L64.5631168,7.02988242 C64.544334,7.13906816 64.5921447,7.19282115 64.7031339,7.19282115 L69.6976477,7.19282115 C69.8086369,7.19282115 69.8974283,7.22977632 69.9623143,7.3020069 C70.0272003,7.37423747 70.0511056,7.47334453 70.0323229,7.59932809 L69.584951,11.1285474 C69.5678758,11.2562108 69.520065,11.3553178 69.4466414,11.4275484 C69.3715103,11.499779 69.2690587,11.5350544 69.1392867,11.5350544 L64.1447729,11.5350544 C64.0337837,11.5350544 63.9774353,11.5904871 63.9774353,11.6996729 L63.1134271,18.5934931 C63.0946444,18.7194766 63.0434186,18.8202635 62.9597498,18.892494 C62.876081,18.9647246 62.7685069,19 62.6387349,19 L58.3699197,19 C58.2384402,19 58.1411112,18.9647246 58.0762252,18.892494 C58.0113392,18.8202635 57.9874338,18.7194766 58.0062166,18.5934931 L60.3233295,0.40650694 C60.3404048,0.280523384 60.3882155,0.18141632 60.4616391,0.109185748 C60.5367703,0.0369551764 60.6392218,0 60.7689938,0 L73.6591083,0 C73.771805,0 73.8588888,0.0369551764 73.9237748,0.109185748 C73.9886608,0.18141632 74.0125662,0.280523384 73.9937834,0.40650694 L73.5481191,3.96260278 C73.5293363,4.09026611 73.4832331,4.18937318 73.4081019,4.26160375" id="Fill-11" fill="#FFFFFF"></path>
                <path d="M94.8134934,4.53204845 L94.4815938,7.19282115 C94.4815938,7.30032712 94.5273147,7.3540801 94.6204498,7.3540801 L96.8065844,7.3540801 C97.5059442,7.3540801 98.0410476,7.20625939 98.4102013,6.90725842 C98.7793549,6.60825745 98.9639317,6.16983467 98.9639317,5.59031032 C98.9639317,5.19220228 98.8115288,4.88984175 98.5067231,4.68154893 C98.2036107,4.47325612 97.7548689,4.36910972 97.1655778,4.36910972 L95.0065371,4.36910972 C94.9150954,4.36910972 94.8507475,4.42454248 94.8134934,4.53204845 M98.2442515,13.0283795 C98.3560136,12.0154717 97.7921229,11.5081779 96.5559663,11.5081779 L94.0938132,11.5081779 C93.9837445,11.5081779 93.9278634,11.5619309 93.9278634,11.6711166 L93.56887,14.4662718 C93.56887,14.5754575 93.6145908,14.6292105 93.7060326,14.6292105 L96.1410918,14.6292105 C97.3958755,14.6292105 98.0969287,14.0950402 98.2442515,13.0283795 M101.371897,9.18672089 C101.371897,9.23207497 101.398991,9.27238971 101.454872,9.30934489 C102.672402,10.051808 103.28032,11.1823004 103.28032,12.702502 C103.28032,12.8839183 103.261693,13.1728406 103.224439,13.5709486 C102.985674,15.4338255 102.169472,16.8062063 100.775833,17.6830519 C99.3838863,18.5615772 97.653267,19 95.5890547,19 L88.3668519,19 C88.2364627,19 88.1399409,18.9630448 88.075593,18.8908143 C88.0112452,18.8185837 87.987538,18.7194766 88.0061651,18.5918133 L90.3040617,0.40650694 C90.3209954,0.280523384 90.3684096,0.17973654 90.4412243,0.107505968 C90.5157324,0.0352753956 90.6173343,0 90.7460301,0 L97.7193082,0 C99.8038409,0 101.371897,0.33763593 102.421784,1.01794713 C103.473363,1.69489877 104,2.81363275 104,4.36910972 C104,4.80417293 103.981373,5.1384493 103.944119,5.3736186 C103.722288,7.11051189 102.902699,8.35019008 101.481966,9.09265317 C101.407458,9.11113076 101.371897,9.14136681 101.371897,9.18672089" id="Fill-13" fill="#FFFFFF"></path>
                <path d="M110.68612,4.53204845 L110.305589,7.65308107 C110.305589,7.76226682 110.350455,7.8160198 110.441849,7.8160198 L112.884562,7.8160198 C113.501056,7.8160198 114.012862,7.63628326 114.419981,7.27345062 C114.8271,6.91229776 115.029828,6.44195915 115.029828,5.8624348 C115.029828,5.41057378 114.871966,5.04774114 114.554579,4.77561666 C114.238855,4.50517196 113.826751,4.36910972 113.319929,4.36910972 L110.875555,4.36910972 C110.785823,4.36910972 110.722678,4.42454248 110.68612,4.53204845 M113.238506,18.700999 L111.20125,11.8340553 C111.166354,11.7433472 111.101548,11.6979931 111.011815,11.6979931 L109.979894,11.6979931 C109.8885,11.6979931 109.825355,11.7517461 109.790459,11.8609318 L108.976222,18.5918133 C108.956281,18.7194766 108.908092,18.8185837 108.826668,18.8908143 C108.745244,18.9630448 108.640557,19 108.514267,19 L104.359994,19 C104.232042,19 104.137325,18.9630448 104.07418,18.8908143 C104.011035,18.8185837 103.987771,18.7194766 104.00605,18.5918133 L106.260989,0.40650694 C106.277606,0.280523384 106.324134,0.17973654 106.395588,0.107505968 C106.468703,0.0352753956 106.568405,0 106.694695,0 L114.677546,0 C116.306021,0 117.600492,0.460259924 118.56096,1.38413933 C119.519766,2.30633896 120,3.55441606 120,5.12837061 C120,5.30978693 119.981721,5.61718681 119.945164,6.05225002 C119.800595,7.24657413 119.388491,8.29139775 118.708852,9.18672089 C118.030875,10.0837238 117.166786,10.7388383 116.116586,11.1554239 C116.061749,11.1739015 116.025192,11.2058173 116.008575,11.2494916 C115.990296,11.2948457 115.990296,11.3368402 116.008575,11.3721156 L118.451287,18.5111838 C118.469566,18.548139 118.479536,18.601892 118.479536,18.6741225 C118.479536,18.7648307 118.442979,18.8404208 118.369863,18.9042525 C118.296748,18.9680842 118.197046,19 118.070756,19 L113.645624,19 C113.42794,19 113.293342,18.9008929 113.238506,18.700999" id="Fill-15" fill="#FFFFFF"></path>
                <path d="M120.072046,18.8908143 C120.010718,18.8185837 119.988123,18.7194766 120.005876,18.5918133 L122.194343,0.40650694 C122.212096,0.280523384 122.255672,0.17973654 122.326684,0.107505968 C122.397697,0.0352753956 122.492918,0 122.617189,0 L126.651974,0 C126.774632,0 126.866625,0.0352753956 126.927954,0.107505968 C126.989282,0.17973654 127.011877,0.280523384 126.994124,0.40650694 L124.831479,18.5918133 C124.813726,18.7194766 124.765309,18.8185837 124.686227,18.8908143 C124.607145,18.9630448 124.507082,19 124.382811,19 L120.34964,19 C120.225368,19 120.133375,18.9630448 120.072046,18.8908143" id="Fill-17" fill="#FFFFFF"></path>
                <path d="M128.809493,18.3386637 C127.603741,17.2305299 127,15.7455268 127,13.8836546 C127,13.3996024 127.019029,13.0365632 127.057087,12.7928084 L127.762893,7.15014262 C127.932425,5.73601867 128.399503,4.48785548 129.162396,3.4073818 C129.925289,2.32690812 130.914802,1.4901893 132.130933,0.893767828 C133.345335,0.297346357 134.706779,0 136.215267,0 C138.306736,0 139.960536,0.520356124 141.176668,1.56452589 C142.391069,2.60696689 143,4.01244706 143,5.78269513 C143,5.96767223 142.980971,6.28403492 142.942913,6.73178321 C142.942913,6.8061198 142.899665,6.8718126 142.814899,6.92713286 C142.730133,6.98245311 142.631528,7.02048578 142.519083,7.03950212 L138.137204,7.31783214 L138.052438,7.31783214 C137.825819,7.31783214 137.732404,7.21583542 137.770462,7.01184199 C137.787761,6.91848907 137.79814,6.77845968 137.79814,6.59175382 C137.79814,5.9400121 137.609579,5.42829977 137.232458,5.05488806 C136.855336,4.68320512 136.338091,4.49649927 135.678992,4.49649927 C134.943778,4.49649927 134.326197,4.72469531 133.826251,5.18108739 C133.328035,5.63747947 133.03049,6.24773101 132.937074,7.01184199 L132.20186,13.0175469 C132.182831,13.1108998 132.172451,13.2492004 132.172451,13.4359063 C132.172451,14.0686317 132.366202,14.5717002 132.751973,14.9451119 C133.139475,15.3167949 133.65153,15.5035007 134.293329,15.5035007 C135.028544,15.5035007 135.640934,15.2753047 136.130501,14.8189126 C136.620067,14.3625205 136.912423,13.7626415 137.005838,13.0175469 C137.024868,12.924194 137.073305,12.8446711 137.147692,12.7789783 C137.223808,12.7150143 137.327603,12.6908117 137.459077,12.709828 L141.783869,12.9328378 C142.046816,12.9708704 142.16964,13.0642234 142.150611,13.2128965 C141.981079,14.5526839 141.519191,15.736883 140.766677,16.7603077 C140.012434,17.7854611 139.028111,18.5806898 137.81198,19.1494511 C136.597578,19.7164837 135.234404,20 133.727646,20 C131.655206,20 130.015245,19.4467975 128.809493,18.3386637" id="Fill-19" fill="#FFFFFF"></path>
                <path d="M157.409111,4.26160375 C157.334108,4.33383432 157.231831,4.3707895 157.10228,4.3707895 L149.053086,4.3707895 C148.959332,4.3707895 148.894557,4.42454248 148.85876,4.53372823 L148.551929,7.02988242 C148.533178,7.13906816 148.579203,7.19282115 148.691708,7.19282115 L153.676003,7.19282115 C153.788508,7.19282115 153.875443,7.22977632 153.941923,7.3020069 C154.006699,7.37423747 154.028859,7.47334453 154.011812,7.59932809 L153.565203,11.1285474 C153.546452,11.2562108 153.500428,11.3553178 153.425425,11.4275484 C153.352126,11.499779 153.249849,11.5350544 153.120299,11.5350544 L148.134298,11.5350544 C148.021794,11.5350544 147.967246,11.5904871 147.967246,11.6996729 L147.604163,14.4679516 C147.604163,14.5754575 147.650188,14.6308903 147.743942,14.6308903 L155.793135,14.6308903 C155.922686,14.6308903 156.021554,14.6661657 156.086329,14.7383963 C156.151105,14.8123066 156.174969,14.9114137 156.156219,15.0373972 L155.709609,18.5934931 C155.690859,18.7194766 155.63972,18.8202635 155.556194,18.892494 C155.472668,18.9647246 155.375505,19 155.264705,19 L142.367584,19 C142.238034,19 142.140871,18.9647246 142.076095,18.892494 C142.01132,18.8202635 141.987455,18.7194766 142.006206,18.5934931 L144.317665,0.40650694 C144.336415,0.280523384 144.38244,0.18141632 144.457443,0.109185748 C144.530741,0.0369551764 144.633018,0 144.764274,0 L157.659689,0 C157.770489,0 157.859129,0.0369551764 157.923905,0.109185748 C157.98868,0.18141632 158.012545,0.280523384 157.993794,0.40650694 L157.548889,3.96260278 C157.530139,4.09026611 157.482409,4.18937318 157.409111,4.26160375" id="Fill-21" fill="#FFFFFF"></path>
                <path d="M90.8512111,39.5340133 C89.615917,38.5555363 89,37.229579 89,35.5526839 C89,35.3867231 89.0190311,35.1153082 89.0553633,34.7436252 L89.1124567,34.3529259 C89.1314879,34.2215403 89.183391,34.1195436 89.2681661,34.045207 C89.3529412,33.9708704 89.4515571,33.9328378 89.5657439,33.9328378 L93.83391,33.9328378 C93.9653979,33.9328378 94.0640138,33.9708704 94.1297578,34.045207 C94.1972318,34.1195436 94.2197232,34.2215403 94.200692,34.3529259 L94.1730104,34.5188867 C94.115917,35.0409716 94.3287197,35.5025499 94.8096886,35.901893 C95.2889273,36.3029648 95.982699,36.5035007 96.8875433,36.5035007 C97.6211073,36.5035007 98.1487889,36.3358112 98.4705882,36.0004322 C98.7906574,35.6650532 98.949827,35.3210303 98.949827,34.966635 C98.949827,34.594952 98.7768166,34.3148932 98.4273356,34.1281874 C98.0778547,33.9432103 97.4705882,33.7202005 96.6038062,33.4591581 L95.8408304,33.2067594 C94.2387543,32.7036909 92.8961938,32.0381191 91.8131488,31.2100441 C90.7283737,30.3802403 90.1868512,29.1943124 90.1868512,27.6470741 C90.1868512,26.3435906 90.5397924,25.1887804 91.2474048,24.184372 C91.9532872,23.1782349 92.9152249,22.3968364 94.1297578,21.8367188 C95.3460208,21.27833 96.6799308,21 98.1314879,21 C99.449827,21 100.633218,21.2316536 101.678201,21.6984182 C102.724913,22.1634541 103.539792,22.8290258 104.124567,23.6951335 C104.707612,24.5612412 105,25.5518195 105,26.6703259 C105,26.8380154 104.980969,27.1077016 104.942907,27.4811133 L104.915225,27.7317832 C104.896194,27.8614401 104.844291,27.9651655 104.759516,28.0395021 C104.67474,28.1138387 104.565744,28.1501426 104.434256,28.1501426 L100.193772,28.1501426 C100.062284,28.1501426 99.9636678,28.1138387 99.8979239,28.0395021 C99.8304498,27.9651655 99.8079585,27.8614401 99.8269896,27.7317832 L99.8269896,27.7041231 C99.884083,27.3497277 99.8217993,27.0057049 99.6435986,26.6703259 C99.4636678,26.3349468 99.1816609,26.0548881 98.7958478,25.8318783 C98.4083045,25.6088685 97.932526,25.4964993 97.366782,25.4964993 C96.7456747,25.4964993 96.2456747,25.6330711 95.8685121,25.9027574 C95.4913495,26.1724436 95.3044983,26.540669 95.3044983,27.0057049 C95.3044983,27.4344369 95.5536332,27.7922897 96.0536332,28.0809923 C96.5519031,28.3696949 97.4982699,28.7465641 98.8944637,29.2116 C99.0449827,29.268649 99.6245675,29.4588123 100.633218,29.7855476 C101.640138,30.1105541 102.484429,30.6602991 103.16263,31.4330539 C103.84083,32.2058086 104.179931,33.1410666 104.179931,34.2405567 C104.179931,34.3892298 104.1609,34.6312559 104.124567,34.966635 C103.878893,36.8475236 103.012111,38.3238828 101.522491,39.3939839 C100.034602,40.4658138 98.1678201,41 95.9256055,41 C93.7768166,41 92.0847751,40.5124903 90.8512111,39.5340133" id="Fill-23" fill="#FFFFFF"></path>
                <path d="M128.24247,36.7640739 C128.763726,36.2552643 129.071352,35.5745595 129.16364,34.7219596 L129.833583,29.2780404 C129.852382,29.1680275 129.862636,28.9995703 129.862636,28.7778255 C129.862636,28.0747744 129.666097,27.5143962 129.276437,27.09841 C128.885067,26.6807048 128.345012,26.4727116 127.65627,26.4727116 C126.91113,26.4727116 126.278787,26.7271165 125.75753,27.237645 C125.236274,27.7464547 124.928648,28.4271594 124.83636,29.2780404 L124.164708,34.7219596 C124.145909,34.8336914 124.137364,35.0004297 124.137364,35.2221745 C124.137364,35.9269446 124.333903,36.4856038 124.723563,36.903309 C125.114933,37.3192952 125.644734,37.5272884 126.316385,37.5272884 C127.078616,37.5272884 127.721213,37.2728835 128.24247,36.7640739 M122.168554,41.221315 C121.153386,40.7039106 120.372356,39.9716373 119.823756,39.027933 C119.273446,38.0825097 119,36.972067 119,35.6948861 C119,35.3253116 119.027345,34.9454233 119.083743,34.5552213 L119.724631,29.3347658 C119.910916,27.8891276 120.386029,26.6119467 121.149968,25.5015041 C121.912198,24.3893425 122.903439,23.5281478 124.123692,22.9179201 C125.342235,22.3059734 126.706046,22 128.215125,22 C129.592608,22 130.792352,22.2561238 131.817774,22.7649334 C132.839778,23.273743 133.627644,23.9974216 134.176244,24.9308122 C134.726554,25.8659218 135,26.9643318 135,28.2226042 C135,28.5749893 134.972655,28.9445638 134.916257,29.3347658 L134.275369,34.5552213 C134.106174,36.0369575 133.636189,37.3382037 132.863704,38.45896 C132.09122,39.5797164 131.091433,40.4495058 129.862636,41.0700473 C128.633839,41.6888698 127.264901,42 125.75753,42 C124.380047,42 123.183721,41.7404383 122.168554,41.221315" id="Fill-25" fill="#FFFFFF"></path>
                <path d="M141.68612,26.5333274 L141.305589,29.6540842 C141.305589,29.7632603 141.350455,29.8170085 141.441849,29.8170085 L143.886223,29.8170085 C144.501056,29.8170085 145.012862,29.6372878 145.419981,29.2744873 C145.8271,28.9116867 146.029828,28.4430693 146.029828,27.8635962 C146.029828,27.4117751 145.871966,27.0489745 145.554579,26.7768741 C145.238855,26.5064533 144.826751,26.3704031 144.319929,26.3704031 L141.875555,26.3704031 C141.785823,26.3704031 141.722678,26.4241513 141.68612,26.5333274 M144.238506,40.7010255 L142.20125,33.8346888 C142.164693,33.7439887 142.101548,33.6986386 142.011815,33.6986386 L140.979894,33.6986386 C140.890162,33.6986386 140.825355,33.7523868 140.790459,33.8615629 L139.976222,40.5918494 C139.957943,40.7195014 139.908092,40.8185997 139.826668,40.8908239 C139.745244,40.9630481 139.640557,41 139.514267,41 L135.359994,41 C135.232042,41 135.137325,40.9630481 135.07418,40.8908239 C135.011035,40.8185997 134.987771,40.7195014 135.00605,40.5918494 L137.260989,22.4081506 C137.277606,22.2804986 137.324134,22.1814003 137.395588,22.1091761 C137.468703,22.0369519 137.568405,22 137.694695,22 L145.677546,22 C147.306021,22 148.600492,22.4618989 149.559298,23.3856966 C150.519766,24.3078147 151,25.5557815 151,27.1295969 C151,27.3109972 150.981721,27.6183699 150.945164,28.0533946 C150.798933,29.2476132 150.388491,30.2923444 149.708852,31.1875884 C149.030875,32.084512 148.166786,32.7395686 147.116586,33.1561174 C147.061749,33.1729137 147.025192,33.2065064 147.008575,33.2501768 C146.990296,33.2955269 146.990296,33.335838 147.008575,33.37279 L149.451287,40.511227 C149.469566,40.5464993 149.477874,40.6019272 149.477874,40.6741513 C149.477874,40.7648515 149.442979,40.8404349 149.369863,40.904261 C149.296748,40.968087 149.198707,41 149.070756,41 L144.645624,41 C144.42794,41 144.293342,40.9009017 144.238506,40.7010255" id="Fill-27" fill="#FFFFFF"></path>
                <path d="M59.8094929,61.3386637 C58.6037409,60.2305299 58,58.7455268 58,56.8836546 C58,56.3996024 58.0190291,56.0365632 58.0570873,55.7928084 L58.7628933,50.1501426 C58.9324251,48.7360187 59.3995026,47.4878555 60.1623959,46.4073818 C60.9252892,45.3269081 61.9148016,44.4901893 63.1309331,43.8937678 C64.3470645,43.2973464 65.7067791,43 67.2152665,43 C69.3067359,43 70.9605363,43.5203561 72.1766677,44.5645259 C73.3910693,45.6069669 74,47.0124471 74,48.7809664 C74,48.9676722 73.9809709,49.2840349 73.9429127,49.7317832 C73.9429127,49.8061198 73.8996648,49.8718126 73.8148989,49.9271329 C73.730133,49.9824531 73.6315277,50.0204858 73.5190831,50.0395021 L69.137204,50.3178321 L69.0524381,50.3178321 C68.825819,50.3178321 68.7324035,50.2158354 68.7704617,50.011842 C68.7877608,49.9184891 68.7981403,49.7784597 68.7981403,49.5917538 C68.7981403,48.9400121 68.6095794,48.4282998 68.2324576,48.0548881 C67.8553357,47.6832051 67.3380906,47.4964993 66.6789923,47.4964993 C65.9437777,47.4964993 65.3261974,47.7246953 64.8262515,48.1810874 C64.3280355,48.6374795 64.0304898,49.247731 63.9370743,50.011842 L63.2018597,56.0175469 C63.1828306,56.1108998 63.1724511,56.2492004 63.1724511,56.4359063 C63.1724511,57.0686317 63.3662018,57.5717002 63.7519732,57.9451119 C64.1394745,58.3167949 64.6515299,58.5035007 65.293329,58.5035007 C66.0285436,58.5035007 66.6409342,58.2753047 67.1305006,57.8189126 C67.620067,57.3625205 67.912423,56.7626415 68.0075684,56.0175469 C68.0248676,55.924194 68.0733052,55.8446711 68.1476916,55.7789783 C68.223808,55.7150143 68.327603,55.6908117 68.4590767,55.709828 L72.7838685,55.9328378 C73.0468159,55.9708704 73.16964,56.0642234 73.1506109,56.2128965 C72.981079,57.5526839 72.5191913,58.736883 71.7666775,59.7603077 C71.0124338,60.7854611 70.0281111,61.5806898 68.8119797,62.1494511 C67.5975781,62.7164837 66.2344037,63 64.7276462,63 C62.655206,63 61.0152449,62.4467975 59.8094929,61.3386637" id="Fill-29" fill="#FFFFFF"></path>
                <path d="M75.7441981,61.4437937 C74.5819552,60.4057692 74,59.0023601 74,57.2302448 C74,57.0159965 74.0183424,56.6937937 74.0550273,56.2652972 L75.5541038,44.4019231 C75.5707787,44.2773601 75.6174686,44.1793706 75.6891708,44.1062937 C75.7625405,44.0348776 75.8625901,44 75.9893196,44 L80.158053,44 C80.2847825,44 80.3798296,44.0348776 80.4448618,44.1062937 C80.5082266,44.1793706 80.529904,44.2773601 80.5115616,44.4019231 L79.0408324,56.2652972 C79.02249,56.3533217 79.0141525,56.4978147 79.0141525,56.6937937 C79.0141525,57.3016608 79.1909068,57.784965 79.5444154,58.1437063 C79.8995915,58.5007867 80.3848321,58.6801573 81.0034721,58.6801573 C81.6754719,58.6801573 82.2474222,58.4609266 82.7193228,58.022465 C83.1912234,57.5840035 83.4730298,56.9977273 83.5647419,56.2652972 L85.0354711,44.4019231 C85.0538135,44.2773601 85.1038383,44.1793706 85.1855455,44.1062937 C85.2672526,44.0348776 85.3622998,44 85.4706868,44 L89.6677676,44 C89.7761547,44 89.8628643,44.0348776 89.9262291,44.1062937 C89.9895938,44.1793706 90.0112712,44.2773601 89.9945963,44.4019231 L88.5221997,56.2652972 C88.3587853,57.6055944 87.9102296,58.786451 87.174865,59.8062063 C86.437833,60.8259615 85.4940317,61.6148601 84.3401263,62.1679196 C83.1862209,62.7226399 81.8922461,63 80.4582018,63 C78.4772197,63 76.9064409,62.4818182 75.7441981,61.4437937" id="Fill-31" fill="#FFFFFF"></path>
                <path d="M14.0851911,6.46924441 C13.5596202,4.61127016 15.5775972,2.9850828 17.0735908,2.39825727 C18.5337092,1.82430879 21.1167198,1.64586968 21.8449852,3.43577953 C22.6145071,5.32686618 20.3454041,7.00456174 18.8547918,7.58402896 C17.4090234,8.14693997 14.6412558,8.43023505 14.0851911,6.46924441" id="Fill-33" fill="#FFFFFF"></path>
                <path d="M17.1353031,14.9366993 C16.5180234,12.9471799 18.114548,10.9893727 19.8629686,10.3083963 C21.5952301,9.63242708 24.0514218,10.0179799 24.8044385,11.9607656 C25.5913893,13.9953495 23.8655915,15.9998904 22.0832366,16.6875431 C20.3251205,17.3651814 17.7784375,17.0096716 17.1353031,14.9366993" id="Fill-35" fill="#FFFFFF"></path>
                <path d="M20.2090739,25.1327714 C19.443631,22.7578426 20.8685324,20.1658696 23.0403714,19.306662 C25.2105281,18.4474544 27.8921016,19.4322247 28.7450237,21.7784535 C29.6214978,24.1928449 28.1309871,26.8314554 25.9137262,27.6960443 C23.7132882,28.5534582 20.993022,27.5651003 20.2090739,25.1327714" id="Fill-37" fill="#FFFFFF"></path>
                <path d="M24.1629952,3.19866177 C23.3992754,1.49844099 25.4934022,0.33788689 26.8377583,0.0960295808 C28.4715608,-0.199974887 30.8394411,0.144762024 31.7566023,1.74390811 C32.7156113,3.41525041 30.6214845,4.59565847 29.2823593,4.86819917 C27.6380949,5.20210664 24.9668191,4.98912782 24.1629952,3.19866177" id="Fill-39" fill="#FFFFFF"></path>
                <path d="M28.2011644,10.7894243 C27.4340079,9.02521448 28.9892287,7.44679452 30.7004541,7.09744604 C32.5355181,6.7226904 34.8546788,7.43409094 35.7311993,9.14113466 C36.6221945,10.8719976 35.1538216,12.466297 33.4425962,12.8664598 C31.557675,13.3094972 29.0133531,12.6584387 28.2011644,10.7894243" id="Fill-41" fill="#FFFFFF"></path>
                <path d="M32.263818,21.0993868 C31.4064788,18.986698 32.7269189,16.6929705 34.949459,16.1378987 C37.1892147,15.5794111 39.7543462,16.7647029 40.6839911,18.8364017 C41.6084714,20.9012688 40.4188702,23.183041 38.2307614,23.813261 C35.9255862,24.4793472 33.1624748,23.3145503 32.263818,21.0993868" id="Fill-43" fill="#FFFFFF"></path>
                <path d="M24.253549,37.0420706 C23.4354967,34.7547442 24.6666089,32.1124878 26.9448926,31.2695292 C29.2312438,30.4232841 31.8870901,31.6408911 32.7325721,33.9265743 C33.5845083,36.233619 32.3259663,38.8972369 30.0218664,39.7369091 C27.7274475,40.573295 25.0764418,39.3458289 24.253549,37.0420706" id="Fill-45" fill="#FFFFFF"></path>
                <path d="M36.2836719,31.8895783 C35.4289398,29.6326772 36.5595017,26.9295252 38.9517299,26.190903 C41.294581,25.4642492 43.8366427,26.8936199 44.6964827,29.0958083 C45.5529174,31.2894478 44.5534598,33.9327577 42.2463643,34.7517393 C39.8592442,35.599787 37.1537278,34.1840945 36.2836719,31.8895783" id="Fill-47" fill="#FFFFFF"></path>
                <path d="M39.2729218,8.18845703 C38.4892219,6.56568483 39.4838556,5.05600405 41.1031775,5.00215099 C42.8636628,4.94291263 44.7718017,6.11331913 45.6593459,7.76122276 C46.4706294,9.26551823 45.7777933,10.8146912 44.1649616,10.9798406 C42.31199,11.1701214 40.1458629,9.99612474 39.2729218,8.18845703" id="Fill-49" fill="#FFFFFF"></path>
                <path d="M43.2980324,18.0225401 C42.5813631,16.3845611 43.1508592,14.2733136 45.0753083,14.0266098 C46.9709626,13.7832625 48.8538192,15.2450245 49.6472745,16.9367077 C50.3639438,18.4689565 50.039203,20.5281781 48.2043377,20.925925 C46.2159003,21.3572371 44.0930874,19.8417709 43.2980324,18.0225401" id="Fill-51" fill="#FFFFFF"></path>
                <path d="M29.271484,49.0577013 C28.4127768,46.7479678 29.6685554,44.1006707 31.9476806,43.2659074 C34.2413328,42.4261555 36.9191435,43.6417172 37.7487967,45.9780567 C38.5687653,48.2861273 37.3081443,50.92511 35.0322473,51.7449075 C32.7595786,52.563042 30.1221207,51.3458174 29.271484,49.0577013" id="Fill-53" fill="#FFFFFF"></path>
                <path d="M33.2609161,60.4847271 C32.3678056,58.3141719 33.8832342,56.0000135 36.047892,55.2621898 C38.2310511,54.5177637 40.98607,55.3777327 41.7900377,57.5978062 C42.5687763,59.7469034 41.0836226,62.0330014 38.9458759,62.7510177 C36.8014014,63.4723353 34.1321614,62.5991614 33.2609161,60.4847271" id="Fill-55" fill="#FFFFFF"></path>
                <path d="M20.7436477,37.9367481 C21.5032384,40.1525391 20.5403311,42.9282342 18.3119814,43.7723451 C16.1779706,44.5824192 13.9512474,43.1290509 13.2502118,41.0187738 C12.5410436,38.8931801 13.3591895,36.2332099 15.452537,35.3040072 C17.6044397,34.3475751 19.9986958,35.763503 20.7436477,37.9367481" id="Fill-57" fill="#FFFFFF"></path>
                <path d="M16.7862083,26.5761003 C17.5212393,28.8860701 16.2956056,31.6551643 14.1114636,32.6630859 C12.0617573,33.6082366 9.79031943,32.481947 9.17924853,30.3190405 C8.55595621,28.113091 9.60176041,25.4838863 11.6392454,24.4185741 C13.6662548,23.3604358 16.0913334,24.3916723 16.7862083,26.5761003" id="Fill-59" fill="#FFFFFF"></path>
                <path d="M13.8670482,16.6634729 C14.4559689,18.5780771 13.0013855,20.7045303 11.2177491,21.5981184 C9.62985707,22.3945428 7.52391737,22.0425233 7.08855484,20.2250828 C6.6531923,18.4044566 7.87828223,16.3895029 9.55392175,15.4704292 C11.0996275,14.6198479 13.3152515,14.8683323 13.8670482,16.6634729" id="Fill-61" fill="#FFFFFF"></path>
                <path d="M11.9345575,8.10025205 C12.349293,9.82179595 10.7098679,11.6141108 9.35506513,12.4370285 C8.29789613,13.0772585 6.27138446,13.5051757 6.02742239,11.801736 C5.78996596,10.1559006 7.13663663,8.46727336 8.44264696,7.62295977 C9.47054052,6.95968807 11.5409654,6.46593743 11.9345575,8.10025205" id="Fill-63" fill="#FFFFFF"></path>
                <path d="M7.80512177,31.2924134 C8.34733684,33.133477 7.77620364,35.7123324 5.86399185,36.7182568 C4.10179289,37.6439122 2.58178333,36.118801 2.17692942,34.6056448 C1.71062447,32.858513 2.1353596,30.5068018 3.81803368,29.4086534 C5.5513145,28.2780559 7.33158729,29.6853253 7.80512177,31.2924134" id="Fill-65" fill="#FFFFFF"></path>
                <g id="Group-69" transform="translate(0.000000, 20.000000)">
                    <mask id="mask-2" fill="white">
                        <use xlink:href="#path-1"></use>
                    </mask>
                    <g id="Clip-68"></g>
                    <path d="M4.91160586,1.56677978 C5.28524824,3.32033174 4.44583248,5.50446535 2.93249554,6.58749322 C1.60512672,7.5357589 0.303349841,6.74033327 0.0627855688,5.30725238 C-0.215313554,3.6523069 0.438134078,1.65223874 1.78768258,0.534698593 C3.04339396,-0.503956363 4.58573511,0.0400227362 4.91160586,1.56677978" id="Fill-67" fill="#FFFFFF" mask="url(#mask-2)"></path>
                </g>
            </g>
        </g>
    </g>
</svg>