<?xml version="1.0" encoding="UTF-8"?>
<svg width="32px" height="20px" viewBox="0 0 32 20" version="1.1" xmlns="http://www.w3.org/2000/svg" xmlns:xlink="http://www.w3.org/1999/xlink">
    <title>5B1AD7EE-B0F6-49ED-AB52-C7155E72F68E</title>
    <g id="Page-1" stroke="none" stroke-width="1" fill="none" fill-rule="evenodd">
        <g id="Desktop-HD" transform="translate(-1231.000000, -54.000000)">
            <g id="Menú_White" transform="translate(150.907193, 51.091418)">
                <g id="flag" transform="translate(1080.092807, 2.908582)">
                    <polygon id="Fill-1" fill="#C43539" points="2.27373675e-13 18.840165 31.327 18.840165 31.327 17.4348084 2.27373675e-13 17.4348084"></polygon>
                    <polygon id="Fill-2" fill="#F5F5F5" points="2.27373675e-13 17.4348084 31.327 17.4348084 31.327 16.0294518 2.27373675e-13 16.0294518"></polygon>
                    <polygon id="Fill-3" fill="#C43539" points="2.27373675e-13 16.0294518 31.327 16.0294518 31.327 14.6240952 2.27373675e-13 14.6240952"></polygon>
                    <polygon id="Fill-4" fill="#F5F5F5" points="2.27373675e-13 14.6240952 31.327 14.6240952 31.327 13.2187386 2.27373675e-13 13.2187386"></polygon>
                    <polygon id="Fill-5" fill="#C43539" points="2.27373675e-13 13.2187386 31.327 13.2187386 31.327 11.813382 2.27373675e-13 11.813382"></polygon>
                    <polygon id="Fill-6" fill="#F5F5F5" points="2.27373675e-13 11.813382 31.327 11.813382 31.327 10.4080254 2.27373675e-13 10.4080254"></polygon>
                    <polygon id="Fill-7" fill="#C43539" points="2.27373675e-13 10.4080254 31.327 10.4080254 31.327 9.00266874 2.27373675e-13 9.00266874"></polygon>
                    <polygon id="Fill-8" fill="#F5F5F5" points="2.27373675e-13 9.0001274 31.327 9.0001274 31.327 7.59477079 2.27373675e-13 7.59477079"></polygon>
                    <polygon id="Fill-9" fill="#C43539" points="2.27373675e-13 7.59731212 31.327 7.59731212 31.327 6.1919555 2.27373675e-13 6.1919555"></polygon>
                    <polygon id="Fill-10" fill="#F5F5F5" points="2.27373675e-13 6.18941417 31.327 6.18941417 31.327 4.78405756 2.27373675e-13 4.78405756"></polygon>
                    <polygon id="Fill-11" fill="#C43539" points="2.27373675e-13 4.78405756 31.327 4.78405756 31.327 3.37870094 2.27373675e-13 3.37870094"></polygon>
                    <polygon id="Fill-12" fill="#F5F5F5" points="2.27373675e-13 3.37870094 31.327 3.37870094 31.327 1.97334433 2.27373675e-13 1.97334433"></polygon>
                    <polygon id="Fill-13" fill="#C43539" points="2.27373675e-13 1.97334433 31.327 1.97334433 31.327 0.56798771 2.27373675e-13 0.56798771"></polygon>
                    <polygon id="Fill-14" fill="#3B4367" points="2.27373675e-13 10.4080254 14.3076994 10.4080254 14.3076994 0.56798771 2.27373675e-13 0.56798771"></polygon>
                    <polygon id="Fill-15" fill="#F5F5F5" points="1.1710458 2.02467923 0.782222 2.02467923 1.0998885 2.25339912 0.975363235 2.62697492 1.29302974 2.39571371 1.61069624 2.62697492 1.48871231 2.25339912 1.80637881 2.02467923 1.41501368 2.02467923 1.29302974 1.65110342"></polygon>
                    <polygon id="Fill-16" fill="#F5F5F5" points="1.1710458 3.6646008 0.782222 3.6646008 1.0998885 3.89332068 0.975363235 4.26943782 1.29302974 4.0381766 1.61069624 4.26943782 1.48871231 3.89332068 1.80637881 3.6646008 1.41501368 3.6646008 1.29302974 3.29356632"></polygon>
                    <polygon id="Fill-17" fill="#F5F5F5" points="1.1710458 5.30909676 0.782222 5.30909676 1.0998885 5.53781664 0.975363235 5.91139245 1.29302974 5.68013123 1.61069624 5.91139245 1.48871231 5.53781664 1.80637881 5.30909676 1.41501368 5.30909676 1.29302974 4.93806228"></polygon>
                    <polygon id="Fill-18" fill="#F5F5F5" points="1.1710458 6.95130552 0.782222 6.95130552 1.0998885 7.18256673 0.975363235 7.55360121 1.29302974 7.32488133 1.61069624 7.55360121 1.48871231 7.18256673 1.80637881 6.95130552 1.41501368 6.95130552 1.29302974 6.57772971"></polygon>
                    <polygon id="Fill-19" fill="#F5F5F5" points="1.1710458 8.59580148 0.782222 8.59580148 1.0998885 8.82198003 0.975363235 9.19555584 1.29302974 8.96429462 1.61069624 9.19555584 1.48871231 8.82198003 1.80637881 8.59580148 1.41501368 8.59580148 1.29302974 8.21968434"></polygon>
                    <polygon id="Fill-20" fill="#F5F5F5" points="2.31693242 2.88924039 1.92556728 2.88924039 2.24069246 3.12050161 2.12379118 3.49153608 2.43891635 3.2628162 2.75150019 3.49153608 2.63205759 3.12050161 2.94718276 2.88924039 2.55581763 2.88924039 2.43891635 2.51566458"></polygon>
                    <polygon id="Fill-21" fill="#F5F5F5" points="2.31693242 4.53144915 1.92556728 4.53144915 2.24069246 4.76271037 2.12379118 5.13374484 2.43891635 4.90502496 2.75150019 5.13374484 2.63205759 4.76271037 2.94718276 4.53144915 2.55581763 4.53144915 2.43891635 4.16041468"></polygon>
                    <polygon id="Fill-22" fill="#F5F5F5" points="2.31693242 6.17365791 1.92556728 6.17365791 2.24069246 6.40491913 2.12379118 6.77595361 2.43891635 6.54723372 2.75150019 6.77595361 2.63205759 6.40491913 2.94718276 6.17365791 2.55581763 6.17365791 2.43891635 5.80262344"></polygon>
                    <polygon id="Fill-23" fill="#F5F5F5" points="2.31693242 7.81815387 1.92556728 7.81815387 2.24069246 8.04687376 2.12379118 8.41790823 2.43891635 8.18664702 2.75150019 8.41790823 2.63205759 8.04687376 2.94718276 7.81815387 2.55581763 7.81815387 2.43891635 7.44457806"></polygon>
                    <polygon id="Fill-24" fill="#F5F5F5" points="3.47196783 2.02467923 3.08314403 2.02467923 3.40081053 2.25339912 3.27882659 2.62697492 3.59395176 2.39571371 3.9141596 2.62697492 3.78963433 2.25339912 4.10730084 2.02467923 3.71339437 2.02467923 3.59395176 1.65110342"></polygon>
                    <polygon id="Fill-25" fill="#F5F5F5" points="3.47196783 3.6646008 3.08314403 3.6646008 3.40081053 3.89332068 3.27882659 4.26943782 3.59395176 4.0381766 3.9141596 4.26943782 3.78963433 3.89332068 4.10730084 3.6646008 3.71339437 3.6646008 3.59395176 3.29356632"></polygon>
                    <polygon id="Fill-26" fill="#F5F5F5" points="3.47196783 5.30909676 3.08314403 5.30909676 3.40081053 5.53781664 3.27882659 5.91139245 3.59395176 5.68013123 3.9141596 5.91139245 3.78963433 5.53781664 4.10730084 5.30909676 3.71339437 5.30909676 3.59395176 4.93806228"></polygon>
                    <polygon id="Fill-27" fill="#F5F5F5" points="3.47196783 6.95130552 3.08314403 6.95130552 3.40081053 7.18256673 3.27882659 7.55360121 3.59395176 7.32488133 3.9141596 7.55360121 3.78963433 7.18256673 4.10730084 6.95130552 3.71339437 6.95130552 3.59395176 6.57772971"></polygon>
                    <polygon id="Fill-28" fill="#F5F5F5" points="3.47196783 8.59580148 3.08314403 8.59580148 3.40081053 8.82198003 3.27882659 9.19555584 3.59395176 8.96429462 3.9141596 9.19555584 3.78963433 8.82198003 4.10730084 8.59580148 3.71339437 8.59580148 3.59395176 8.21968434"></polygon>
                    <polygon id="Fill-29" fill="#F5F5F5" points="4.61785444 2.88924039 4.22648931 2.88924039 4.54415581 3.12050161 4.42471321 3.49153608 4.73983838 3.2628162 5.05496355 3.49153608 4.93297961 3.12050161 5.25318745 2.88924039 4.85928098 2.88924039 4.73983838 2.51566458"></polygon>
                    <polygon id="Fill-30" fill="#F5F5F5" points="4.61785444 4.53144915 4.22648931 4.53144915 4.54415581 4.76271037 4.42471321 5.13374484 4.73983838 4.90502496 5.05496355 5.13374484 4.93297961 4.76271037 5.25318745 4.53144915 4.85928098 4.53144915 4.73983838 4.16041468"></polygon>
                    <polygon id="Fill-31" fill="#F5F5F5" points="4.61785444 6.17365791 4.22648931 6.17365791 4.54415581 6.40491913 4.42471321 6.77595361 4.73983838 6.54723372 5.05496355 6.77595361 4.93297961 6.40491913 5.25318745 6.17365791 4.85928098 6.17365791 4.73983838 5.80262344"></polygon>
                    <polygon id="Fill-32" fill="#F5F5F5" points="4.61785444 7.81815387 4.22648931 7.81815387 4.54415581 8.04687376 4.42471321 8.41790823 4.73983838 8.18664702 5.05496355 8.41790823 4.93297961 8.04687376 5.25318745 7.81815387 4.85928098 7.81815387 4.73983838 7.44457806"></polygon>
                    <polygon id="Fill-33" fill="#F5F5F5" points="5.77746425 2.02467923 5.38609912 2.02467923 5.69868296 2.25339912 5.58178168 2.62697492 5.89944819 2.39571371 6.21711469 2.62697492 6.09004809 2.25339912 6.40771459 2.02467923 6.01889079 2.02467923 5.89944819 1.65110342"></polygon>
                    <polygon id="Fill-34" fill="#F5F5F5" points="5.77746425 3.6646008 5.38609912 3.6646008 5.69868296 3.89332068 5.58178168 4.26943782 5.89944819 4.0381766 6.21711469 4.26943782 6.09004809 3.89332068 6.40771459 3.6646008 6.01889079 3.6646008 5.89944819 3.29356632"></polygon>
                    <polygon id="Fill-35" fill="#F5F5F5" points="5.77746425 5.30909676 5.38609912 5.30909676 5.69868296 5.53781664 5.58178168 5.91139245 5.89944819 5.68013123 6.21711469 5.91139245 6.09004809 5.53781664 6.40771459 5.30909676 6.01889079 5.30909676 5.89944819 4.93806228"></polygon>
                    <polygon id="Fill-36" fill="#F5F5F5" points="5.77746425 6.95130552 5.38609912 6.95130552 5.69868296 7.18256673 5.58178168 7.55360121 5.89944819 7.32488133 6.21711469 7.55360121 6.09004809 7.18256673 6.40771459 6.95130552 6.01889079 6.95130552 5.89944819 6.57772971"></polygon>
                    <polygon id="Fill-37" fill="#F5F5F5" points="5.77746425 8.59580148 5.38609912 8.59580148 5.69868296 8.82198003 5.58178168 9.19555584 5.89944819 8.96429462 6.21711469 9.19555584 6.09004809 8.82198003 6.40771459 8.59580148 6.01889079 8.59580148 5.89944819 8.21968434"></polygon>
                    <polygon id="Fill-38" fill="#F5F5F5" points="6.92106367 2.88924039 6.52969853 2.88924039 6.8448237 3.12050161 6.7253811 3.49153608 7.0430476 3.2628162 7.35563144 3.49153608 7.23618884 3.12050161 7.55131401 2.88924039 7.16249021 2.88924039 7.0430476 2.51566458"></polygon>
                    <polygon id="Fill-39" fill="#F5F5F5" points="6.92106367 4.53144915 6.52969853 4.53144915 6.8448237 4.76271037 6.7253811 5.13374484 7.0430476 4.90502496 7.35563144 5.13374484 7.23618884 4.76271037 7.55131401 4.53144915 7.16249021 4.53144915 7.0430476 4.16041468"></polygon>
                    <polygon id="Fill-40" fill="#F5F5F5" points="6.92106367 6.17365791 6.52969853 6.17365791 6.8448237 6.40491913 6.7253811 6.77595361 7.0430476 6.54723372 7.35563144 6.77595361 7.23618884 6.40491913 7.55131401 6.17365791 7.16249021 6.17365791 7.0430476 5.80262344"></polygon>
                    <polygon id="Fill-41" fill="#F5F5F5" points="6.92106367 7.81815387 6.52969853 7.81815387 6.8448237 8.04687376 6.7253811 8.41790823 7.0430476 8.18664702 7.35563144 8.41790823 7.23618884 8.04687376 7.55131401 7.81815387 7.16249021 7.81815387 7.0430476 7.44457806"></polygon>
                    <polygon id="Fill-42" fill="#F5F5F5" points="8.07838627 2.02467923 7.68702114 2.02467923 8.00214631 2.25339912 7.88270371 2.62697492 8.19782888 2.39571371 8.51803672 2.62697492 8.39605278 2.25339912 8.71117795 2.02467923 8.31981282 2.02467923 8.19782888 1.65110342"></polygon>
                    <polygon id="Fill-43" fill="#F5F5F5" points="8.07838627 3.6646008 7.68702114 3.6646008 8.00214631 3.89332068 7.88270371 4.26943782 8.19782888 4.0381766 8.51803672 4.26943782 8.39605278 3.89332068 8.71117795 3.6646008 8.31981282 3.6646008 8.19782888 3.29356632"></polygon>
                    <polygon id="Fill-44" fill="#F5F5F5" points="8.07838627 5.30909676 7.68702114 5.30909676 8.00214631 5.53781664 7.88270371 5.91139245 8.19782888 5.68013123 8.51803672 5.91139245 8.39605278 5.53781664 8.71117795 5.30909676 8.31981282 5.30909676 8.19782888 4.93806228"></polygon>
                    <polygon id="Fill-45" fill="#F5F5F5" points="8.07838627 6.95130552 7.68702114 6.95130552 8.00214631 7.18256673 7.88270371 7.55360121 8.19782888 7.32488133 8.51803672 7.55360121 8.39605278 7.18256673 8.71117795 6.95130552 8.31981282 6.95130552 8.19782888 6.57772971"></polygon>
                    <polygon id="Fill-46" fill="#F5F5F5" points="8.07838627 8.59580148 7.68702114 8.59580148 8.00214631 8.82198003 7.88270371 9.19555584 8.19782888 8.96429462 8.51803672 9.19555584 8.39605278 8.82198003 8.71117795 8.59580148 8.31981282 8.59580148 8.19782888 8.21968434"></polygon>
                    <polygon id="Fill-47" fill="#F5F5F5" points="9.22427289 2.88924039 8.83290776 2.88924039 9.14803293 3.12050161 9.02859032 3.49153608 9.34371549 3.2628162 9.661382 3.49153608 9.53939806 3.12050161 9.85706457 2.88924039 9.4631581 2.88924039 9.34371549 2.51566458"></polygon>
                    <polygon id="Fill-48" fill="#F5F5F5" points="9.22427289 4.53144915 8.83290776 4.53144915 9.14803293 4.76271037 9.02859032 5.13374484 9.34371549 4.90502496 9.661382 5.13374484 9.53939806 4.76271037 9.85706457 4.53144915 9.4631581 4.53144915 9.34371549 4.16041468"></polygon>
                    <polygon id="Fill-49" fill="#F5F5F5" points="9.22427289 6.17365791 8.83290776 6.17365791 9.14803293 6.40491913 9.02859032 6.77595361 9.34371549 6.54723372 9.661382 6.77595361 9.53939806 6.40491913 9.85706457 6.17365791 9.4631581 6.17365791 9.34371549 5.80262344"></polygon>
                    <polygon id="Fill-50" fill="#F5F5F5" points="9.22427289 7.81815387 8.83290776 7.81815387 9.14803293 8.04687376 9.02859032 8.41790823 9.34371549 8.18664702 9.661382 8.41790823 9.53939806 8.04687376 9.85706457 7.81815387 9.4631581 7.81815387 9.34371549 7.44457806"></polygon>
                    <polygon id="Fill-51" fill="#F5F5F5" points="10.3815955 2.02467923 9.9927717 2.02467923 10.3078969 2.25339912 10.1884543 2.62697492 10.5035794 2.39571371 10.8161633 2.62697492 10.699262 2.25339912 11.0143872 2.02467923 10.623022 2.02467923 10.5035794 1.65110342"></polygon>
                    <polygon id="Fill-52" fill="#F5F5F5" points="10.3815955 3.6646008 9.9927717 3.6646008 10.3078969 3.89332068 10.1884543 4.26943782 10.5035794 4.0381766 10.8161633 4.26943782 10.699262 3.89332068 11.0143872 3.6646008 10.623022 3.6646008 10.5035794 3.29356632"></polygon>
                    <polygon id="Fill-53" fill="#F5F5F5" points="10.3815955 5.30909676 9.9927717 5.30909676 10.3078969 5.53781664 10.1884543 5.91139245 10.5035794 5.68013123 10.8161633 5.91139245 10.699262 5.53781664 11.0143872 5.30909676 10.623022 5.30909676 10.5035794 4.93806228"></polygon>
                    <polygon id="Fill-54" fill="#F5F5F5" points="10.3815955 6.95130552 9.9927717 6.95130552 10.3078969 7.18256673 10.1884543 7.55360121 10.5035794 7.32488133 10.8161633 7.55360121 10.699262 7.18256673 11.0143872 6.95130552 10.623022 6.95130552 10.5035794 6.57772971"></polygon>
                    <polygon id="Fill-55" fill="#F5F5F5" points="10.3815955 8.59580148 9.9927717 8.59580148 10.3078969 8.82198003 10.1884543 9.19555584 10.5035794 8.96429462 10.8161633 9.19555584 10.699262 8.82198003 11.0143872 8.59580148 10.623022 8.59580148 10.5035794 8.21968434"></polygon>
                    <polygon id="Fill-56" fill="#F5F5F5" points="11.5251949 2.88924039 11.1363711 2.88924039 11.448955 3.12050161 11.3295123 3.49153608 11.6471789 3.2628162 11.9597627 3.49153608 11.8428614 3.12050161 12.1554453 2.88924039 11.7640801 2.88924039 11.6471789 2.51566458"></polygon>
                    <polygon id="Fill-57" fill="#F5F5F5" points="11.5251949 4.53144915 11.1363711 4.53144915 11.448955 4.76271037 11.3295123 5.13374484 11.6471789 4.90502496 11.9597627 5.13374484 11.8428614 4.76271037 12.1554453 4.53144915 11.7640801 4.53144915 11.6471789 4.16041468"></polygon>
                    <polygon id="Fill-58" fill="#F5F5F5" points="11.5251949 6.17365791 11.1363711 6.17365791 11.448955 6.40491913 11.3295123 6.77595361 11.6471789 6.54723372 11.9597627 6.77595361 11.8428614 6.40491913 12.1554453 6.17365791 11.7640801 6.17365791 11.6471789 5.80262344"></polygon>
                    <polygon id="Fill-59" fill="#F5F5F5" points="11.5251949 7.81815387 11.1363711 7.81815387 11.448955 8.04687376 11.3295123 8.41790823 11.6471789 8.18664702 11.9597627 8.41790823 11.8428614 8.04687376 12.1554453 7.81815387 11.7640801 7.81815387 11.6471789 7.44457806"></polygon>
                    <polygon id="Fill-60" fill="#F5F5F5" points="12.6825175 2.02467923 12.2936937 2.02467923 12.6062776 2.25339912 12.4893763 2.62697492 12.8045015 2.39571371 13.122168 2.62697492 13.000184 2.25339912 13.3153092 2.02467923 12.9264854 2.02467923 12.8045015 1.65110342"></polygon>
                    <polygon id="Fill-61" fill="#F5F5F5" points="12.6825175 3.6646008 12.2936937 3.6646008 12.6062776 3.89332068 12.4893763 4.26943782 12.8045015 4.0381766 13.122168 4.26943782 13.000184 3.89332068 13.3153092 3.6646008 12.9264854 3.6646008 12.8045015 3.29356632"></polygon>
                    <polygon id="Fill-62" fill="#F5F5F5" points="12.6825175 5.30909676 12.2936937 5.30909676 12.6062776 5.53781664 12.4893763 5.91139245 12.8045015 5.68013123 13.122168 5.91139245 13.000184 5.53781664 13.3153092 5.30909676 12.9264854 5.30909676 12.8045015 4.93806228"></polygon>
                    <polygon id="Fill-63" fill="#F5F5F5" points="12.6825175 6.95130552 12.2936937 6.95130552 12.6062776 7.18256673 12.4893763 7.55360121 12.8045015 7.32488133 13.122168 7.55360121 13.000184 7.18256673 13.3153092 6.95130552 12.9264854 6.95130552 12.8045015 6.57772971"></polygon>
                    <polygon id="Fill-64" fill="#F5F5F5" points="12.6825175 8.59580148 12.2936937 8.59580148 12.6062776 8.82198003 12.4893763 9.19555584 12.8045015 8.96429462 13.122168 9.19555584 13.000184 8.82198003 13.3153092 8.59580148 12.9264854 8.59580148 12.8045015 8.21968434"></polygon>
                </g>
            </g>
        </g>
    </g>
</svg>