<?xml version="1.0" encoding="UTF-8"?>
<svg width="349px" height="215px" viewBox="0 0 349 215" version="1.1" xmlns="http://www.w3.org/2000/svg" xmlns:xlink="http://www.w3.org/1999/xlink">
    <title>AF7B2428-B33A-48CB-9A01-E9D222924287</title>
    <g id="Page-1" stroke="none" stroke-width="1" fill="none" fill-rule="evenodd">
        <g id="Desktop-HD-Copy-4" transform="translate(-869.000000, -166.000000)" stroke="#E1251B">
            <g id="grid" transform="translate(869.000000, 166.000000)">
                <g id="Group-7" transform="translate(311.000000, 8.000000) rotate(-270.000000) translate(-311.000000, -8.000000) translate(303.000000, -30.000000)">
                    <line x1="0" y1="8.2534794" x2="16" y2="8.2534794" id="Stroke-1"></line>
                    <line x1="8.00031128" y1="16.5076011" x2="8.00031128" y2="0" id="Stroke-3"></line>
                    <line x1="0" y1="75.1971011" x2="16" y2="75.1971011" id="Stroke-5"></line>
                </g>
                <line x1="274" y1="16" x2="274" y2="1.13686838e-13" id="Stroke-8" transform="translate(274.000000, 8.000000) rotate(-270.000000) translate(-274.000000, -8.000000) "></line>
                <line x1="200" y1="8" x2="216" y2="8" id="Stroke-9" transform="translate(208.000000, 8.000000) rotate(-270.000000) translate(-208.000000, -8.000000) "></line>
                <line x1="208" y1="16" x2="208" y2="5.68434189e-14" id="Stroke-11" transform="translate(208.000000, 8.000000) rotate(-270.000000) translate(-208.000000, -8.000000) "></line>
                <line x1="133" y1="8" x2="149" y2="8" id="Stroke-12" transform="translate(141.000000, 8.000000) rotate(-270.000000) translate(-141.000000, -8.000000) "></line>
                <line x1="141" y1="16" x2="141" y2="5.68434189e-14" id="Stroke-14" transform="translate(141.000000, 8.000000) rotate(-270.000000) translate(-141.000000, -8.000000) "></line>
                <line x1="67" y1="8" x2="83" y2="8" id="Stroke-15" transform="translate(75.000000, 8.000000) rotate(-270.000000) translate(-75.000000, -8.000000) "></line>
                <line x1="75" y1="16" x2="75" y2="5.68434189e-14" id="Stroke-17" transform="translate(75.000000, 8.000000) rotate(-270.000000) translate(-75.000000, -8.000000) "></line>
                <g id="Group-22" transform="translate(8.000000, 8.000000) rotate(-270.000000) translate(-8.000000, -8.000000) translate(0.000000, 0.000000)">
                    <line x1="0" y1="7.99968872" x2="16" y2="7.99968872" id="Stroke-18"></line>
                    <line x1="8.00031128" y1="16" x2="8.00031128" y2="0" id="Stroke-20"></line>
                </g>
                <line x1="333" y1="74" x2="349" y2="74" id="Stroke-23" transform="translate(341.000000, 74.000000) rotate(-270.000000) translate(-341.000000, -74.000000) "></line>
                <line x1="341" y1="82" x2="341" y2="66" id="Stroke-24" transform="translate(341.000000, 74.000000) rotate(-270.000000) translate(-341.000000, -74.000000) "></line>
                <line x1="266" y1="74" x2="282" y2="74" id="Stroke-26" transform="translate(274.000000, 74.000000) rotate(-270.000000) translate(-274.000000, -74.000000) "></line>
                <line x1="274" y1="82" x2="274" y2="66" id="Stroke-27" transform="translate(274.000000, 74.000000) rotate(-270.000000) translate(-274.000000, -74.000000) "></line>
                <line x1="200" y1="74" x2="216" y2="74" id="Stroke-28" transform="translate(208.000000, 74.000000) rotate(-270.000000) translate(-208.000000, -74.000000) "></line>
                <line x1="208" y1="82" x2="208" y2="66" id="Stroke-29" transform="translate(208.000000, 74.000000) rotate(-270.000000) translate(-208.000000, -74.000000) "></line>
                <line x1="133" y1="74" x2="149" y2="74" id="Stroke-30" transform="translate(141.000000, 74.000000) rotate(-270.000000) translate(-141.000000, -74.000000) "></line>
                <line x1="141" y1="82" x2="141" y2="66" id="Stroke-31" transform="translate(141.000000, 74.000000) rotate(-270.000000) translate(-141.000000, -74.000000) "></line>
                <line x1="67" y1="74" x2="83" y2="74" id="Stroke-32" transform="translate(75.000000, 74.000000) rotate(-270.000000) translate(-75.000000, -74.000000) "></line>
                <line x1="75" y1="82" x2="75" y2="66" id="Stroke-33" transform="translate(75.000000, 74.000000) rotate(-270.000000) translate(-75.000000, -74.000000) "></line>
                <line x1="0" y1="74" x2="16" y2="74" id="Stroke-34" transform="translate(8.000000, 74.000000) rotate(-270.000000) translate(-8.000000, -74.000000) "></line>
                <line x1="8" y1="82" x2="8" y2="66" id="Stroke-35" transform="translate(8.000000, 74.000000) rotate(-270.000000) translate(-8.000000, -74.000000) "></line>
                <line x1="333" y1="141" x2="349" y2="141" id="Stroke-37" transform="translate(341.000000, 141.000000) rotate(-270.000000) translate(-341.000000, -141.000000) "></line>
                <line x1="341" y1="149" x2="341" y2="133" id="Stroke-38" transform="translate(341.000000, 141.000000) rotate(-270.000000) translate(-341.000000, -141.000000) "></line>
                <line x1="266" y1="141" x2="282" y2="141" id="Stroke-40" transform="translate(274.000000, 141.000000) rotate(-270.000000) translate(-274.000000, -141.000000) "></line>
                <line x1="274" y1="149" x2="274" y2="133" id="Stroke-41" transform="translate(274.000000, 141.000000) rotate(-270.000000) translate(-274.000000, -141.000000) "></line>
                <line x1="200" y1="141" x2="216" y2="141" id="Stroke-42" transform="translate(208.000000, 141.000000) rotate(-270.000000) translate(-208.000000, -141.000000) "></line>
                <line x1="208" y1="149" x2="208" y2="133" id="Stroke-43" transform="translate(208.000000, 141.000000) rotate(-270.000000) translate(-208.000000, -141.000000) "></line>
                <line x1="133" y1="141" x2="149" y2="141" id="Stroke-44" transform="translate(141.000000, 141.000000) rotate(-270.000000) translate(-141.000000, -141.000000) "></line>
                <line x1="141" y1="149" x2="141" y2="133" id="Stroke-45" transform="translate(141.000000, 141.000000) rotate(-270.000000) translate(-141.000000, -141.000000) "></line>
                <line x1="67" y1="141" x2="83" y2="141" id="Stroke-46" transform="translate(75.000000, 141.000000) rotate(-270.000000) translate(-75.000000, -141.000000) "></line>
                <line x1="75" y1="149" x2="75" y2="133" id="Stroke-47" transform="translate(75.000000, 141.000000) rotate(-270.000000) translate(-75.000000, -141.000000) "></line>
                <line x1="0" y1="141" x2="16" y2="141" id="Stroke-48" transform="translate(8.000000, 141.000000) rotate(-270.000000) translate(-8.000000, -141.000000) "></line>
                <line x1="8.20148516" y1="148.996379" x2="8.20148516" y2="132.593409" id="Stroke-49" transform="translate(8.201485, 140.794894) rotate(-270.000000) translate(-8.201485, -140.794894) "></line>
                <line x1="332.627323" y1="206.828489" x2="348.970345" y2="206.828489" id="Stroke-51" transform="translate(340.798834, 206.828489) rotate(-270.000000) translate(-340.798834, -206.828489) "></line>
                <line x1="340.798515" y1="215.030293" x2="340.798515" y2="198.627322" id="Stroke-53" transform="translate(340.798515, 206.828807) rotate(-270.000000) translate(-340.798515, -206.828807) "></line>
                <line x1="266.108013" y1="206.828489" x2="282.451034" y2="206.828489" id="Stroke-55" transform="translate(274.279524, 206.828489) rotate(-270.000000) translate(-274.279524, -206.828489) "></line>
                <line x1="274" y1="215" x2="274" y2="199" id="Stroke-58" transform="translate(274.000000, 207.000000) rotate(-270.000000) translate(-274.000000, -207.000000) "></line>
                <line x1="200" y1="207" x2="216" y2="207" id="Stroke-59" transform="translate(208.000000, 207.000000) rotate(-270.000000) translate(-208.000000, -207.000000) "></line>
                <line x1="208" y1="215" x2="208" y2="199" id="Stroke-61" transform="translate(208.000000, 207.000000) rotate(-270.000000) translate(-208.000000, -207.000000) "></line>
                <line x1="133" y1="207" x2="149" y2="207" id="Stroke-62" transform="translate(141.000000, 207.000000) rotate(-270.000000) translate(-141.000000, -207.000000) "></line>
                <line x1="141" y1="215" x2="141" y2="199" id="Stroke-64" transform="translate(141.000000, 207.000000) rotate(-270.000000) translate(-141.000000, -207.000000) "></line>
                <line x1="67" y1="207" x2="83" y2="207" id="Stroke-65" transform="translate(75.000000, 207.000000) rotate(-270.000000) translate(-75.000000, -207.000000) "></line>
                <line x1="75" y1="215" x2="75" y2="199" id="Stroke-67" transform="translate(75.000000, 207.000000) rotate(-270.000000) translate(-75.000000, -207.000000) "></line>
                <g id="Group-72" transform="translate(8.000000, 207.000000) rotate(-270.000000) translate(-8.000000, -207.000000) translate(0.000000, 199.000000)">
                    <line x1="0" y1="7.99968872" x2="16" y2="7.99968872" id="Stroke-68"></line>
                    <line x1="8.00031128" y1="16" x2="8.00031128" y2="0" id="Stroke-70"></line>
                </g>
            </g>
        </g>
    </g>
</svg>