<?xml version="1.0" encoding="UTF-8"?>
<svg width="33px" height="33px" viewBox="0 0 33 33" version="1.1" xmlns="http://www.w3.org/2000/svg" xmlns:xlink="http://www.w3.org/1999/xlink">
    <title>3A6C25FB-9831-439F-8CF5-95A350790AF3</title>
    <defs>
        <polygon id="path-1" points="0 0 15.7719298 0 15.7719298 15.7719298 0 15.7719298"></polygon>
    </defs>
    <g id="Page-1" stroke="none" stroke-width="1" fill="none" fill-rule="evenodd">
        <g id="Desktop-HD" transform="translate(-778.000000, -8126.000000)">
            <g id="Footer-Red" transform="translate(-14.000000, 8042.000000)">
                <g id="Social-Networks" transform="translate(793.000000, 37.000000)">
                    <g id="Instagram-icon" transform="translate(0.000000, 48.000000)">
                        <path d="M0,8.18780702 L0,22.8754167 C0,27.3785746 3.76296491,31.0630877 8.36197807,31.0630877 L22.7008377,31.0630877 C27.3001228,31.0630877 31.0629518,27.3785746 31.0629518,22.8754167 L31.0629518,8.18780702 C31.0629518,3.68451316 27.3001228,0 22.7008377,0 L8.36197807,0 C3.76296491,0 0,3.68451316 0,8.18780702 Z" id="Stroke-1" stroke="#F0E6CD" stroke-width="0.5"></path>
                        <g id="Group-8" transform="translate(7.614035, 7.614035)">
                            <g id="Group-3">
                                <mask id="mask-2" fill="white">
                                    <use xlink:href="#path-1"></use>
                                </mask>
                                <g id="Clip-2"></g>
                                <path d="M7.88603652,-0.000286429061 C5.74428266,-0.000286429061 5.47575786,0.00902251543 4.63438013,0.046974366 C3.7951506,0.0856422893 3.22158161,0.218831803 2.72033531,0.413603564 C2.20190341,0.615536052 1.7622388,0.88477937 1.32329025,1.32301583 C0.885057762,1.76196837 0.615100824,2.20163698 0.413886235,2.72007358 C0.219116242,3.22204051 0.0859279381,3.79489863 0.047260366,4.63413578 C0.00859279381,5.47552115 0,5.74404839 0,7.8858217 C0,10.027595 0.00859279381,10.2961222 0.047260366,11.1375076 C0.0859279381,11.9767448 0.219116242,12.550319 0.413886235,13.0515698 C0.615100824,13.5700064 0.885057762,14.0103911 1.32329025,14.4486276 C1.7622388,14.886864 2.20190341,15.1568234 2.72033531,15.3580398 C3.22158161,15.5528116 3.7951506,15.6867172 4.63438013,15.724669 C5.47575786,15.763337 5.74428266,15.7719298 7.88603652,15.7719298 C10.0277904,15.7719298 10.2963152,15.763337 11.1376929,15.724669 C11.9769224,15.6867172 12.5504914,15.5528116 13.0517377,15.3580398 C13.5701696,15.1568234 14.0098342,14.886864 14.4487828,14.4486276 C14.8870153,14.0103911 15.1569722,13.5700064 15.3581868,13.0515698 C15.5529568,12.550319 15.6861451,11.9767448 15.7248127,11.1375076 C15.7634802,10.2961222 15.772073,10.027595 15.772073,7.8858217 C15.772073,5.74404839 15.7634802,5.47552115 15.7248127,4.63413578 C15.6861451,3.79489863 15.5529568,3.22204051 15.3581868,2.72007358 C15.1569722,2.20163698 14.8870153,1.76196837 14.4487828,1.32301583 C14.0098342,0.88477937 13.5701696,0.615536052 13.0517377,0.413603564 C12.5504914,0.218831803 11.9769224,0.0856422893 11.1376929,0.046974366 C10.2963152,0.00902251543 10.0277904,-0.000286429061 7.88603652,-0.000286429061 M7.88603652,1.42040171 C9.99198707,1.42040171 10.2411781,1.42899459 11.0725309,1.46694644 C11.8415859,1.502034 12.2590525,1.630211 12.5368862,1.73833797 C12.9049442,1.8815525 13.1677404,2.05197779 13.444142,2.32838184 C13.7198274,2.60406981 13.8909673,2.86686847 14.0334644,3.23492982 C14.1415904,3.51276601 14.2704823,3.93023636 14.3055696,4.69929839 C14.3435211,5.53065874 14.3513978,5.7805681 14.3513978,7.8858217 C14.3513978,9.99179137 14.3435211,10.2409847 14.3055696,11.072345 C14.2704823,11.841407 14.1415904,12.2588774 14.0334644,12.5367136 C13.8909673,12.9047749 13.7198274,13.1675736 13.444142,13.4439776 C13.1677404,13.7196656 12.9049442,13.890807 12.5368862,14.0340215 C12.2590525,14.1414324 11.8415859,14.2703255 11.0725309,14.305413 C10.2411781,14.3433649 9.99198707,14.3512417 7.88603652,14.3512417 C5.78008597,14.3512417 5.53089495,14.3433649 4.69954215,14.305413 C3.9304871,14.2703255 3.51302054,14.1414324 3.23518687,14.0340215 C2.86712887,13.890807 2.60433259,13.7196656 2.32793106,13.4439776 C2.05224559,13.1675736 1.88110578,12.9047749 1.73860861,12.5367136 C1.63048263,12.2588774 1.50159072,11.841407 1.46650348,11.072345 C1.42855197,10.2409847 1.42067524,9.99179137 1.42067524,7.8858217 C1.42067524,5.7805681 1.42855197,5.53065874 1.46650348,4.69929839 C1.50159072,3.93023636 1.63048263,3.51276601 1.73860861,3.23492982 C1.88110578,2.86686847 2.05224559,2.60406981 2.32793106,2.32838184 C2.60433259,2.05197779 2.86712887,1.8815525 3.23518687,1.73833797 C3.51302054,1.630211 3.9304871,1.502034 4.69954215,1.46694644 C5.53089495,1.42899459 5.78008597,1.42040171 7.88603652,1.42040171" id="Fill-1" fill="#F0E6CD" mask="url(#mask-2)"></path>
                            </g>
                            <path d="M7.88603652,10.5147392 C6.43457043,10.5147392 5.25735768,9.33751579 5.25735768,7.88603652 C5.25735768,6.43384118 6.43457043,5.25733381 7.88603652,5.25733381 C9.33750261,5.25733381 10.5147154,6.43384118 10.5147154,7.88603652 C10.5147154,9.33751579 9.33750261,10.5147392 7.88603652,10.5147392 M7.88603652,3.83664567 C5.64976193,3.83664567 3.83668244,5.64974162 3.83668244,7.88603652 C3.83668244,10.1223314 5.64976193,11.9354274 7.88603652,11.9354274 C10.1223111,11.9354274 11.9353906,10.1223314 11.9353906,7.88603652 C11.9353906,5.64974162 10.1223111,3.83664567 7.88603652,3.83664567" id="Fill-4" fill="#F0E6CD"></path>
                            <path d="M13.0419992,3.676317 C13.0419992,4.19905004 12.6180881,4.62296505 12.0953598,4.62296505 C11.5733476,4.62296505 11.1494364,4.19905004 11.1494364,3.676317 C11.1494364,3.15358396 11.5733476,2.72966895 12.0953598,2.72966895 C12.6180881,2.72966895 13.0419992,3.15358396 13.0419992,3.676317" id="Fill-6" fill="#F0E6CD"></path>
                        </g>
                    </g>
                </g>
            </g>
        </g>
    </g>
</svg>