<?xml version="1.0" encoding="UTF-8"?>
<svg width="974px" height="226px" viewBox="0 0 974 226" version="1.1" xmlns="http://www.w3.org/2000/svg" xmlns:xlink="http://www.w3.org/1999/xlink">
    <title>FC9DDC3D-E77C-459A-80DD-6098E1A2183E</title>
    <g id="Page-1" stroke="none" stroke-width="1" fill="none" fill-rule="evenodd" opacity="0.161690848">
        <g id="Desktop-HD-Copy-4" transform="translate(-233.000000, -4182.000000)" fill="#A6A6A6" fill-rule="nonzero">
            <g id="iNternaTionalIty" transform="translate(233.785841, 4182.580619)">
                <polygon id="Path" points="0 223.097471 0 1.93517013 25.9865704 1.93517013 25.9865704 223.097471"></polygon>
                <polygon id="Path" points="74.5475788 1.93517013 100.257696 1.93517013 100.257696 223.097471 69.8478799 223.097471 60.724935 142.373231 57.9604062 112.516321 57.9604062 223.097471 32.2502887 223.097471 32.2502887 1.93517013 64.5952753 1.93517013 71.7830501 73.812918 74.5475788 105.881452"></polygon>
                <polygon id="Path" points="170.105576 1.93517013 170.105576 27.6452876 149.924516 27.6452876 149.924516 223.097471 123.937946 223.097471 123.937946 27.9217405 103.756886 27.9217405 103.756886 1.93517013"></polygon>
                <polygon id="Path" points="219.772396 27.6452876 199.591336 27.6452876 199.591336 97.8643182 214.243339 97.8643182 214.243339 123.574436 199.591336 123.574436 199.591336 197.387354 219.772396 197.387354 219.772396 223.097471 173.604766 223.097471 173.604766 1.93517013 219.772396 1.93517013"></polygon>
                <path d="M261.422083,223.097471 L251.193326,119.980548 L250.363968,119.980548 L250.363968,223.097471 L224.65385,223.097471 L224.65385,1.93517013 L258.104648,1.93517013 C265.292423,1.93517013 271.374386,4.42324602 276.350538,9.3993978 C281.32669,14.3755496 283.814766,20.4575129 283.814766,27.6452876 L283.814766,92.6117136 C283.814766,96.8506577 282.939332,100.813149 281.188463,104.499187 C279.437595,108.185226 277.087746,111.226207 274.138915,113.622132 L286.302842,223.097471 L261.422083,223.097471 Z M250.363968,102.287564 L257.551742,102.287564 C258.841856,102.287564 259.486913,101.642508 259.486913,100.352394 L259.486913,29.5804578 C259.486913,29.2118539 259.302611,28.7971746 258.934007,28.3364198 C258.565403,27.875665 258.104648,27.6452876 257.551742,27.6452876 L250.363968,27.6452876 L250.363968,102.287564 Z" id="Shape"></path>
                <polygon id="Path" points="334.86385 1.93517013 360.573968 1.93517013 360.573968 223.097471 330.164151 223.097471 321.041206 142.373231 318.276677 112.516321 318.276677 223.097471 292.56656 223.097471 292.56656 1.93517013 324.911546 1.93517013 332.099321 73.812918 334.86385 105.881452"></polygon>
                <path d="M417.152109,223.097471 L414.387581,193.517013 L393.100709,193.517013 L390.059727,223.097471 L364.073157,223.097471 L391.441992,1.93517013 L417.705015,1.93517013 L443.13868,223.097471 L417.152109,223.097471 Z M395.865238,167.806896 L411.623052,167.806896 L404.71173,96.205601 L404.158824,75.1951824 L403.329466,96.205601 L395.865238,167.806896 Z" id="Shape"></path>
                <polygon id="Path" points="500.54618 1.93517013 500.54618 27.6452876 480.36512 27.6452876 480.36512 223.097471 454.37855 223.097471 454.37855 27.9217405 434.19749 27.9217405 434.19749 1.93517013"></polygon>
                <polygon id="Path" points="504.04537 223.097471 504.04537 1.93517013 530.03194 1.93517013 530.03194 223.097471"></polygon>
                <path d="M565.876116,0 C574.354005,0 581.403553,2.76452876 587.024761,8.29358629 C592.64597,13.8226438 595.456574,20.7339657 595.456574,29.027552 L595.456574,196.557995 C595.456574,205.404487 592.323442,212.500111 586.057176,217.844867 C580.712421,222.636716 574.169703,225.032641 566.429022,225.032641 C557.766832,225.032641 550.579057,222.314188 544.865698,216.877282 C539.152338,211.440375 536.295659,204.667279 536.295659,196.557995 L536.295659,29.027552 C536.295659,20.7339657 539.106263,13.8226438 544.727471,8.29358629 C550.34868,2.76452876 557.398228,0 565.876116,0 Z M569.746457,29.027552 C569.746457,27.7374386 569.377853,26.723778 568.640645,25.9865704 C567.903437,25.2493627 567.074079,24.8807589 566.152569,24.8807589 C565.046758,24.8807589 564.125248,25.2493627 563.38804,25.9865704 C562.650833,26.723778 562.282229,27.7374386 562.282229,29.027552 L562.282229,196.557995 C562.282229,197.663807 562.650833,198.493165 563.38804,199.046071 C564.125248,199.598977 565.046758,199.87543 566.152569,199.87543 C567.074079,199.87543 567.903437,199.598977 568.640645,199.046071 C569.377853,198.493165 569.746457,197.663807 569.746457,196.557995 L569.746457,29.027552 Z" id="Shape"></path>
                <polygon id="Path" points="644.017583 1.93517013 669.7277 1.93517013 669.7277 223.097471 639.317884 223.097471 630.194939 142.373231 627.43041 112.516321 627.43041 223.097471 601.720292 223.097471 601.720292 1.93517013 634.065279 1.93517013 641.253054 73.812918 644.017583 105.881452"></polygon>
                <path d="M726.305842,223.097471 L723.541313,193.517013 L702.254442,193.517013 L699.21346,223.097471 L673.22689,223.097471 L700.595724,1.93517013 L726.858748,1.93517013 L752.292412,223.097471 L726.305842,223.097471 Z M705.01897,167.806896 L720.776784,167.806896 L713.865462,96.205601 L713.312557,75.1951824 L712.483198,96.205601 L705.01897,167.806896 Z" id="Shape"></path>
                <polygon id="Path" points="755.791602 223.097471 755.791602 1.93517013 781.778172 1.93517013 781.778172 197.387354 801.959232 197.387354 801.959232 223.097471"></polygon>
                <polygon id="Path" points="806.840686 223.097471 806.840686 1.93517013 832.827257 1.93517013 832.827257 223.097471"></polygon>
                <polygon id="Path" points="902.675136 1.93517013 902.675136 27.6452876 882.494077 27.6452876 882.494077 223.097471 856.507506 223.097471 856.507506 27.9217405 836.326446 27.9217405 836.326446 1.93517013"></polygon>
                <polygon id="Path" points="973.075922 1.93517013 950.959692 158.960404 950.959692 223.097471 924.973122 223.097471 924.973122 159.236857 904.792062 1.93517013 931.055085 1.93517013 937.137048 64.4135202 938.519313 91.5059021 940.17803 64.4135202 946.812899 1.93517013"></polygon>
            </g>
        </g>
    </g>
</svg>