<?xml version="1.0" encoding="UTF-8"?>
<svg width="175px" height="72px" viewBox="0 0 175 72" version="1.1" xmlns="http://www.w3.org/2000/svg" xmlns:xlink="http://www.w3.org/1999/xlink">
    <title>0F1A9216-FE3C-4534-A499-53551AA454DD</title>
    <defs>
        <polygon id="path-1" points="0 0 13 0 13 11 0 11"></polygon>
    </defs>
    <g id="Page-1" stroke="none" stroke-width="1" fill="none" fill-rule="evenodd">
        <g id="Desktop-HD" transform="translate(-257.000000, -3372.000000)">
            <g id="Now-in-Play" transform="translate(-63.000000, 3184.000000)">
                <g id="We-live-Padel" transform="translate(320.000000, 188.000000)">
                    <path d="M8.57282561,27.3595161 L7.00145725,0.840227969 C6.97411959,0.28007599 7.33388312,0 7.87298166,0 L14.5947641,0 C15.0507561,0 15.2913275,0.199744117 15.3066366,0.640483852 L15.5822001,13.2797271 C15.5964157,13.559803 15.8446416,13.559803 15.9977325,13.2797271 L22.2668033,0.679564223 C22.5008137,0.239910053 22.8507356,0 23.3067277,0 L28.1608016,0 C28.6167937,0 28.8584585,0.199744117 28.8737676,0.640483852 L29.0662247,13.2797271 C29.0804403,13.559803 29.3286662,13.559803 29.4806635,13.2797271 L35.6677214,0.679564223 C35.9104798,0.199744117 36.2516537,0 36.7076458,0 L43.4283347,0 C43.9674332,0 44.1380202,0.320241926 43.8854203,0.840227969 L30.0645958,27.3595161 C29.8305855,27.7991703 29.4915986,28 29.034513,28 L22.6867097,28 C22.2307176,28 21.9485931,27.7991703 21.9835853,27.3193502 L22.3969306,14.0797891 C22.382715,13.7997131 22.1432372,13.7606327 22.0229515,14.0797891 L16.2175272,27.3193502 C16.0152286,27.7991703 15.6751482,28 15.2191561,28 L9.32734487,28 C8.8713528,28 8.59906976,27.7600899 8.57282561,27.3595161" id="Fill-1" fill="#D0251B"></path>
                    <path d="M64.7468784,6.4398263 L52.4775301,6.4398263 C52.2682236,6.4398263 52.1120743,6.56032878 52.0611319,6.76008065 L51.1796082,10.2796216 C51.1297733,10.4804591 51.2250133,10.5998759 51.4354273,10.5998759 L58.9139822,10.5998759 C59.4189756,10.5998759 59.6426789,10.8799628 59.5230752,11.3598015 L58.3004594,16.2406948 C58.1797482,16.7205335 57.8153998,16.9995347 57.3115138,16.9995347 L49.8329589,16.9995347 C49.622545,16.9995347 49.4663957,17.1200372 49.4165608,17.3197891 L48.4342599,21.2399194 C48.384425,21.4407568 48.479665,21.5601737 48.6900789,21.5601737 L60.9594273,21.5601737 C61.4633133,21.5601737 61.688124,21.8402605 61.5674128,22.3200993 L60.3348301,27.2400744 C60.2141189,27.7199132 59.850878,28 59.3458845,28 L39.6400641,28 C39.1350706,28 38.9113673,27.7199132 39.0320785,27.2400744 L45.6656552,0.759925558 C45.7852589,0.280086849 46.1496073,0 46.6546008,0 L66.3604212,0 C66.8643072,0 67.0880105,0.280086849 66.9684068,0.759925558 L65.735824,5.67990074 C65.6151128,6.15973945 65.2507645,6.4398263 64.7468784,6.4398263" id="Fill-3" fill="#D0251B"></path>
                    <path d="M71.0319655,27.2400744 L77.6600289,0.759925558 C77.7795332,0.280086849 78.1446853,0 78.6481525,0 L84.9453661,0 C85.4488333,0 85.6734572,0.280086849 85.5528463,0.759925558 L80.427439,21.2399194 C80.376539,21.4407568 80.4728064,21.5601737 80.6830455,21.5601737 L93.3615681,21.5601737 C93.8650354,21.5601737 94.0885527,21.8402605 93.9679419,22.3200993 L92.7363835,27.2400744 C92.6168792,27.7199132 92.2528337,28 91.7493664,28 L71.6394457,28 C71.1359785,28 70.9113546,27.7199132 71.0319655,27.2400744" id="Fill-5" fill="#D0251B"></path>
                    <path d="M95.0328754,27.2400744 L101.849621,0.759925558 C101.972527,0.280086849 102.348074,0 102.865874,0 L109.342351,0 C109.860151,0 110.091169,0.280086849 109.967125,0.759925558 L103.150379,27.2400744 C103.027473,27.7199132 102.651926,28 102.134126,28 L95.6576489,28 C95.1398494,28 94.9088311,27.7199132 95.0328754,27.2400744" id="Fill-7" fill="#D0251B"></path>
                    <path d="M113.537056,27.3595161 L112.001574,0.840227969 C111.973037,0.28007599 112.335231,0 112.876326,0 L119.663618,0 C120.121299,0 120.362761,0.199744117 120.369347,0.679564223 L120.33642,17.0802931 C120.350688,17.3592835 120.600931,17.3592835 120.753492,17.0802931 L128.739315,0.679564223 C128.932485,0.239910053 129.324313,0 129.783092,0 L136.403554,0 C136.945748,0 137.167454,0.28007599 136.861236,0.840227969 L122.073853,27.3595161 C121.848853,27.7600899 121.457026,28 120.999344,28 L114.29437,28 C113.836689,28 113.562299,27.7600899 113.537056,27.3595161" id="Fill-9" fill="#D0251B"></path>
                    <path d="M158.746878,6.4398263 L146.47753,6.4398263 C146.267116,6.4398263 146.112074,6.56032878 146.061132,6.76008065 L145.179608,10.2796216 C145.129773,10.4804591 145.225013,10.5998759 145.435427,10.5998759 L152.913982,10.5998759 C153.418976,10.5998759 153.642679,10.8799628 153.523075,11.3598015 L152.300459,16.2406948 C152.179748,16.7205335 151.8154,16.9995347 151.311514,16.9995347 L143.832959,16.9995347 C143.622545,16.9995347 143.466396,17.1200372 143.416561,17.3197891 L142.43426,21.2399194 C142.384425,21.4407568 142.479665,21.5601737 142.690079,21.5601737 L154.959427,21.5601737 C155.463313,21.5601737 155.688124,21.8402605 155.567413,22.3200993 L154.33483,27.2400744 C154.214119,27.7199132 153.849771,28 153.345884,28 L133.640064,28 C133.135071,28 132.911367,27.7199132 133.032079,27.2400744 L139.664548,0.759925558 C139.785259,0.280086849 140.149607,0 140.654601,0 L160.360421,0 C160.864307,0 161.08801,0.280086849 160.968407,0.759925558 L159.735824,5.67990074 C159.615113,6.15973945 159.250764,6.4398263 158.746878,6.4398263" id="Fill-11" fill="#D0251B"></path>
                    <g id="Group-15" transform="translate(162.000000, 61.000000)">
                        <mask id="mask-2" fill="white">
                            <use xlink:href="#path-1"></use>
                        </mask>
                        <g id="Clip-14"></g>
                        <path d="M0.171033637,5.47395301 C0.957876335,2.42083759 4.70985106,0 7.8947416,0 C11.1375197,0 13.6416949,2.42083759 12.8548522,5.47395301 C12.0680095,8.52604699 8.75769578,11 5.06039269,11 C1.36308961,11 -0.615809062,8.52604699 0.171033637,5.47395301" id="Fill-13" fill="#D0251B" mask="url(#mask-2)"></path>
                    </g>
                    <path d="M51.6625496,55.2006155 L45.5541004,55.2006155 C48.1175851,50.6593196 50.6744827,46.1245114 53.2269889,41.5907843 L55.4117146,41.5907843 L51.6625496,55.2006155 Z M67.3486608,32.0162189 L49.9026927,32.0162189 C49.2571556,32.0162189 48.6610219,32.3557348 48.3404491,32.9071779 L27.1826429,69.2959328 L26.5996834,70.2744739 C26.409755,70.5945272 26.6435975,70.9967562 27.0201607,70.9967562 L28.2201131,70.9967562 L36.6560089,70.9967562 L36.8920471,70.5858771 C37.6451736,69.2894452 40.16694,64.9395326 41.0122861,63.4084671 L49.2560577,63.4084671 L47.3490886,70.776179 L47.4083726,70.9362056 C47.4171554,70.9589121 47.4336232,70.9762123 47.442406,70.9967562 L56.7928126,70.9967562 C56.8619773,70.9448557 56.9245549,70.8983615 56.9937195,70.8453797 L67.4760117,32.886634 C67.5605463,32.5871247 67.5100451,32.2778841 67.3486608,32.0162189 L67.3486608,32.0162189 Z M128.132342,69.9414456 L137.327951,33.0585544 C137.494825,32.3892539 137.999837,32 138.698071,32 L147.435876,32 C148.135208,32 148.4459,32.3892539 148.279026,33.0585544 L141.166042,61.5843799 C141.096878,61.8633453 141.229718,62.0298594 141.520648,62.0298594 L159.112631,62.0298594 C159.811963,62.0298594 160.122655,62.4201946 159.955781,63.0894951 L158.247524,69.9414456 C158.08065,70.6096648 157.57454,71 156.876306,71 L128.973297,71 C128.275063,71 127.965468,70.6096648 128.132342,69.9414456 L128.132342,69.9414456 Z M131.745373,40.9701406 L114.73635,40.9701406 C114.444321,40.9701406 114.228045,41.1366547 114.15888,41.4156201 L112.935873,46.3180571 C112.866708,46.5970224 112.999548,46.7646178 113.291577,46.7646178 L123.659692,46.7646178 C124.359024,46.7646178 124.669716,47.1538717 124.502843,47.8231723 L122.807759,54.6199784 C122.640885,55.2881976 122.135873,55.6785328 121.436542,55.6785328 L111.068426,55.6785328 C110.776397,55.6785328 110.560121,55.845047 110.490956,56.1240123 L109.129619,61.5843799 C109.060455,61.8633453 109.193295,62.0298594 109.484226,62.0298594 L126.493249,62.0298594 C127.19258,62.0298594 127.50437,62.4201946 127.336399,63.0894951 L125.628141,69.9414456 C125.461268,70.6096648 124.956256,71 124.256924,71 L96.9379714,71 C96.2375417,71 95.9279474,70.6096648 96.094821,69.9414456 L105.291528,33.0585544 C105.458402,32.3892539 105.962316,32 106.662746,32 L133.981698,32 C134.68103,32 134.991722,32.3892539 134.824848,33.0585544 L133.115493,39.9115861 C132.949717,40.5798054 132.444705,40.9701406 131.745373,40.9701406 L131.745373,40.9701406 Z M74.652671,62.0298594 L79.486514,62.0298594 C82.1081848,62.0298594 84.5004046,59.9127506 85.4226004,56.6819429 L88.0058465,46.3180571 C88.8127678,43.0872494 87.4766817,40.9701406 84.6804524,40.9701406 L79.9036978,40.9701406 C79.6116691,40.9701406 79.3964901,41.1366547 79.3262275,41.4156201 L74.2980648,61.5843799 C74.2278023,61.8633453 74.3606424,62.0298594 74.652671,62.0298594 L74.652671,62.0298594 Z M61.2621686,69.9414456 L70.4588759,33.0585544 C70.6257494,32.3892539 71.1307614,32 71.8300932,32 L86.5676602,32 C96.1211694,32 101.277781,37.0138069 99.4026494,44.5361391 L95.9290453,58.4649422 C94.0539139,65.9851119 86.3963953,71 76.842886,71 L62.1053191,71 C61.4059873,71 61.096393,70.6096648 61.2621686,69.9414456 L61.2621686,69.9414456 Z M27.1661751,45.0367629 C27.7776787,42.5855444 26.2582514,40.9701406 23.4038358,40.9701406 L18.6852674,40.9701406 C18.3943366,40.9701406 18.1769618,41.1366547 18.1077972,41.4156201 L16.3292767,48.5465358 C16.260112,48.8255011 16.39405,48.9930966 16.6849808,48.9930966 L21.4024514,48.9930966 C24.2579648,48.9930966 26.5689435,47.4328371 27.1661751,45.0367629 L27.1661751,45.0367629 Z M38.1139565,44.8140231 C36.2388251,52.3352741 29.2224521,57.3501622 20.6010193,57.3501622 L14.6012575,57.3501622 C14.3092288,57.3501622 14.0929519,57.5166764 14.0237872,57.7956417 L10.9959111,69.9414456 C10.8290375,70.6096648 10.3229277,71 9.62469376,71 L0.886888669,71 C0.188654716,71 -0.122037437,70.6096648 0.0437382347,69.9414456 L9.24044552,33.0585544 C9.40731904,32.3892539 9.91233102,32 10.6116628,32 L27.4461274,32 C35.7755315,32 40.0319042,37.1251767 38.1139565,44.8140231 L38.1139565,44.8140231 Z" id="Fill-16" fill="#D0251B"></path>
                </g>
            </g>
        </g>
    </g>
</svg>