<?xml version="1.0" encoding="UTF-8"?>
<svg width="16px" height="16px" viewBox="0 0 16 16" version="1.1" xmlns="http://www.w3.org/2000/svg" xmlns:xlink="http://www.w3.org/1999/xlink">
    <title>926DA04C-03B2-4C08-8CAE-77AFE122A5CF</title>
    <g id="Page-1" stroke="none" stroke-width="1" fill="none" fill-rule="evenodd">
        <g id="Desktop-HD-Copy-9" transform="translate(-368.000000, -550.000000)" fill="#FFFFFF" fill-rule="nonzero">
            <g id="info" transform="translate(368.000000, 550.000000)">
                <path d="M7.66484138,12 L8.34972147,12 L8.34972147,6.87795031 L7.66484138,6.87795031 L7.66484138,12 Z M7.9925173,5.76319388 C8.12744268,5.76319388 8.23892543,5.72166806 8.32696554,5.63861641 C8.41500565,5.55556476 8.45902571,5.44657625 8.45902571,5.31165087 C8.45902571,5.17674128 8.41749989,5.06526642 8.33444824,4.97722631 C8.25138081,4.8891862 8.14239229,4.84516614 8.0074827,4.84516614 C7.87255732,4.84516614 7.76107457,4.88669196 7.67303446,4.96974361 C7.58499435,5.05279526 7.54097429,5.16178377 7.54097429,5.29670915 C7.54097429,5.43161875 7.58250011,5.5430936 7.66555176,5.63113371 C7.74861919,5.71917382 7.85760771,5.76319388 7.9925173,5.76319388 Z M8.01086886,16 C6.910991,16 5.87428197,15.7917315 4.90074176,15.3751946 C3.92720155,14.9586577 3.074679,14.3849052 2.34317411,13.653937 C1.61166922,12.9229531 1.03826398,12.0724985 0.622958389,11.1025734 C0.207652796,10.1326482 0,9.09628647 0,7.99348816 C0,6.88941115 0.208268462,5.85454911 0.624805385,4.88890204 C1.04134231,3.92325497 1.61509485,3.074679 2.346063,2.34317411 C3.07704694,1.61166922 3.92750148,1.03826398 4.89742664,0.622958389 C5.86735179,0.207652796 6.90371353,0 8.00651184,0 C9.11058885,0 10.1454509,0.208268462 11.111098,0.624805385 C12.076745,1.04134231 12.925321,1.61509485 13.6568259,2.346063 C14.3883308,3.07704694 14.961736,3.92565449 15.3770416,4.89188565 C15.7923472,5.85811681 16,6.89053198 16,7.98913114 C16,9.089009 15.7917315,10.125718 15.3751946,11.0992582 C14.9586577,12.0727985 14.3849052,12.925321 13.653937,13.6568259 C12.9229531,14.3883308 12.0743455,14.961736 11.1081143,15.3770416 C10.1418832,15.7923472 9.10946802,16 8.01086886,16 L8.01086886,16 Z M7.99940801,15.3151199 C10.0246937,15.3151199 11.7503004,14.6023612 13.1762282,13.1768439 C14.602156,11.7513108 15.3151199,10.0258935 15.3151199,8.00059199 C15.3151199,5.9753063 14.6023612,4.24969957 13.1768439,2.82377178 C11.7513108,1.39784399 10.0258935,0.684880093 8.00059199,0.684880093 C5.9753063,0.684880093 4.24969957,1.39763877 2.82377178,2.82315611 C1.39784399,4.24868925 0.684880093,5.97410655 0.684880093,7.99940801 C0.684880093,10.0246937 1.39763877,11.7503004 2.82315611,13.1762282 C4.24868925,14.602156 5.97410655,15.3151199 7.99940801,15.3151199 Z" id="Shape"></path>
            </g>
        </g>
    </g>
</svg>