<?xml version="1.0" encoding="UTF-8"?>
<svg width="21px" height="17px" viewBox="0 0 21 17" version="1.1" xmlns="http://www.w3.org/2000/svg" xmlns:xlink="http://www.w3.org/1999/xlink">
    <title>478BFEBB-2A50-490F-B9B7-F0CD42C9009C</title>
    <g id="Page-1" stroke="none" stroke-width="1" fill="none" fill-rule="evenodd">
        <g id="Desktop-HD-Copy-9" transform="translate(-770.000000, -550.000000)" fill="#FFFFFF" fill-rule="nonzero">
            <g id="tab-4" transform="translate(770.159292, 550.000000)">
                <g id="account_tree_FILL0_wght200_GRAD-25_opsz20" transform="translate(10.000000, 8.500000) scale(-1, 1) translate(-10.000000, -8.500000) ">
                    <path d="M14.5719139,17 L14.5719139,14.0854795 L9.59760368,14.0854795 L9.59760368,3.70404436 L5.42808607,3.70404436 L5.42808607,6.61856483 L0,6.61856483 L0,0 L5.42808607,0 L5.42808607,2.91452047 L14.5719139,2.91452047 L14.5719139,0 L20,0 L20,6.61856483 L14.5719139,6.61856483 L14.5719139,3.70404436 L10.4023963,3.70404436 L10.4023963,13.2959283 L14.5719139,13.2959283 L14.5719139,10.3814079 L20,10.3814079 L20,17 L14.5719139,17 Z M0.857660806,0.789523884 L0.857660806,5.82904094 L0.857660806,0.789523884 Z M15.4296026,11.1709591 L15.4296026,16.2104761 L15.4296026,11.1709591 Z M15.4296026,0.789523884 L15.4296026,5.82904094 L15.4296026,0.789523884 Z M15.3767344,5.82904094 L19.1952074,5.82904094 L19.1952074,0.789523884 L15.3767344,0.789523884 L15.3767344,5.82904094 Z M15.3767344,16.2104761 L19.1952074,16.2104761 L19.1952074,11.1709591 L15.3767344,11.1709591 L15.3767344,16.2104761 Z M0.804792639,5.82904094 L4.62329344,5.82904094 L4.62329344,0.789523884 L0.804792639,0.789523884 L0.804792639,5.82904094 Z" id="Shape"></path>
                </g>
            </g>
        </g>
    </g>
</svg>