<?xml version="1.0" encoding="UTF-8"?>
<svg width="18px" height="17px" viewBox="0 0 18 17" version="1.1" xmlns="http://www.w3.org/2000/svg" xmlns:xlink="http://www.w3.org/1999/xlink">
    <title>920FF58F-61DB-4A47-B49F-BF9861C2E010</title>
    <g id="Page-1" stroke="none" stroke-width="1" fill="none" fill-rule="evenodd">
        <g id="Desktop-HD-Copy-9" transform="translate(-895.000000, -550.000000)" fill="#FFFFFF" fill-rule="nonzero">
            <g id="hora-y-resultados" transform="translate(895.318584, 550.000000)">
                <path d="M14.6700497,15.3736758 L15.3700001,14.6753146 L13.774789,13.0837505 L13.774789,11.0040909 L12.800273,11.0040909 L12.800273,13.5081692 L14.6700497,15.3736758 Z M1.3457818,14.5537798 C0.972471615,14.5537798 0.654847101,14.4231161 0.392908261,14.1617887 C0.13096942,13.9004446 0,13.5835412 0,13.2110786 L0,1.34272631 C0,0.970263693 0.13096942,0.653360321 0.392908261,0.392016192 C0.654847101,0.130672064 0.972471615,0 1.3457818,0 L13.2566005,0 C13.6299107,0 13.9475352,0.130672064 14.2094741,0.392016192 C14.4714129,0.653360321 14.6023823,0.970263693 14.6023823,1.34272631 L14.6023823,7.0328673 C14.4764989,7.03684656 14.3532464,7.04151969 14.2326248,7.04688669 C14.1120032,7.0522704 13.9929066,7.04534012 13.8753349,7.02609586 L13.8753349,1.34272631 C13.8753349,1.18838764 13.810885,1.04691472 13.6819851,0.918307524 C13.5530853,0.789700331 13.4112904,0.725396734 13.2566005,0.725396734 L1.3457818,0.725396734 C1.19109193,0.725396734 1.04929707,0.789700331 0.920397215,0.918307524 C0.791497365,1.04691472 0.72704744,1.18838764 0.72704744,1.34272631 L0.72704744,13.2110786 C0.72704744,13.3654173 0.791497365,13.5068902 0.920397215,13.6354974 C1.04929707,13.7641046 1.19109193,13.8284082 1.3457818,13.8284082 L7.10862063,13.8284082 C7.11502205,13.9560122 7.11557505,14.0760506 7.11027964,14.1885234 C7.10498422,14.3009961 7.10900605,14.4227483 7.12234514,14.5537798 L1.3457818,14.5537798 Z M0.774806745,13.1802059 L0.774806745,13.8284082 L0.774806745,0.725396734 L0.774806745,7.02609586 L0.774806745,6.97593705 L0.774806745,13.1802059 Z M3.05506219,11.274171 L7.32200418,11.274171 C7.37579623,11.155211 7.42733439,11.0363681 7.47661864,10.9176422 C7.52588613,10.7989163 7.58213319,10.6759687 7.64535981,10.5487994 L3.05506219,10.5487994 L3.05506219,11.274171 Z M3.05506219,7.63958828 L10.2489206,7.63958828 C10.4474317,7.60807183 10.6071154,7.56820394 10.7279716,7.5199846 C10.8488278,7.47174854 10.9801491,7.41032908 11.1219356,7.3357262 L11.1219356,6.91421663 L3.05506219,6.91421663 L3.05506219,7.63958828 Z M3.05506219,4.00500555 L11.5473202,4.00500555 L11.5473202,3.27960882 L3.05506219,3.27960882 L3.05506219,4.00500555 Z M13.2828933,17 C12.2470191,17 11.3700745,16.6402694 10.6520594,15.9208081 C9.93406111,15.2013468 9.57506195,14.3248467 9.57506195,13.2913076 C9.57506195,12.2577853 9.93561119,11.3828401 10.6567097,10.6664719 C11.3778081,9.95010378 12.2563028,9.59191971 13.2921938,9.59191971 C14.328068,9.59191971 15.2050042,9.95165035 15.9230025,10.6711116 C16.6410008,11.3905729 17,12.2670647 17,13.300587 C17,14.3341093 16.6394508,15.2090629 15.9183523,15.9254478 C15.1972538,16.6418159 14.3187675,17 13.2828933,17 Z" id="Shape"></path>
            </g>
        </g>
    </g>
</svg>