<?xml version="1.0" encoding="UTF-8"?>
<svg width="584px" height="111px" viewBox="0 0 584 111" version="1.1" xmlns="http://www.w3.org/2000/svg" xmlns:xlink="http://www.w3.org/1999/xlink">
    <title>BC0A09AD-2881-4E24-B521-E7BCE4059C3F</title>
    <defs>
        <polygon id="path-1" points="0 0 96.0323112 0 96.0323112 110 0 110"></polygon>
        <polygon id="path-3" points="0 0 110.47558 0 110.47558 109.851446 0 109.851446"></polygon>
    </defs>
    <g id="Page-1" stroke="none" stroke-width="1" fill="none" fill-rule="evenodd">
        <g id="Desktop-HD-Copy-4" transform="translate(-427.000000, -4517.000000)">
            <g id="Logo-A1Padel-Copy-2" transform="translate(427.740741, 4517.300699)">
                <g id="Group-3" transform="translate(359.399465, 0.000000)">
                    <mask id="mask-2" fill="white">
                        <use xlink:href="#path-1"></use>
                    </mask>
                    <g id="Clip-2"></g>
                    <path d="M31.6125902,87.6862445 L41.0778968,87.6862445 C45.1709384,87.6862445 48.9069325,86.1936304 52.2929727,83.2107602 C55.6695548,80.22789 58.0908573,76.2145737 59.5521512,71.1896754 L68.2040514,38.8190492 C68.4144967,38.0857112 68.6154837,37.0906351 68.7975543,35.833821 C69.4099736,31.6483707 68.7810024,28.3400965 66.9271927,25.9325783 C65.0710184,23.5250602 62.2548355,22.3224801 58.4668212,22.3224801 L49.3183648,22.3224801 C48.6870291,22.3224801 48.3299815,22.5842181 48.2590449,23.1076942 L31.0971176,86.9104624 C31.0167228,87.4339385 31.1916997,87.6956765 31.6125902,87.6956765 L31.6125902,87.6862445 Z M0.234968893,109.450586 C-0.0274965154,109.085096 -0.0724230267,108.639434 0.112012125,108.115958 L28.6568987,1.88333473 C28.7349289,1.35985869 29.0068526,0.914196662 29.4773987,0.548706637 C29.9503093,0.183216612 30.44923,-0.000707400048 30.9741609,-0.000707400048 L63.6026308,-0.000707400048 C74.737312,-0.000707400048 83.1976834,2.69448678 88.9790161,8.09430714 C94.7627133,13.4941275 96.9830287,20.74262 95.663608,29.8586486 C95.5217349,30.8018487 95.1977911,32.3180428 94.6823185,34.4119469 L83.6422194,75.5873457 C81.8073261,82.3996081 78.5182326,88.4195825 73.7678452,93.6614169 C69.0079995,98.9056093 63.2006568,102.935432 56.324536,105.760316 C49.4484152,108.587558 42.0213535,110 34.0362573,110 L1.40778729,110 C0.882856477,110 0.487976088,109.818434 0.22551068,109.450586 L0.234968893,109.450586 Z" id="Fill-1" fill="#F0E6CD" mask="url(#mask-2)"></path>
                </g>
                <path d="M582.540866,89.5007256 C582.793874,88.5669576 582.086872,87.6520535 581.115041,87.6520535 L548.451103,87.6520535 C548.032577,87.6520535 547.864693,87.3903155 547.93563,86.8668394 L570.758298,2.25943575 C570.940368,1.01205367 570.450906,0.382467626 569.306462,0.382467626 L547.822131,0.382467626 C547.297201,0.382467626 546.79828,0.566391638 546.325369,0.931881663 C545.852459,1.29972969 545.582899,1.74303372 545.502505,2.25943575 L517.099491,107.985089 C516.917421,108.508565 516.959983,108.954227 517.222448,109.312643 C517.484913,109.678133 517.870336,109.862057 518.395266,109.862057 L575.936669,109.862057 C576.601109,109.862057 577.187518,109.416395 577.362495,108.770303 L582.540866,89.5101576 L582.540866,89.5007256 Z" id="Fill-4" fill="#F0E6CD"></path>
                <path d="M514.283308,87.6426215 L474.10482,87.6426215 C473.686294,87.6426215 473.518411,87.3808835 473.589347,86.8574074 L479.108215,66.2178321 C479.389596,65.694356 479.746644,65.432618 480.167534,65.432618 L510.748301,65.432618 C511.273232,65.432618 511.736685,65.248694 512.157575,64.883204 C512.578466,64.5177139 512.874035,64.0720519 513.05847,63.5580079 L517.912898,45.2552106 C518.087875,44.7317346 518.052406,44.2955046 517.792305,43.9300146 C517.52984,43.5645245 517.13496,43.3806005 516.619487,43.3806005 L486.036356,43.3806005 C485.61783,43.3806005 485.452311,43.1188625 485.520883,42.5953865 L490.673244,23.3611792 C490.751275,22.8377031 491.101229,22.5759651 491.732564,22.5759651 L531.76918,22.5759651 L537.734947,0.365961625 L473.475849,0.365961625 C472.950918,0.365961625 472.451997,0.547527637 471.988545,0.915375662 C471.515634,1.28086569 471.246075,1.72652772 471.16568,2.24057175 L442.762667,107.968583 C442.578232,108.492059 442.623158,108.935363 442.885624,109.293779 C443.148089,109.659269 443.533511,109.843193 444.058442,109.843193 L508.326999,109.843193 L514.292767,87.6331895 L514.283308,87.6426215 Z" id="Fill-6" fill="#F0E6CD"></path>
                <path d="M277.363114,32.9646064 C276.715227,37.3882147 274.747919,40.981807 271.458825,43.7642471 C268.169732,46.5372553 264.249302,47.9261174 259.718818,47.9261174 L241.192544,47.9261174 L248.120685,22.0069797 L266.734448,22.0069797 C270.444432,22.0069797 273.260615,23.0114877 275.194819,25.0181459 C277.117201,27.024804 277.843119,29.6751962 277.363114,32.9646064 Z M297.781032,7.97216274 C293.030644,2.73032838 285.953536,0.103516207 276.575718,0.103516207 L230.161903,0.103516207 L201.399477,107.609459 C201.092086,108.743658 201.950418,109.851918 203.13033,109.851918 L223.259772,109.851918 C224.073178,109.851918 224.78018,109.311936 224.990625,108.526722 L235.751707,68.2756588 L257.068154,68.2756588 C264.18073,68.2756588 270.801479,66.8891547 276.93513,64.1161465 C283.056959,61.3407803 288.306267,57.3816981 292.661774,52.2341837 C297.019645,47.0961014 300.098294,41.182237 301.900083,34.4996645 C302.467576,32.0308384 302.826988,30.2859182 302.975955,29.2578302 C304.278824,20.3068616 302.547971,13.2139971 297.797583,7.97216274 L297.781032,7.97216274 Z" id="Fill-8" fill="#F0E6CD"></path>
                <g id="Group-12" transform="translate(268.740498, 0.000000)">
                    <mask id="mask-4" fill="white">
                        <use xlink:href="#path-3"></use>
                    </mask>
                    <g id="Clip-11"></g>
                    <path d="M77.0726493,35.668761 L73.0221697,50.724592 L68.728141,66.7330551 L68.7186828,66.7330551 L48.9486533,66.7330551 C48.9486533,66.7330551 48.939195,66.7330551 48.9486533,66.7141911 C57.2151313,51.9814061 65.4910676,37.2486211 73.7575457,22.5134781 C73.8710443,22.3130481 74.0814895,22.1904321 74.3084866,22.1904321 L79.8722804,22.1904321 C80.2837126,22.1904321 80.58874,22.5842181 80.4846997,22.9850781 L77.0821076,35.659329 L77.0726493,35.668761 Z M108.861703,-0.000707400048 L62.9444438,-0.000707400048 C62.3674928,-0.000707400048 61.8260101,0.312906621 61.5375346,0.810444655 L0.198659365,107.637284 C-0.36883341,108.622928 0.347626218,109.851446 1.48497632,109.851446 L23.5462579,109.851446 C24.080647,109.851446 24.5606513,109.573202 24.8325749,109.120466 C27.4903327,104.50586 34.6809391,91.8481148 37.1566263,87.4504445 C37.4190917,86.9788445 37.9014606,86.7006004 38.4429433,86.7006004 L63.3204078,86.7006004 L57.6100117,107.986268 C57.35464,108.92711 58.0640059,109.851446 59.042931,109.851446 L79.8888322,109.851446 C80.5627299,109.851446 81.1491391,109.39871 81.324116,108.752618 L110.417579,2.04132074 C110.698961,1.01087467 109.921023,-0.000707400048 108.852245,-0.000707400048 L108.861703,-0.000707400048 Z" id="Fill-10" fill="#F0E6CD" mask="url(#mask-4)"></path>
                </g>
                <path d="M113.590138,45.3257148 L91.5454085,45.3257148 C98.5799543,38.2069124 105.612136,31.0975419 112.644317,23.9787394 L104.422765,3.32265802 L0.387152441,107.418933 C-0.442805742,108.246591 0.150697118,109.661391 1.32351552,109.661391 L26.4823619,109.661391 C26.8323157,109.661391 27.1633532,109.519911 27.4163604,109.277037 L71.9243458,65.2248782 L108.36684,65.2248782 L113.599596,45.3162828 L113.590138,45.3257148 Z" id="Fill-13" fill="#F0E6CD"></path>
                <path d="M195.905202,7.98088734 C191.294323,2.88760699 184.24559,0.190054813 175.137331,0.190054813 L159.987638,0.190054813 L154.615373,20.1670322 L165.768971,20.1670322 C169.37255,20.1670322 172.110702,21.1456022 173.983429,23.0909524 C175.856155,25.0339445 176.556063,27.6088807 176.09261,30.8016129 C175.470733,35.0931732 173.555445,38.5900874 170.363298,41.2876396 C167.168786,43.9828338 163.36422,45.3339678 158.963787,45.3339678 L147.862209,45.3339678 L142.544329,65.1010832 L156.391153,65.1010832 C163.302742,65.1010832 169.731962,63.7570231 175.681178,61.0547549 C181.628029,58.3572027 186.721277,54.5207365 190.953827,49.5217761 C195.188742,44.5322478 198.170444,38.7928754 199.920213,32.301301 C200.471154,29.9032148 200.81165,28.2101707 200.960616,27.2080206 C202.230382,18.51879 200.549184,13.0835997 195.931212,7.99031934" id="Fill-15" fill="#F0E6CD"></path>
                <polygon id="Fill-17" fill="#F0E6CD" points="154.721542 0.190998013 143.078482 0.190998013 108.648222 0.190998013 116.54583 20.0359273 125.495664 20.0359273 107.17747 89.684178 95.2459343 89.684178 89.8760339 109.661155 137.252222 109.661155 142.615029 89.684178 130.648025 89.684178"></polygon>
            </g>
        </g>
    </g>
</svg>