<?xml version="1.0" encoding="UTF-8"?>
<svg width="22px" height="17px" viewBox="0 0 22 17" version="1.1" xmlns="http://www.w3.org/2000/svg" xmlns:xlink="http://www.w3.org/1999/xlink">
    <title>EFCF5367-E39E-4BA7-9F8F-F606269E3C5E</title>
    <g id="Page-1" stroke="none" stroke-width="1" fill="none" fill-rule="evenodd">
        <g id="Desktop-HD-Copy-9" transform="translate(-468.000000, -550.000000)" fill="#FFFFFF" fill-rule="nonzero">
            <g id="Tab-2" transform="translate(468.000000, 550.000000)">
                <g id="group_FILL0_wght200_GRAD-25_opsz20" transform="translate(0.000000, 0.570642)">
                    <path d="M0,15.8668789 L0,14.3779992 C0,13.9277868 0.104594324,13.5577272 0.313782972,13.2678206 C0.522948073,12.977914 0.830185069,12.7185356 1.23549396,12.4896855 C2.24847186,11.8883505 3.3069537,11.3995451 4.41093949,11.0232693 C5.51492528,10.6469699 6.90055283,10.4588202 8.56782215,10.4588202 C10.235115,10.4588202 11.617811,10.6469699 12.7159101,11.0232693 C13.8139857,11.3995451 14.8756934,11.8884447 15.9010333,12.489968 C16.3038934,12.7225621 16.6097058,12.9831884 16.8184706,13.2718471 C17.0272119,13.5605293 17.1315825,13.9292467 17.1315825,14.3779992 L17.1315825,15.8668789 L0,15.8668789 Z M19.6488043,15.8668789 L19.6488043,14.6170803 C19.6488043,13.8572292 19.5403836,13.1783903 19.3235423,12.5805638 C19.106701,11.9827138 18.8469812,11.5027737 18.5443829,11.1407436 C18.9147956,11.3381825 19.3060001,11.5430503 19.7179962,11.7553471 C20.1299924,11.9676204 20.5715278,12.2146721 21.0426026,12.4965022 C21.2989081,12.6314482 21.5201173,12.899845 21.7062302,13.3016925 C21.8923196,13.7035165 21.9853643,14.1419791 21.9853643,14.6170803 L21.9853643,15.8668789 L19.6488043,15.8668789 L19.6488043,15.8668789 Z M8.56782215,0 C9.56742553,0 10.4078063,0.340579086 11.0889645,1.02173726 C11.7701227,1.70289543 12.1107017,2.54327621 12.1107017,3.5428796 C12.1107017,4.54248298 11.7701227,5.38286376 11.0889645,6.06402193 C10.4078063,6.74518011 9.56742553,7.08575919 8.56782215,7.08575919 C7.56821876,7.08575919 6.72783798,6.74518011 6.04667981,6.06402193 C5.36552164,5.38286376 5.02494255,4.54248298 5.02494255,3.5428796 C5.02494255,2.54327621 5.36552164,1.70289543 6.04667981,1.02173726 C6.72783798,0.340579086 7.56821876,0 8.56782215,0 Z M13.356,0.064 L13.5207094,0.0971772611 C14.144908,0.242943153 14.6927928,0.552695672 15.1643639,1.02643482 C15.845522,1.71070115 16.1861011,2.545313 16.1861011,3.53027035 C16.1861011,4.52007832 15.845522,5.35717434 15.1643639,6.04155841 C14.6927928,6.51534646 14.144908,6.82513096 13.5207094,6.97091189 L13.375,7 L13.4209456,6.94546419 C13.75384,6.51796125 14.0248344,6.05039626 14.2339288,5.54276922 C14.4848187,4.93361678 14.6102636,4.2629251 14.6102636,3.53069419 C14.6102636,2.80479734 14.4764596,2.1428768 14.2088516,1.54493257 C13.9947653,1.06657719 13.7396663,0.612921325 13.4435546,0.18396498 L13.356,0.064 Z M1.02156066,14.8452829 L16.1100218,14.8452829 L16.1100218,14.3814605 C16.1100218,14.1498554 16.0562883,13.9540531 15.9488213,13.7940534 C15.8413778,13.6340538 15.6193445,13.4605501 15.2827212,13.2735424 C14.3950116,12.7129668 13.4127857,12.2739626 12.3360434,11.9565299 C11.2592776,11.6390972 10.0052053,11.4803808 8.57382655,11.4803808 C7.13846842,11.4803808 5.88046384,11.6332105 4.7998128,11.9388699 C3.71913822,12.2445293 2.73548771,12.6894201 1.84886126,13.2735424 C1.50319609,13.4578187 1.27890225,13.6283908 1.17597974,13.7852588 C1.07303369,13.9421031 1.02156066,14.1385884 1.02156066,14.3747144 L1.02156066,14.8452829 L1.02156066,14.8452829 Z M8.57315547,6.06419853 C9.27329226,6.06419853 9.86765739,5.81812402 10.3562509,5.325975 C10.8448443,4.83384952 11.0891411,4.23771839 11.0891411,3.53758159 C11.0891411,2.8374448 10.8430783,2.24307967 10.3509529,1.75448619 C9.85880384,1.26589272 9.26266094,1.02159598 8.56252414,1.02159598 C7.86238735,1.02159598 7.26802222,1.26765872 6.77942874,1.75978419 C6.29083527,2.25193322 6.04653853,2.84807613 6.04653853,3.54821292 C6.04653853,4.24834971 6.29260127,4.84271484 6.78472674,5.33130832 C7.27687577,5.8199018 7.87301868,6.06419853 8.57315547,6.06419853 Z" id="Shape"></path>
                </g>
            </g>
        </g>
    </g>
</svg>