<?xml version="1.0" encoding="UTF-8"?>
<svg width="17px" height="17px" viewBox="0 0 17 17" version="1.1" xmlns="http://www.w3.org/2000/svg" xmlns:xlink="http://www.w3.org/1999/xlink">
    <title>AF3D201D-224D-4618-B02B-B52D0ED8188D</title>
    <g id="Page-1" stroke="none" stroke-width="1" fill="none" fill-rule="evenodd">
        <g id="Desktop-HD-Copy-9" transform="translate(-619.000000, -550.000000)" fill="#FFFFFF" fill-rule="nonzero">
            <g id="globe_FILL0_wght200_GRAD-25_opsz20" transform="translate(619.000000, 550.000000)">
                <path d="M8.51154816,17 C7.34292794,17 6.24142459,16.7787148 5.20703812,16.3361443 C4.17265164,15.8935738 3.26684643,15.2839617 2.48962249,14.5073081 C1.71239855,13.7306376 1.10315548,12.8270297 0.661893289,11.7964842 C0.220631096,10.7659387 0,9.66480438 0,8.49308117 C0,7.31999935 0.22128524,6.22045843 0.663855721,5.19445842 C1.1064262,4.16845841 1.71603827,3.26684643 2.49269194,2.48962249 C3.26936237,1.71239855 4.17297033,1.10315548 5.2035158,0.661893289 C6.23406128,0.220631096 7.33519562,0 8.50691883,0 C9.68000065,0 10.7795416,0.22128524 11.8055416,0.663855721 C12.8315416,1.1064262 13.7331536,1.71603827 14.5103775,2.49269194 C15.2876015,3.26936237 15.8968445,4.1710079 16.3381067,5.19762851 C16.7793689,6.22424912 17,7.32119023 17,8.48845184 C17,9.65707206 16.7787148,10.7585754 16.3361443,11.7929619 C15.8935738,12.8273484 15.2839617,13.7331536 14.5073081,14.5103775 C13.7306376,15.2876015 12.8289921,15.8968445 11.8023715,16.3381067 C10.7757509,16.7793689 9.67880977,17 8.51154816,17 L8.51154816,17 Z M8.5,16.2723149 C10.5178671,16.2723149 12.2590145,15.598907 13.723442,14.2520912 C15.1878696,12.9052754 16.020721,11.247196 16.2219961,9.27785293 C16.2219961,9.27924508 16.2257029,9.286231 16.2331166,9.2988107 C16.240547,9.3113904 16.2368346,9.2996158 16.2219961,9.26348691 C16.1118651,9.35008554 15.9921231,9.41269888 15.8627703,9.45132694 C15.7334343,9.48995499 15.5809013,9.50926902 15.4051713,9.50926902 L11.2702755,9.50926902 C10.8619553,9.50926902 10.5144371,9.36687524 10.2277206,9.0820877 C9.94100419,8.79728338 9.79764597,8.45129142 9.79764597,8.04411181 L9.79764597,7.00188399 L6.25210895,7.00188399 L6.25210895,4.92306406 C6.25210895,4.51744434 6.3947627,4.17041246 6.68007021,3.88196841 C6.96539449,3.59354114 7.31152902,3.4493275 7.7184738,3.4493275 L8.76029907,3.4493275 L8.76029907,2.0713476 C8.76029907,1.73746569 8.85707048,1.47843297 9.0506133,1.29424945 C9.24413934,1.11006593 9.47475872,1.01442669 9.74247142,1.00733174 C9.57603366,0.89830771 9.36589403,0.824448121 9.11205253,0.785752976 C8.85821104,0.747041058 8.65419353,0.727685099 8.5,0.727685099 C6.34794946,0.727685099 4.51455101,1.48505828 2.99980464,2.99980464 C1.48505828,4.51455101 0.727685099,6.34794946 0.727685099,8.5 L0.727685099,8.79028907 C0.727685099,8.88061128 0.73413429,8.97738269 0.747032672,9.08060329 L5.31539962,9.08060329 C6.15072499,9.08060329 6.85032382,9.36248912 7.41419611,9.92626078 C7.97808518,10.4900157 8.26002972,11.1865534 8.26002972,12.0158741 L8.26002972,13.0625551 L5.14798902,13.0625551 L5.14798902,15.5765571 C5.6505395,15.8062288 6.18586427,15.9796021 6.75396334,16.0966772 C7.32206242,16.213769 7.90407464,16.2723149 8.5,16.2723149 Z" id="Shape"></path>
            </g>
        </g>
    </g>
</svg>