<?xml version="1.0" encoding="UTF-8"?>
<svg width="118px" height="27px" viewBox="0 0 118 27" version="1.1" xmlns="http://www.w3.org/2000/svg" xmlns:xlink="http://www.w3.org/1999/xlink">
    <title>DE183E56-AC08-432E-92FF-2A564261D367</title>
    <defs>
        <polygon id="path-1" points="1.17310662e-14 0 23.3464485 0 23.3464485 26.8171647 1.17310662e-14 26.8171647"></polygon>
        <polygon id="path-3" points="0 0 27.617446 0 27.617446 25.9240145 0 25.9240145"></polygon>
    </defs>
    <g id="Page-1" stroke="none" stroke-width="1" fill="none" fill-rule="evenodd">
        <g id="Desktop-HD" transform="translate(-150.000000, -51.000000)">
            <g id="A1Padel-logo-VF" transform="translate(150.907193, 51.091418)">
                <g id="Group-3" transform="translate(62.738822, 0.000000)">
                    <mask id="mask-2" fill="white">
                        <use xlink:href="#path-1"></use>
                    </mask>
                    <g id="Clip-2"></g>
                    <path d="M7.68527732,21.3771583 L9.98635968,21.3771583 C10.9815004,21.3771583 11.8895508,21.0135254 12.7125747,20.2862596 C13.5335349,19.5589937 14.1225294,18.5807757 14.4779073,17.3557331 L16.5812824,9.46353657 C16.6320506,9.28481574 16.6811679,9.04253137 16.7257449,8.73627072 C16.8747478,7.71553948 16.7216174,6.90943834 16.2704815,6.32250755 C15.8197582,5.73557677 15.1350057,5.44211138 14.21416,5.44211138 L11.9894364,5.44211138 C11.8367188,5.44211138 11.7492158,5.50567491 11.732293,5.63362747 L7.55980126,21.187706 C7.54081475,21.3156585 7.58332802,21.3792221 7.68527732,21.3792221 L7.68527732,21.3771583 Z M0.0568281307,26.6830621 C-0.00673540003,26.5939081 -0.0174669052,26.4853548 0.0271101163,26.357815 L6.96626647,0.459390972 C6.98566573,0.33185116 7.05170576,0.223297858 7.16645032,0.133731065 C7.28119487,0.0445770215 7.40254343,0 7.53008324,0 L15.4623166,0 C18.1695451,0 20.2262794,0.657098317 21.6321066,1.9733587 C23.037521,3.29003184 23.577811,5.05701544 23.2566913,7.27967527 C23.2228458,7.50916438 23.1440105,7.87940131 23.0185345,8.38956055 L20.3348327,18.4276454 C19.888237,20.0885522 19.0883271,21.5558792 17.9338648,22.8337538 C16.776926,24.1120411 15.3644948,25.0943866 13.6932692,25.7836795 C12.0216309,26.4725595 10.2158488,26.817206 8.27427185,26.817206 L0.342038518,26.817206 C0.214498707,26.817206 0.118740661,26.7726289 0.0547643797,26.6830621 L0.0568281307,26.6830621 Z" id="Fill-1" fill="#FEFEFE" mask="url(#mask-2)"></path>
                </g>
                <path d="M116.98744,21.8195027 C117.04894,21.5920774 116.876823,21.3687795 116.64073,21.3687795 L108.699829,21.3687795 C108.597879,21.3687795 108.55743,21.3048032 108.574353,21.1772634 L114.122954,0.550897691 C114.167531,0.246700794 114.048246,0.0935704702 113.769639,0.0935704702 L108.546698,0.0935704702 C108.419159,0.0935704702 108.29781,0.138147492 108.183066,0.227301535 C108.068321,0.316868328 108.002281,0.425421631 107.983294,0.550897691 L101.077984,26.3259094 C101.032994,26.4534492 101.043725,26.5620025 101.107702,26.6490928 C101.171265,26.7386596 101.264959,26.7832366 101.392499,26.7832366 L115.381842,26.7832366 C115.543227,26.7832366 115.686039,26.6746833 115.728552,26.5174255 L116.98744,21.8215665 L116.98744,21.8195027 Z" id="Fill-4" fill="#FEFEFE"></path>
                <path d="M100.393066,21.3665094 L90.6253324,21.3665094 C90.5233831,21.3665094 90.4829336,21.3025331 90.4998564,21.1749933 L91.8417073,16.1435683 C91.9098111,16.0156158 91.9969013,15.9520523 92.0992634,15.9520523 L99.53372,15.9520523 C99.6616726,15.9520523 99.7743534,15.9074752 99.8763027,15.8179084 C99.978252,15.7287544 100.050483,15.6202011 100.095473,15.494725 L101.275526,11.0328954 C101.318039,10.9053556 101.309784,10.7992788 101.245808,10.709712 C101.182244,10.6205579 101.086486,10.5759809 100.96101,10.5759809 L93.5261408,10.5759809 C93.4237788,10.5759809 93.383742,10.5120046 93.4006648,10.3844648 L94.6533616,5.6952098 C94.6723481,5.56766999 94.7573747,5.50369371 94.910505,5.50369371 L104.644393,5.50369371 L106.094797,0.0892365931 L90.4722021,0.0892365931 C90.3446623,0.0892365931 90.2233137,0.133813615 90.1106329,0.223380408 C89.9958884,0.312534451 89.9298483,0.421087753 89.9108618,0.546563814 L83.005551,26.3215755 C82.960974,26.4491153 82.9712927,26.5576686 83.035269,26.6447589 C83.0988325,26.7343257 83.1925268,26.7789027 83.3200667,26.7789027 L98.9447255,26.7789027 L100.39513,21.3644456 L100.393066,21.3665094 Z" id="Fill-6" fill="#FEFEFE"></path>
                <path d="M59.4356572,8.69586248 L58.4508353,12.36645 L57.40699,16.2690031 L57.4045135,16.2690031 L52.5984502,16.2690031 C52.5984502,16.2690031 52.5963864,16.2690031 52.5984502,16.2644629 C54.6081309,12.6727106 56.6198754,9.08095841 58.6295561,5.48879343 C58.6572104,5.4400889 58.7083914,5.41037089 58.7636999,5.41037089 L60.1162823,5.41037089 C60.2161679,5.41037089 60.2904629,5.50571619 60.2648724,5.60353798 L59.437721,8.69379873 L59.4356572,8.69586248 Z M67.163992,4.127502e-05 L56.0011628,4.127502e-05 C55.8608278,4.127502e-05 55.7287477,0.0764000619 55.6585802,0.197748621 L40.7463282,26.241048 C40.6084696,26.4812686 40.7826502,26.7809252 41.0591929,26.7809252 L46.422469,26.7809252 C46.5524853,26.7809252 46.6692936,26.7128214 46.7353336,26.6022044 C47.3817004,25.4774601 49.1296975,22.3917396 49.7314873,21.3198273 C49.7954636,21.2050828 49.9122719,21.136979 50.044352,21.136979 L56.0923806,21.136979 L54.703889,26.3260745 C54.6419764,26.5555636 54.814506,26.7809252 55.0526629,26.7809252 L60.1204098,26.7809252 C60.2842717,26.7809252 60.4266705,26.6703082 60.4691837,26.5130503 L67.5424839,0.497405265 C67.6105877,0.246453144 67.4211353,4.127502e-05 67.1619282,4.127502e-05 L67.163992,4.127502e-05 Z" id="Fill-8" fill="#FEFEFE"></path>
                <g id="Group-12" transform="translate(0.000000, 0.810146)">
                    <mask id="mask-4" fill="white">
                        <use xlink:href="#path-3"></use>
                    </mask>
                    <g id="Clip-11"></g>
                    <path d="M27.6153823,10.2399197 L22.2562337,10.2399197 C23.965845,8.50471786 25.6758691,6.77116702 27.3858932,5.03596518 L25.3865312,0 L0.0940244954,25.3775333 C-0.107810352,25.5793681 0.0366522177,25.9240145 0.321862606,25.9240145 L6.43799506,25.9240145 C6.5230216,25.9240145 6.60392064,25.890169 6.66542042,25.8303202 L17.4860796,15.0909728 L26.3457627,15.0909728 L27.617446,10.2378559 L27.6153823,10.2399197 Z" id="Fill-10" fill="#FEFEFE" mask="url(#mask-4)"></path>
                </g>
                <path d="M47.6273281,1.94582827 C46.5067113,0.703862915 44.7925597,0.0467645976 42.5785676,0.0467645976 L38.8951848,0.0467645976 L37.589656,4.9168042 L40.301012,4.9168042 C41.1772807,4.9168042 41.842634,5.15496107 42.2978975,5.62921104 C42.753161,6.10346102 42.923214,6.73084133 42.8105332,7.5092882 C42.6594667,8.55560996 42.1938844,9.40835187 41.4175013,10.0654502 C40.6411182,10.7225485 39.716145,11.0523359 38.6462965,11.0523359 L35.9477357,11.0523359 L34.6545893,15.8711945 L38.0213927,15.8711945 C39.701286,15.8711945 41.264371,15.5438836 42.7106477,14.8843088 C44.1565116,14.2272104 45.3943495,13.2915057 46.4237485,12.0730672 C47.4531475,10.8566923 48.1779368,9.45705639 48.6034823,7.87498488 C48.7376261,7.29011785 48.8205889,6.87736765 48.8564982,6.63301953 C49.1648226,4.51478551 48.7566126,3.18985737 47.6335193,1.94789202" id="Fill-13" fill="#FEFEFE"></path>
                <polygon id="Fill-15" fill="#CC1517" points="37.6149575 0.0467233226 34.7843167 0.0467233226 26.4137426 0.0467233226 28.3342693 4.88498116 30.5098756 4.88498116 26.0567137 21.8642861 23.1559053 21.8642861 21.8499637 26.7343257 33.3681707 26.7343257 34.6716359 21.8642861 31.7625725 21.8642861"></polygon>
            </g>
        </g>
    </g>
</svg>