<?xml version="1.0" encoding="UTF-8"?>
<svg width="213px" height="70px" viewBox="0 0 213 70" version="1.1" xmlns="http://www.w3.org/2000/svg" xmlns:xlink="http://www.w3.org/1999/xlink">
    <title>022F0393-4395-4DD5-84C2-4D8568AB6B75</title>
    <defs>
        <polygon id="path-1" points="-2.43703256e-14 0 34.8240616 0 34.8240616 40 -2.43703256e-14 40"></polygon>
        <polygon id="path-3" points="0 0 40.0616038 0 40.0616038 39.9459804 0 39.9459804"></polygon>
    </defs>
    <g id="Page-1" stroke="none" stroke-width="1" fill="none" fill-rule="evenodd">
        <g id="Desktop-HD" transform="translate(-877.000000, -3371.000000)">
            <g id="Now-in-Play" transform="translate(-63.000000, 3184.000000)">
                <g id="A1Padel-Live" transform="translate(940.853735, 187.734668)">
                    <g id="Logo-A1Padel-White">
                        <g id="Group-3" transform="translate(130.328521, 0.000000)">
                            <mask id="mask-2" fill="white">
                                <use xlink:href="#path-1"></use>
                            </mask>
                            <g id="Clip-2"></g>
                            <path d="M11.463629,31.8859071 L14.8960198,31.8859071 C16.3802737,31.8859071 17.735052,31.3431383 18.962927,30.2584583 C20.1873722,29.1737782 21.0654057,27.7143904 21.5953126,25.8871547 L24.732739,14.1160179 C24.8090525,13.8493495 24.8819361,13.4875037 24.9479601,13.0304804 C25.1700409,11.5084984 24.9419579,10.3054896 24.2697135,9.43002849 C23.5966117,8.55456734 22.5753832,8.11726549 21.2017409,8.11726549 L17.8842491,8.11726549 C17.6553087,8.11726549 17.5258331,8.21244295 17.5001094,8.40279787 L11.2767039,31.6038045 C11.2475505,31.7941594 11.3110021,31.8893369 11.463629,31.8893369 L11.463629,31.8859071 Z M0.0852064384,39.8002131 C-0.0099710226,39.6673076 -0.0262626601,39.5052487 0.040618799,39.3148938 L10.3918108,0.684848992 C10.4201068,0.49449407 10.518714,0.33243515 10.6893475,0.199529686 C10.8608384,0.0666242227 11.0417614,-0.000257236381 11.2321163,-0.000257236381 L23.0641323,-0.000257236381 C27.1018861,-0.000257236381 30.1698586,0.979813375 32.2663351,2.94338442 C34.3636691,4.90695546 35.168819,7.54277091 34.6903593,10.8576904 C34.638912,11.2006722 34.5214408,11.7520156 34.3345157,12.5134352 L30.3310601,27.4863075 C29.6656753,29.9634939 28.472956,32.1525755 26.7503297,34.0586971 C25.0242736,35.9656761 22.9183651,37.431066 20.4248871,38.4582966 C17.9314091,39.4863847 15.2381442,40 12.34252,40 L0.510503922,40 C0.320149,40 0.176954081,39.933976 0.0817766199,39.8002131 L0.0852064384,39.8002131 Z" id="Fill-1" fill="#D0251B" mask="url(#mask-2)"></path>
                        </g>
                        <path d="M211.245973,32.5457184 C211.337721,32.2061664 211.081342,31.873474 210.728928,31.873474 L198.88405,31.873474 C198.732281,31.873474 198.671401,31.7782965 198.697125,31.5879416 L206.973277,0.821613001 C207.039301,0.368019516 206.861808,0.139079137 206.4468,0.139079137 L198.655967,0.139079137 C198.465612,0.139079137 198.284689,0.205960596 198.113198,0.338866059 C197.941707,0.472628977 197.843958,0.633830443 197.814804,0.821613001 L187.515059,39.267305 C187.449035,39.45766 187.46447,39.6197189 187.559647,39.750052 C187.654825,39.8829574 187.79459,39.9498389 187.984945,39.9498389 L208.851102,39.9498389 C209.092047,39.9498389 209.304696,39.78778 209.368147,39.5528374 L211.245973,32.5491482 L211.245973,32.5457184 Z" id="Fill-4" fill="#D0251B"></path>
                        <path d="M186.493831,31.8700442 L171.923962,31.8700442 C171.772193,31.8700442 171.711314,31.7748667 171.737037,31.5845118 L173.738336,24.0792117 C173.840373,23.8888567 173.969849,23.7936793 174.122476,23.7936793 L185.211936,23.7936793 C185.402291,23.7936793 185.570352,23.7267978 185.722979,23.5938924 C185.875606,23.4609869 185.982788,23.298928 186.04967,23.1120029 L187.810024,16.4564402 C187.873476,16.2660853 187.860614,16.1074562 187.766294,15.9745507 C187.671116,15.8416453 187.527921,15.7747638 187.340996,15.7747638 L176.250678,15.7747638 C176.098909,15.7747638 176.038887,15.6795864 176.063753,15.4892314 L177.932147,8.49497424 C177.960443,8.30461932 178.087346,8.20944186 178.316286,8.20944186 L192.834708,8.20944186 L194.998066,0.133076954 L171.69588,0.133076954 C171.505525,0.133076954 171.324602,0.199100959 171.156541,0.332863877 C170.98505,0.46576934 170.8873,0.62782826 170.858146,0.814753364 L160.558402,39.2613029 C160.49152,39.4516578 160.507812,39.6128592 160.602989,39.7431923 C160.698167,39.8760978 160.837932,39.9429793 161.028287,39.9429793 L184.333903,39.9429793 L186.497261,31.8666144 L186.493831,31.8700442 Z" id="Fill-6" fill="#D0251B"></path>
                        <path d="M100.579795,11.9871296 C100.344853,13.5957144 99.6314504,14.9024753 98.438731,15.9142717 C97.2460117,16.9226383 95.8243519,17.4276791 94.1814689,17.4276791 L87.4633121,17.4276791 L89.9756541,8.00253807 L96.7255367,8.00253807 C98.070883,8.00253807 99.0921114,8.36781373 99.7935093,9.09750759 C100.49062,9.82720146 100.753858,10.7909804 100.579795,11.9871296 Z M107.983916,2.89896827 C106.261289,0.992846685 103.694928,0.0376422571 100.294263,0.0376422571 L83.4632864,0.0376422571 L73.0332086,39.1307125 C72.9217395,39.5431482 73.2329955,39.9461519 73.6608653,39.9461519 L80.9603764,39.9461519 C81.2553408,39.9461519 81.5117197,39.7497947 81.5880332,39.4642624 L85.490309,24.8275123 L93.2202623,24.8275123 C95.7994857,24.8275123 98.2003586,24.323329 100.424596,23.3149624 C102.644546,22.3057383 104.548095,20.866072 106.127526,18.9942486 C107.707815,17.125855 108.824221,14.9753589 109.477602,12.5453326 C109.683391,11.6475776 109.813724,11.0130612 109.867743,10.639211 C110.340201,7.3843133 109.712544,4.80508985 107.989918,2.89896827 L107.983916,2.89896827 Z" id="Fill-8" fill="#D0251B"></path>
                        <g id="Group-12" transform="translate(97.452988, 0.000000)">
                            <mask id="mask-4" fill="white">
                                <use xlink:href="#path-3"></use>
                            </mask>
                            <g id="Clip-11"></g>
                            <path d="M27.9487462,12.9704585 L26.4799264,18.4453062 L24.9227889,24.2665655 L24.9193591,24.2665655 L17.7501811,24.2665655 C17.7501811,24.2665655 17.7467513,24.2665655 17.7501811,24.2597059 C20.7478424,18.9023295 23.7489335,13.5449531 26.7465948,8.18671931 C26.7877526,8.11383567 26.8640661,8.06924803 26.9463817,8.06924803 L28.9639724,8.06924803 C29.1131695,8.06924803 29.2237812,8.21244295 29.1860532,8.35821024 L27.952176,12.9670287 L27.9487462,12.9704585 Z M39.4763659,-0.000257236381 L22.8254549,-0.000257236381 C22.616236,-0.000257236381 22.4198789,0.113784226 22.3152694,0.294707147 L0.0720395654,39.1408305 C-0.133749539,39.4992465 0.126059205,39.9459804 0.53849487,39.9459804 L8.53854632,39.9459804 C8.73233106,39.9459804 8.90639434,39.8448007 9.00500162,39.6801694 C9.96878059,38.0021308 12.5763,33.3993145 13.474055,31.8001616 C13.5692325,31.6286707 13.7441532,31.5274911 13.9405103,31.5274911 L22.9617902,31.5274911 L20.8910373,39.2677338 C20.7984322,39.6098582 21.0556686,39.9459804 21.4106548,39.9459804 L28.9699746,39.9459804 C29.2143492,39.9459804 29.4269979,39.7813491 29.4904495,39.5464065 L40.040571,0.74229845 C40.1426081,0.367590788 39.8605055,-0.000257236381 39.472936,-0.000257236381 L39.4763659,-0.000257236381 Z" id="Fill-10" fill="#D0251B" mask="url(#mask-4)"></path>
                        </g>
                        <path d="M41.1910317,16.4820781 L33.1969824,16.4820781 C35.7479098,13.8934227 38.2979798,11.3081971 40.8480498,8.7195416 L37.8666802,1.20823928 L0.140392544,39.0614302 C-0.160574022,39.3623968 0.0546470836,39.8768695 0.479944567,39.8768695 L9.60326154,39.8768695 C9.73016483,39.8768695 9.85020847,39.8254222 9.94195611,39.7371044 L26.0818241,23.7181375 L39.2969145,23.7181375 L41.1944615,16.4786483 L41.1910317,16.4820781 Z" id="Fill-13" fill="#D0251B"></path>
                        <path d="M71.0408271,2.90214085 C69.3687906,1.05003891 66.8127184,0.069110841 63.5098033,0.069110841 L58.0160916,0.069110841 L56.0679548,7.33346624 L60.1125681,7.33346624 C61.419329,7.33346624 62.4122614,7.6893099 63.0913654,8.39670995 C63.7704695,9.10325254 64.024276,10.039593 63.8562149,11.2005865 C63.6307044,12.7611539 62.9361662,14.0327591 61.7786024,15.0136871 C60.6201813,15.9937577 59.2405368,16.4850792 57.6448138,16.4850792 L53.6190644,16.4850792 L51.690649,23.6731212 L56.7119032,23.6731212 C59.218243,23.6731212 61.5496621,23.184372 63.7070178,22.2017291 C65.8635162,21.220801 67.7104734,19.8257224 69.2453171,18.0079186 C70.7810183,16.1935447 71.8622686,14.1065001 72.496785,11.7459276 C72.6965719,10.8738963 72.8200454,10.2582439 72.874065,9.89382568 C73.3345181,6.73410547 72.7248679,4.75767261 71.0502591,2.90557067" id="Fill-15" fill="#D0251B"></path>
                        <polygon id="Fill-17" fill="#D0251B" points="56.1064545 0.0694538229 51.884348 0.0694538229 39.3989515 0.0694538229 42.2628499 7.28579176 45.5083156 7.28579176 38.8656148 32.6124284 34.5388989 32.6124284 32.5916195 39.8767838 49.7715799 39.8767838 51.7162869 32.6124284 47.3767092 32.6124284"></polygon>
                    </g>
                    <path d="M170.051115,68.5253626 C170.157781,68.5253626 170.248448,68.4880293 170.323115,68.4133626 C170.397781,68.338696 170.445781,68.2480293 170.467115,68.1413626 L170.467115,68.1413626 L170.851115,65.0373626 C170.851115,64.7813626 170.733781,64.6533626 170.499115,64.6533626 L170.499115,64.6533626 L164.003115,64.6533626 C163.875115,64.6533626 163.832448,64.6000293 163.875115,64.4933626 L163.875115,64.4933626 L166.083115,46.5093626 C166.083115,46.2533626 165.965781,46.1253626 165.731115,46.1253626 L165.731115,46.1253626 L162.115115,46.1253626 C162.008448,46.1253626 161.917781,46.162696 161.843115,46.2373626 C161.768448,46.3120293 161.720448,46.402696 161.699115,46.5093626 L161.699115,46.5093626 L159.043115,68.1413626 C159.021781,68.2480293 159.043115,68.338696 159.107115,68.4133626 C159.171115,68.4880293 159.256448,68.5253626 159.363115,68.5253626 L159.363115,68.5253626 L170.051115,68.5253626 Z M176.280153,68.5253626 C176.38682,68.5253626 176.48282,68.4880293 176.568153,68.4133626 C176.653487,68.338696 176.70682,68.2480293 176.728153,68.1413626 L176.728153,68.1413626 L179.384153,46.5093626 C179.384153,46.2533626 179.26682,46.1253626 179.032153,46.1253626 L179.032153,46.1253626 L175.416153,46.1253626 C175.309487,46.1253626 175.21882,46.162696 175.144153,46.2373626 C175.069487,46.3120293 175.021487,46.402696 175.000153,46.5093626 L175.000153,46.5093626 L172.344153,68.1413626 C172.32282,68.2480293 172.344153,68.338696 172.408153,68.4133626 C172.472153,68.4880293 172.557487,68.5253626 172.664153,68.5253626 L172.664153,68.5253626 L176.280153,68.5253626 Z M187.693192,68.5253626 C187.927859,68.5253626 188.077192,68.4080293 188.141192,68.1733626 L188.141192,68.1733626 L195.277192,46.5413626 C195.362525,46.2640293 195.277192,46.1253626 195.021192,46.1253626 L195.021192,46.1253626 L191.149192,46.1253626 C190.914525,46.1253626 190.765192,46.242696 190.701192,46.4773626 L190.701192,46.4773626 L186.893192,60.5573626 C186.871859,60.642696 186.834525,60.6853626 186.781192,60.6853626 C186.727859,60.6853626 186.701192,60.642696 186.701192,60.5573626 L186.701192,60.5573626 L186.285192,46.4773626 C186.285192,46.242696 186.167859,46.1253626 185.933192,46.1253626 L185.933192,46.1253626 L181.933192,46.1253626 C181.677192,46.1253626 181.549192,46.242696 181.549192,46.4773626 L181.549192,46.4773626 L181.549192,46.5413626 L183.341192,68.1733626 C183.341192,68.4080293 183.458525,68.5253626 183.693192,68.5253626 L183.693192,68.5253626 L187.693192,68.5253626 Z M205.79423,68.5253626 C205.900897,68.5253626 205.991564,68.4880293 206.06623,68.4133626 C206.140897,68.338696 206.188897,68.2480293 206.21023,68.1413626 L206.21023,68.1413626 L206.59423,65.0373626 C206.615564,64.930696 206.588897,64.8400293 206.51423,64.7653626 C206.439564,64.690696 206.348897,64.6533626 206.24223,64.6533626 L206.24223,64.6533626 L199.77823,64.6533626 C199.65023,64.6533626 199.607564,64.6000293 199.65023,64.4933626 L199.65023,64.4933626 L200.25823,59.4053626 C200.25823,59.298696 200.32223,59.2453626 200.45023,59.2453626 L200.45023,59.2453626 L204.16223,59.2453626 C204.268897,59.2453626 204.359564,59.2080293 204.43423,59.1333626 C204.508897,59.058696 204.556897,58.9680293 204.57823,58.8613626 L204.57823,58.8613626 L204.96223,55.7573626 C204.983564,55.650696 204.96223,55.5600293 204.89823,55.4853626 C204.83423,55.410696 204.748897,55.3733626 204.64223,55.3733626 L204.64223,55.3733626 L200.89823,55.3733626 C200.812897,55.3733626 200.77023,55.3200293 200.77023,55.2133626 L200.77023,55.2133626 L201.41023,50.1573626 C201.41023,50.050696 201.463564,49.9973626 201.57023,49.9973626 L201.57023,49.9973626 L208.06623,49.9973626 C208.172897,49.9973626 208.263564,49.9600293 208.33823,49.8853626 C208.412897,49.810696 208.460897,49.7200293 208.48223,49.6133626 L208.48223,49.6133626 L208.86623,46.5093626 C208.887564,46.402696 208.86623,46.3120293 208.80223,46.2373626 C208.73823,46.162696 208.652897,46.1253626 208.54623,46.1253626 L208.54623,46.1253626 L197.89023,46.1253626 C197.783564,46.1253626 197.692897,46.162696 197.61823,46.2373626 C197.543564,46.3120293 197.495564,46.402696 197.47423,46.5093626 L197.47423,46.5093626 L194.81823,68.1413626 C194.796897,68.2480293 194.81823,68.338696 194.88223,68.4133626 C194.94623,68.4880293 195.031564,68.5253626 195.13823,68.5253626 L195.13823,68.5253626 L205.79423,68.5253626 Z" id="LIVE" fill="#FFFFFF" fill-rule="nonzero"></path>
                    <g id="Live-icon" transform="translate(132.146265, 47.265332)">
                        <circle id="Oval" stroke="#D0251B" opacity="0.276447114" cx="11" cy="11" r="10.5"></circle>
                        <circle id="Oval" stroke="#D0251B" opacity="0.708064488" cx="11" cy="11" r="7.5"></circle>
                        <circle id="Oval" fill="#D0251B" cx="11" cy="11" r="5"></circle>
                    </g>
                </g>
            </g>
        </g>
    </g>
</svg>