<?xml version="1.0" encoding="UTF-8"?>
<svg width="71px" height="41px" viewBox="0 0 71 41" version="1.1" xmlns="http://www.w3.org/2000/svg" xmlns:xlink="http://www.w3.org/1999/xlink">
    <title>52E7BC0C-7EB7-4CFA-8067-F50CF41B847C</title>
    <g id="Page-1" stroke="none" stroke-width="1" fill="none" fill-rule="evenodd">
        <g id="Desktop-HD" transform="translate(-756.000000, -2738.000000)">
            <g id="Calendar" transform="translate(229.000000, 2200.000000)">
                <g id="Date/Master-Copy-8" transform="translate(0.000000, 256.000000)">
                    <g id="Date/Master-Copy-12" transform="translate(503.000000, 270.000000)">
                        <g id="Flag-Copy" transform="translate(24.000000, 12.000000)">
                            <polygon id="Fill-1" fill="#F5F5F5" points="1.36424205e-12 41 70.2873435 41 70.2873435 0 1.36424205e-12 0"></polygon>
                            <polygon id="Fill-2" fill="#354C80" points="0 41 35.1436718 41 35.1436718 20.140751 0 20.140751"></polygon>
                            <polygon id="Fill-3" fill="#B43441" points="34.2141864 20.2833102 70.1390821 20.2833102 70.1390821 0 34.2141864 0"></polygon>
                            <polygon id="Fill-4" fill="#354C80" points="17.5245063 9.52979138 15.8480111 9.52979138 17.2051739 10.5105981 16.6805563 12.1072601 18.0377191 11.1150487 19.3948818 12.1072601 18.8702643 10.5105981 20.227427 9.52979138 18.5509318 9.52979138 18.0377191 7.93883171"></polygon>
                            <polygon id="Fill-5" fill="#B43441" points="51.7386926 30.2789847 50.0621975 30.2732823 51.4193602 31.2597914 50.8947427 32.850751 52.2519054 31.864242 53.6090682 32.850751 53.0844506 31.2597914 54.4416134 30.2732823 52.7651182 30.2789847 52.2519054 28.6823227"></polygon>
                        </g>
                    </g>
                </g>
            </g>
        </g>
    </g>
</svg>