<?xml version="1.0" encoding="UTF-8"?>
<svg width="71px" height="41px" viewBox="0 0 71 41" version="1.1" xmlns="http://www.w3.org/2000/svg" xmlns:xlink="http://www.w3.org/1999/xlink">
    <title>D43FBD7C-897E-4661-A402-72131006FB84</title>
    <g id="Page-1" stroke="none" stroke-width="1" fill="none" fill-rule="evenodd">
        <g id="Desktop-HD" transform="translate(-253.000000, -2468.000000)">
            <g id="Calendar" transform="translate(229.000000, 2200.000000)">
                <g id="Date/Master-Copy-8" transform="translate(0.000000, 256.000000)">
                    <g id="cape-twon" transform="translate(24.000000, 12.000000)">
                        <polygon id="Fill-1" fill="#F5F5F5" points="0 40.9988597 70.2756146 40.9988597 70.2756146 0 0 0"></polygon>
                        <polygon id="Fill-2" fill="#C73D41" points="12.3150517 0 32.8116309 13.6605852 70.2756146 13.6605852 70.2756146 0"></polygon>
                        <polygon id="Fill-3" fill="#F5F5F5" points="32.8144816 13.6594449 36.9137974 16.396123 70.2784653 16.396123 70.2784653 13.6594449"></polygon>
                        <polygon id="Fill-4" fill="#F5F5F5" points="36.9143676 24.5993158 32.8150517 27.3416954 70.2790355 27.3416954 70.2790355 24.5993158"></polygon>
                        <polygon id="Fill-5" fill="#3D4088" points="32.8144816 27.3394148 12.3179024 41 70.2784653 41 70.2784653 27.3394148"></polygon>
                        <polygon id="Fill-6" fill="#282828" points="0 13.6594449 8.17582601 13.6594449 0 8.20319279"></polygon>
                        <polygon id="Fill-7" fill="#282828" points="0 13.6594449 0 27.3371343 8.17582601 27.3371343 18.4269663 20.4954389 8.17582601 13.6594449"></polygon>
                        <polygon id="Fill-8" fill="#282828" points="0 27.3394148 0 32.7842641 8.17582601 27.3394148"></polygon>
                        <polygon id="Fill-9" fill="#E9AA36" points="0 8.20490322 18.4269663 20.4971493 0 32.783694 0 36.0620063 23.352987 20.4971493 0 4.92659083"></polygon>
                        <polygon id="Fill-10" fill="#417D56" points="0 0 0 4.92602069 23.352987 20.4965792 0 36.0614362 0 40.9988597 7.38903104 40.9988597 31.9906274 24.6015964 70.2756146 24.6015964 70.2756146 16.3915619 31.9906274 16.3915619 7.38903104 0"></polygon>
                    </g>
                </g>
            </g>
        </g>
    </g>
</svg>