<?xml version="1.0" encoding="UTF-8"?>
<svg width="33px" height="33px" viewBox="0 0 33 33" version="1.1" xmlns="http://www.w3.org/2000/svg" xmlns:xlink="http://www.w3.org/1999/xlink">
    <title>2FD65B47-20D6-4ADF-84C7-C6E8D84B10A3</title>
    <g id="Page-1" stroke="none" stroke-width="1" fill="none" fill-rule="evenodd">
        <g id="Desktop-HD" transform="translate(-778.000000, -8166.000000)">
            <g id="Footer-Red" transform="translate(-14.000000, 8042.000000)">
                <g id="Social-Networks" transform="translate(793.000000, 37.000000)">
                    <g id="Tik-Tok" transform="translate(0.000000, 88.000000)">
                        <path d="M0,8.18780702 L0,22.8754167 C0,27.3785746 3.76296491,31.0630877 8.36197807,31.0630877 L22.7008377,31.0630877 C27.3001228,31.0630877 31.0629518,27.3785746 31.0629518,22.8754167 L31.0629518,8.18780702 C31.0629518,3.68451316 27.3001228,0 22.7008377,0 L8.36197807,0 C3.76296491,0 0,3.68451316 0,8.18780702 Z" id="Stroke-1" stroke="#F0E6CD" stroke-width="0.5"></path>
                        <g id="Group-6" transform="translate(8.300213, 7.206140)" fill="#F0E6CD">
                            <path d="M14.5022796,4.07208099 C14.5022796,3.9963868 14.5000654,3.9941605 14.4218299,3.9949026 C14.2328837,3.9963868 14.0454137,3.9733817 13.8594198,3.94518191 C13.1840849,3.84277212 10.9934903,2.68732258 10.6222407,0.79719415 C10.61486,0.760089155 10.532196,0.291082022 10.5336721,0.09145715 C10.5336721,0.00166306271 10.532196,0.00166306271 10.4443656,0.000178862916 C10.4244377,0.000178862916 10.4037717,0.000178862916 10.3838437,0.000178862916 C9.52620531,0.000178862916 8.66930495,0.000178862916 7.81166651,0.000920962811 C7.63895791,0.000920962811 7.66331425,-0.021342034 7.66331425,0.153051441 C7.66257618,3.89175071 7.66257618,7.63044998 7.66331425,11.3684072 C7.66331425,11.5079219 7.6596239,11.6474367 7.63526756,11.7839831 C7.50610514,12.5075305 7.13780774,13.0737527 6.51339972,13.4603868 C5.97313179,13.7950738 5.38710346,13.8908047 4.76417159,13.766874 C4.56784472,13.7282848 4.38406505,13.6540748 4.19954731,13.5798648 C4.18404783,13.566507 4.16928641,13.5524071 4.15452499,13.5390493 C4.09252703,13.4863603 4.02388643,13.4433185 3.95746005,13.3973083 C3.16403378,12.8444438 2.7876176,12.0771126 2.9020186,11.1183195 C3.01863381,10.1446844 3.5751393,9.48421552 4.49256148,9.14359167 C4.7663858,9.04192398 5.05497154,9.00036639 5.34724763,9.01595049 C5.53619379,9.02633989 5.72366381,9.05008708 5.90596734,9.10203408 C5.96944144,9.12058657 6.0033927,9.09832358 6.00634498,9.03079249 C6.00782113,9.00704529 6.0085592,8.98329809 6.0085592,8.9595509 C6.0085592,8.28869259 5.98346478,6.8223032 5.9805125,6.8193348 C5.98125057,6.62564673 5.98125057,6.43270075 5.98494093,6.23975478 C5.98641707,6.18335519 5.95837037,6.17444999 5.9118719,6.16851319 C5.56571663,6.1269556 5.22029943,6.1195346 4.87266802,6.14476599 C4.39218383,6.18038679 3.92572299,6.27982818 3.47328551,6.44309015 C2.75145212,6.70430932 2.11744918,7.10801166 1.56980054,7.64751828 C1.10038742,8.10984652 0.730613882,8.64564264 0.459741845,9.24822776 C0.200678944,9.82558147 0.0523266848,10.4318771 0.010994712,11.062662 C-0.00671899066,11.3364969 -0.00302863594,11.6110738 0.0220657761,11.8856508 C0.0567551105,12.2648638 0.128347992,12.6359138 0.242748988,12.9988006 C0.5726667,14.0399668 1.17271838,14.8948659 2.0229761,15.5731452 C2.1093304,15.6414184 2.19273242,15.7171125 2.29606235,15.7623806 C2.29606235,15.7623806 2.29606235,15.7623806 2.29606235,15.7623806 C2.33960854,15.8009698 2.38315472,15.839559 2.42670091,15.8781482 C2.5639821,15.9827843 2.71159629,16.0718363 2.86585312,16.1482726 C3.81870271,16.6217323 4.82247919,16.8139362 5.88013485,16.6840687 C7.25294681,16.515612 8.39695677,15.9041217 9.29740332,14.8503399 C10.1447088,13.8581523 10.5565523,12.6937976 10.5639331,11.3921544 C10.5742661,9.53022572 10.5661473,7.66903918 10.5676234,5.80711054 C10.5676234,5.76258455 10.5417909,5.69950606 10.5905036,5.67724306 C10.6288833,5.65943266 10.667263,5.71063756 10.7026904,5.73364265 C11.3920487,6.18929199 12.1352861,6.51804224 12.9397834,6.70356722 C13.4084585,6.8111717 13.8815619,6.87647649 14.3635223,6.87573439 C14.5155649,6.87573439 14.5355386,6.86757129 14.5355386,6.71618291 C14.5369689,6.05497191 14.5022796,4.24795866 14.5022796,4.07208099" id="Fill-4"></path>
                        </g>
                    </g>
                </g>
            </g>
        </g>
    </g>
</svg>