<?xml version="1.0" encoding="UTF-8"?>
<svg width="33px" height="33px" viewBox="0 0 33 33" version="1.1" xmlns="http://www.w3.org/2000/svg" xmlns:xlink="http://www.w3.org/1999/xlink">
    <title>AA70C405-E2FF-49C2-B129-BD9B3E53EACF</title>
    <g id="Page-1" stroke="none" stroke-width="1" fill="none" fill-rule="evenodd">
        <g id="Desktop-HD" transform="translate(-778.000000, -8287.000000)">
            <g id="Footer-Red" transform="translate(-14.000000, 8042.000000)">
                <g id="Social-Networks" transform="translate(793.000000, 37.000000)">
                    <g id="twitch-" transform="translate(0.000000, 209.000000)">
                        <path d="M0,8.18780702 L0,22.8754167 C0,27.3785746 3.76296491,31.0630877 8.36197807,31.0630877 L22.7008377,31.0630877 C27.3001228,31.0630877 31.0629518,27.3785746 31.0629518,22.8754167 L31.0629518,8.18780702 C31.0629518,3.68451316 27.3001228,0 22.7008377,0 L8.36197807,0 C3.76296491,0 0,3.68451316 0,8.18780702 Z" id="Stroke-1" stroke="#F0E6CD" stroke-width="0.5"></path>
                        <g id="Group-9" transform="translate(8.293860, 8.021930)" fill="#F0E6CD">
                            <path d="M13.3355994,7.82754486 L10.9110088,10.2359666 L8.48641813,10.2359666 L6.36498904,12.3432485 L6.36498904,10.2359666 L3.63723684,10.2359666 L3.63723684,1.20386232 L13.3355994,1.20386232 L13.3355994,7.82754486 Z M3.03091374,0 L0,3.01070142 L0,13.8489477 L3.63723684,13.8489477 L3.63723684,16.8596491 L6.66744882,13.8489477 L9.09274123,13.8489477 L14.5482456,8.42982456 L14.5482456,0 L3.03091374,0 Z" id="Fill-4"></path>
                            <polygon id="Fill-6" points="10.3333333 6.93421053 11.5570175 6.93421053 11.5570175 3.26315789 10.3333333 3.26315789"></polygon>
                            <polygon id="Fill-8" points="6.93421053 6.93421053 8.15789474 6.93421053 8.15789474 3.26315789 6.93421053 3.26315789"></polygon>
                        </g>
                    </g>
                </g>
            </g>
        </g>
    </g>
</svg>