<?xml version="1.0" encoding="UTF-8"?>
<svg width="33px" height="33px" viewBox="0 0 33 33" version="1.1" xmlns="http://www.w3.org/2000/svg" xmlns:xlink="http://www.w3.org/1999/xlink">
    <title>2EC79BFC-C457-4D6B-BD98-56B2DD37871C</title>
    <g id="Page-1" stroke="none" stroke-width="1" fill="none" fill-rule="evenodd">
        <g id="Desktop-HD" transform="translate(-778.000000, -8247.000000)">
            <g id="Footer-Red" transform="translate(-14.000000, 8042.000000)">
                <g id="Social-Networks" transform="translate(793.000000, 37.000000)">
                    <g id="twitter-icon" transform="translate(0.000000, 169.000000)">
                        <path d="M22.828822,0 L8.17117795,0 C3.67703008,0 0,3.75533894 0,8.3450318 L0,22.6548325 C0,27.2447968 3.67703008,31 8.17117795,31 L22.828822,31 C27.3229699,31 31,27.2447968 31,22.6548325 L31,8.3450318 C31,3.75533894 27.3229699,0 22.828822,0 Z" id="Stroke-1" stroke="#F0E6CD" stroke-width="0.5"></path>
                        <g id="Group-5" transform="translate(7.327194, 7.879839)" fill="#F0E6CD">
                            <path d="M4.57509626,7.80440072e-06 C4.78662758,-0.000823189367 4.91287749,0.0646146937 5.03578304,0.24079361 C6.35513646,2.14268696 7.68368689,4.03786872 9.00972905,5.93472838 C9.04484492,5.98422627 9.08414125,6.03036837 9.13848724,6.09916204 C9.7496706,5.4019969 10.3499848,4.71825492 10.9486268,4.03451293 C12.0806955,2.74337316 13.210256,1.4505555 14.3456692,0.161932571 C14.4083761,0.0906220575 14.5112154,0.0142778606 14.598169,0.0109220717 C15.0028376,-0.00501792546 15.4083423,0.00421049395 15.9083254,0.00421049395 C13.827292,2.37759218 11.7997686,4.69140861 9.76304808,7.01361451 C11.9803645,10.1823182 14.1817951,13.3300481 16.4183416,16.526437 C16.2745338,16.5365044 16.1792193,16.5482497 16.0839048,16.5482497 C14.6725812,16.5490886 13.2612576,16.5440549 11.8507702,16.5541522 C11.6266975,16.5558002 11.4937588,16.4870065 11.3650006,16.3024381 C9.99046514,14.3242006 8.60756872,12.3518357 7.22550839,10.3786318 C7.17283459,10.3031266 7.11430814,10.231816 7.03905984,10.1328203 C6.57837306,10.6580012 6.12939158,11.1672422 5.68291837,11.6773221 C4.31089114,13.2444755 2.93970001,14.8133068 1.56516451,16.3787823 C1.50078542,16.4509318 1.40212654,16.5356654 1.31600905,16.5390212 C0.902143434,16.5549612 0.485769541,16.5465718 0,16.5465718 C0.263369028,16.240356 0.48158908,15.9811213 0.705661778,15.7260814 C2.54757279,13.6236796 4.38781162,11.5187611 6.24059183,9.42558776 C6.41784337,9.22591832 6.34677554,9.11433834 6.23139482,8.94906574 C4.22560974,6.08322204 2.22233294,3.2148615 0.219892236,0.346500959 C0.155513141,0.254216765 0.0944784134,0.158576782 0.00752482938,0.0277010161 C0.135446929,0.0176336494 0.223236605,0.00588838838 0.310190189,0.00588838838 C1.73154685,0.00421049395 3.1537396,0.00924417726 4.57509626,7.80440072e-06 Z M1.89964283,0.951076116 C1.92942316,0.99666727 1.95513807,1.03671675 1.97841983,1.07292145 L1.94809472,1.07135136 C2.03421221,1.20390502 2.08604992,1.28947763 2.14374028,1.37001657 C3.64703397,3.48584145 5.15199985,5.60082739 6.65612963,7.71665228 C8.46376087,10.2578234 10.270556,12.8006724 12.0823677,15.3384878 C12.1467468,15.4282551 12.2671441,15.5331235 12.3641308,15.5356404 C13.0413654,15.5532582 13.7186001,15.5448688 14.4627221,15.5448688 C14.4444899,15.5160198 14.4280956,15.4897159 14.4130845,15.4654774 L14.5186988,15.4666351 L14.5186988,15.4666351 C14.4310196,15.3286481 14.3854939,15.2487166 14.3323806,15.1746748 L12.4203002,12.5083285 L12.4203002,12.5083285 C9.70899046,8.72041717 6.99852381,4.93166443 4.28468488,1.14543585 C4.22819926,1.06718713 4.13630474,0.961172726 4.05958547,0.959489957 C3.35899517,0.945186427 2.65840488,0.951076116 1.89964283,0.951076116 Z" id="Combined-Shape"></path>
                        </g>
                    </g>
                </g>
            </g>
        </g>
    </g>
</svg>