<?xml version="1.0" encoding="UTF-8"?>
<svg width="33px" height="33px" viewBox="0 0 33 33" version="1.1" xmlns="http://www.w3.org/2000/svg" xmlns:xlink="http://www.w3.org/1999/xlink">
    <title>586F153F-95C8-40C3-8915-6DF430FC5BB2</title>
    <defs>
        <polygon id="path-1" points="0 0 21.8458926 0 21.8458926 15.4685879 0 15.4685879"></polygon>
    </defs>
    <g id="Page-1" stroke="none" stroke-width="1" fill="none" fill-rule="evenodd">
        <g id="Desktop-HD" transform="translate(-778.000000, -8207.000000)">
            <g id="Footer-Red" transform="translate(-14.000000, 8042.000000)">
                <g id="Social-Networks" transform="translate(793.000000, 37.000000)">
                    <g id="Youtube-icon" transform="translate(0.000000, 129.000000)">
                        <path d="M22.828822,0 L8.17104226,0 C3.67689439,0 0,3.75533894 0,8.3450318 L0,22.6548325 C0,27.2447968 3.67689439,31 8.17104226,31 L22.828822,31 C27.3229699,31 31,27.2447968 31,22.6548325 L31,8.3450318 C31,3.75533894 27.3229699,0 22.828822,0 Z" id="Stroke-1" stroke="#F0E6CD" stroke-width="0.5"></path>
                        <g id="Group-3" transform="translate(4.613418, 7.671334)">
                            <mask id="mask-2" fill="white">
                                <use xlink:href="#path-1"></use>
                            </mask>
                            <g id="Clip-2"></g>
                            <path d="M8.95545907,10.71946 L8.95545907,4.74912787 C10.677234,5.73943768 12.3902161,6.72470571 14.1116325,7.71479334 C12.3914624,8.71718636 10.6798804,9.71458886 8.95545907,10.71946 M20.609037,6.70772722 C20.6073429,6.48303306 20.6087491,6.25828806 20.6087491,6.03357695 C20.6052761,6.03328882 20.6018032,6.03301763 20.5983134,6.0327295 C20.5905036,5.9521535 20.5798815,5.87174699 20.575443,5.7910015 C20.5626017,5.55891754 20.5527928,5.32668104 20.5406292,5.09456318 C20.5366819,5.01934309 20.5313286,4.94405521 20.522875,4.86920801 C20.4960235,4.63185288 20.4688331,4.39449775 20.4390338,4.15749855 C20.4123856,3.94561791 20.3928695,3.73202541 20.351076,3.52302612 C20.274096,3.13794268 20.16608,2.76223208 19.9706653,2.4162163 C19.8442513,2.1923696 19.6877163,1.99245503 19.4935213,1.82776067 C19.155785,1.54128706 18.7531306,1.3793554 18.3290968,1.2726439 C17.9502615,1.17732219 17.5643619,1.11789866 17.1747521,1.08357674 C16.8837222,1.05794971 16.5933869,1.02459389 16.3022385,1.00064482 C16.0406182,0.97911947 15.7783541,0.965153415 15.5163273,0.94895008 C15.318202,0.936695884 15.1200089,0.925424736 14.921782,0.91505189 C14.6897915,0.902933287 14.4577503,0.891289258 14.2256413,0.881238445 C13.9400495,0.868865605 13.654356,0.857848693 13.3686795,0.847255509 C13.1892062,0.840611463 13.0096822,0.835001313 12.8301412,0.830340312 C12.5829208,0.823916605 12.3356665,0.813306471 12.088463,0.814136206 C11.2232509,0.817238661 10.3580388,0.823577623 9.49286059,0.830662344 C9.24841852,0.832662338 9.00402727,0.840831802 8.75963602,0.84723856 C8.58290723,0.851882612 8.40621232,0.857594457 8.22956824,0.864136808 C7.94104562,0.874814738 7.65255687,0.885679108 7.3641359,0.898136693 C7.13485604,0.908034964 6.90561007,0.919373909 6.67646575,0.931984036 C6.38901041,0.947814491 6.10158895,0.964441553 5.81428608,0.982882169 C5.577603,0.998068558 5.34093686,1.01427189 5.10457566,1.03393284 C4.86611377,1.05376328 4.626754,1.06930561 4.3901048,1.10308515 C4.05360519,1.15113584 3.71608912,1.20006787 3.38472264,1.27423712 C2.96626234,1.36793171 2.57433169,1.52974473 2.23464717,1.8037099 C1.90246752,2.07159035 1.67281496,2.41057226 1.52591932,2.80631668 C1.39069605,3.17051884 1.3013999,3.54619553 1.26938136,3.93512642 C1.24679897,4.20956617 1.21049435,4.48288728 1.18720044,4.75727618 C1.16524487,5.01615666 1.15006571,5.27568121 1.13597077,5.53515491 C1.12184196,5.79539132 1.11150793,6.05586501 1.10181766,6.31632176 C1.09421114,6.52125327 1.0846564,6.72635427 1.08551019,6.93133663 C1.08818014,7.50621604 1.09480408,8.0810785 1.10186849,8.65590707 C1.10449435,8.86943177 1.11272768,9.08288868 1.11835211,9.29636253 C1.12404429,9.51266688 1.12870307,9.72900513 1.1357336,9.94527559 C1.13910486,10.0487329 1.14481399,10.1522071 1.15304733,10.2553762 C1.17429138,10.5221041 1.19778858,10.7886287 1.21982885,11.0552888 C1.23200945,11.2026442 1.23328003,11.3516776 1.25672641,11.4971856 C1.29977356,11.7643711 1.34390493,12.0323702 1.40855189,12.2948778 C1.53237385,12.7978422 1.74623737,13.2529593 2.14277598,13.6073818 C2.35736797,13.7991778 2.60131875,13.937635 2.86465006,14.0436007 C3.28294095,14.2118883 3.72472904,14.2866168 4.16807571,14.3487692 C4.42662966,14.3850063 4.68703017,14.4086673 4.94695634,14.4343452 C5.20191879,14.4595485 5.45718618,14.4819552 5.71257216,14.5022093 C5.9574547,14.521616 6.20259135,14.5377516 6.44774495,14.5533109 C6.65146079,14.566243 6.85531216,14.5775989 7.05921436,14.587209 C7.32786516,14.59987 7.5966176,14.6108361 7.86538699,14.621192 C8.04484329,14.6281242 8.22436734,14.6337343 8.40392528,14.6381411 C8.67086504,14.6447173 8.9378895,14.6551749 9.20486314,14.6544517 C10.448199,14.6508698 11.691484,14.6445648 12.9348028,14.6377512 C13.0917614,14.6368868 13.2486523,14.6266157 13.4056278,14.6216835 C13.6048713,14.6154293 13.8041316,14.6100734 14.0034089,14.604548 C14.2139689,14.5987344 14.424529,14.5940904 14.6350551,14.5871751 C14.7469167,14.5834972 14.8587783,14.5780226 14.9704027,14.5700396 C15.2708857,14.548599 15.5712162,14.5248025 15.8716823,14.5031076 C16.0471913,14.4904297 16.2231747,14.4837687 16.398328,14.4676501 C16.6668432,14.4429383 16.9349011,14.4132266 17.2029759,14.3840572 C17.4017619,14.3624132 17.6018524,14.3473963 17.798453,14.3128032 C18.0263775,14.2727016 18.2529807,14.2215493 18.4767886,14.16238 C18.8522695,14.0631091 19.2036942,13.9065673 19.5003485,13.651602 C19.8059307,13.3889589 20.0152879,13.0568074 20.1520529,12.6781647 C20.2823124,12.3175727 20.3623757,11.945862 20.4063377,11.5654396 C20.4436079,11.2427119 20.4887388,10.9208655 20.5225531,10.5978158 C20.5466771,10.3674945 20.5601622,10.1359699 20.5740708,9.9047164 C20.5883521,9.66709009 20.5984828,9.42917564 20.6083594,9.19131204 C20.6157965,9.01177027 20.6255037,8.83209291 20.6246936,8.65251725 C20.6215395,8.00424826 20.6138991,7.35599621 20.609037,6.70772722" id="Fill-1" fill="#F0E6CD" mask="url(#mask-2)"></path>
                        </g>
                    </g>
                </g>
            </g>
        </g>
    </g>
</svg>